<?xml version="1.0" encoding="utf-8"?>
<!-- Generator: Adobe Illustrator 18.1.1, SVG Export Plug-In . SVG Version: 6.00 Build 0)  -->
<!DOCTYPE svg PUBLIC "-//W3C//DTD SVG 1.1//EN" "http://www.w3.org/Graphics/SVG/1.1/DTD/svg11.dtd">
<svg version="1.1" id="Calque_1" xmlns="http://www.w3.org/2000/svg" xmlns:xlink="http://www.w3.org/1999/xlink" x="0px" y="0px"
	 viewBox="0 0 80 80" enable-background="new 0 0 80 80" xml:space="preserve">
<g>
	<path fill="#000032" d="M12,19v42h56V19H12z M66,21v10H14V21H66z M14,59V33h52v26H14z"/>
	<path fill="#000032" d="M57,35h-2v6h-6v-6h-2v6h-6v-6h-2v6h-6v-6h-2v6h-6v-6h-2v6h-6v2h6v6h-6v2h6v6h2v-6h6v6h2v-6h6v6h2v-6h6v6h2
		v-6h6v6h2v-6h6v-2h-6v-6h6v-2h-6V35z M25,49v-6h6v6H25z M33,49v-6h6v6H33z M41,49v-6h6v6H41z M55,49h-6v-6h6V49z"/>
	<rect x="16" y="23" fill="#000032" width="2" height="6"/>
	<path fill="#000032" d="M26,23h-6v6h6V23z M24,27h-2v-2h2V27z"/>
</g>
</svg>
