<?xml version="1.0" encoding="utf-8"?>
<!-- Generator: Adobe Illustrator 18.1.1, SVG Export Plug-In . SVG Version: 6.00 Build 0)  -->
<!DOCTYPE svg PUBLIC "-//W3C//DTD SVG 1.1//EN" "http://www.w3.org/Graphics/SVG/1.1/DTD/svg11.dtd">
<svg version="1.1" id="Calque_1" xmlns="http://www.w3.org/2000/svg" xmlns:xlink="http://www.w3.org/1999/xlink" x="0px" y="0px"
	 viewBox="0 0 160 160" enable-background="new 0 0 160 160" xml:space="preserve">
<g>
	<path fill="#000032" d="M107,26v-4H53v4H39v23c0,7.7,6.3,14,14,14c0,12.8,9,23.6,21,26.3V100c0,8.8-7.2,16-16,16H47v22h66v-22h-11
		c-8.8,0-16-7.2-16-16V89.3c12-2.7,21-13.5,21-26.3c7.7,0,14-6.3,14-14V26H107z M53,59c-5.5,0-10-4.5-10-10V30h10V59z M109,120v14
		H51v-14H109z M82,90v10c0,6.5,3.2,12.3,8,16H70c4.9-3.7,8-9.5,8-16V90H82z M103,63c0,12.7-10.3,23-23,23S57,75.7,57,63V26h46V63z
		 M117,49c0,5.5-4.5,10-10,10V30h10V49z"/>
	<rect x="60" y="125" fill="#000032" width="40" height="4"/>
</g>
</svg>
