<?xml version="1.0" encoding="utf-8"?>
<!-- Generator: Adobe Illustrator 18.1.1, SVG Export Plug-In . SVG Version: 6.00 Build 0)  -->
<!DOCTYPE svg PUBLIC "-//W3C//DTD SVG 1.1//EN" "http://www.w3.org/Graphics/SVG/1.1/DTD/svg11.dtd">
<svg version="1.1" id="Calque_1" xmlns="http://www.w3.org/2000/svg" xmlns:xlink="http://www.w3.org/1999/xlink" x="0px" y="0px"
	 viewBox="0 0 1220 488" enable-background="new 0 0 1220 488" xml:space="preserve">
<g>
	<g>
		<path fill="#FFFFFF" d="M549,472.9v-21.9h7v-8.8h-7v-8.2l-10.2,3.7v4.5h-6.2v8.8h6.2v24c0,4.7,2.9,9.6,11.1,9.6c3.9,0,6.4-1,6.4-1
			v-9.2c0,0-2.8,0.8-4.4,0.8C550.4,475.4,549,474.6,549,472.9z"/>
		<path fill="#FFFFFF" d="M625,441.2c-5.7,0-10.9,2.3-14.7,6.5c-3.7,4.1-5.8,9.8-5.8,16.1c0,14,10.5,22,20.2,22
			c9.7,0,16-4.3,18.3-10.7l-9.6-2.8c-1.6,2.5-4,4-8.6,4c-5.7,0-9.2-4.7-9.4-9.2h28.7c0,0,0.1-1.3,0.1-2.2c0-7.1-1.7-12.9-5-17.1
			C636,443.7,631.2,441.2,625,441.2z M615.5,459c0.7-4,3.1-8.5,9.2-8.5c6.1,0,8.4,4.1,8.7,8.5H615.5z"/>
		<path fill="#FFFFFF" d="M503.4,425.6l-21.4,59h11.2l4.1-11.9h22.5l4.2,11.9H536l-21.4-59H503.4z M500.7,462.9l7.9-22.7l7.7,22.7
			H500.7z"/>
		<path fill="#FFFFFF" d="M670.3,441.2c-3.9,0-8.8,2.5-11,6.1l-0.7-5.1h-9.1v42.6h10.2v-24.6c0-5.8,4.8-9.4,9.2-9.4
			c5.8,0,7.9,5,7.9,9.6v24.4H687v-24.9C687,447.8,681.1,441.2,670.3,441.2z"/>
		<path fill="#FFFFFF" d="M732.6,473.5v-31.2h-9.1l-0.6,5c-2.1-3.9-6.4-6-10.7-6c-11.2,0-19.7,9.7-19.7,22.5c0,12.7,8.1,22,19.2,22
			c5,0,10.1-3.4,11.6-6.8c0.1,2.9,2.7,5.8,7.9,5.8c3.7,0,6.9-1,6.9-1v-9.2c0,0-2.1,0.8-3.4,0.8C733.5,475.4,732.6,474.7,732.6,473.5
			z M712.7,476.2c-5.6,0-10.2-5.7-10.2-12.8c0-7,4.6-12.8,10.2-12.8c5.6,0,10.2,5.7,10.2,12.8C722.9,470.5,718.3,476.2,712.7,476.2z
			"/>
		<path fill="#FFFFFF" d="M582.5,441.2c-3.7,0-8.3,2.3-10.6,5.6v-21l-10.2,3.7v55.3h10.2v-24.6c0-5.8,4.8-9.4,9.2-9.4
			c5.8,0,7.9,5,7.9,9.6v24.4h10.2v-24.9C599.2,447.8,593.3,441.2,582.5,441.2z"/>
		<path fill="#FFFFFF" d="M98.7,157.3c1.4,0,2.8-0.1,4.2-0.2c1.5-0.1,3.3-0.8,5.3-1.8l0,0l0,0c4.7-2.1,10.7-5.2,17.4-5.2
			c1.5,0,3,0.1,4.5,0.5c8.7,1.9,36.5,34,41.5,41.6c2,3.1,2.5,4.6,3.6,4.6c0.3,0,0.7-0.1,1.2-0.4c2.3-1.2,4.8-3.4,9.3-7.8
			s6.7-7,7.8-9.3c1.1-2.1-0.1-2.2-4.2-4.8c-7.6-5-39.7-32.8-41.6-41.5c-1.9-8.6,2.2-16.3,4.7-22l0,0l0,0c0.9-2.1,1.6-3.8,1.8-5.3
			c1.2-12.2-2.6-29-18.9-45.3C119.1,44,100.5,36.7,83.8,36.7c-13.9,0-26.6,5-35.7,14.1c-20,20-20.4,57.4,9.5,87.3
			C72.1,152.7,87,157.3,98.7,157.3z M145.9,133.4c0.9,4.2,7.4,12,19.2,23.1c9.4,8.9,19.4,17.1,23.2,19.6c0.9,0.6,1.6,1,2.2,1.4
			c0.5,0.3,1,0.6,1.3,0.8c0,0,0,0,0,0c-1,2-3,4.3-7.5,8.8c-4.5,4.5-6.8,6.5-8.8,7.5c0,0,0,0,0,0c-0.2-0.3-0.6-0.9-0.8-1.3
			c-0.4-0.6-0.8-1.3-1.4-2.2c-2.5-3.8-10.7-13.8-19.6-23.2c-11.1-11.8-18.9-18.3-23.1-19.2c-1.6-0.3-3.3-0.5-4.9-0.5
			c-5,0-9.6,1.6-13.5,3.2l36.4-36.4C146.5,120,144.4,126.4,145.9,133.4z M49.5,52.3c8.7-8.7,20.9-13.5,34.3-13.5h0
			c17.5,0,35.4,8.2,50.2,23c17.9,17.9,19.2,35,18.3,43.7c-0.1,1.1-0.7,2.6-1.4,4.4l-43.8,43.8c-1.7,0.8-3.2,1.3-4.4,1.4
			c-1.3,0.1-2.6,0.2-4,0.2c-9.7,0-24.4-3.2-39.7-18.5c-13.6-13.6-21.7-29.9-22.9-46.1C35.1,75.9,39.9,61.9,49.5,52.3z"/>
		<path fill="#FFFFFF" d="M449.9,463.1c0-3.1-0.1-5.5-0.4-7c-0.2-0.8-0.4-1.4-0.7-1.9c-0.9-2-3.5-3.6-7.5-4.6
			c-5.1-1.3-14.3-2.6-22.4-3.8l-3-0.4c-1.8-0.3-4.1-0.9-7.1-2c-0.2-0.1-22.3-8.4-50.3-22.8l-17.8-13.3c-1.2-0.9-3-0.7-4,0.3
			c-0.4,0.4-1.9,2.3-6.8,10.1c-4.1,6.4-2.4,11.1-0.8,13.4c-5.5,2.8-9.9,4.1-13.7,4.1c-7.2,0-7.8-2.2-9.3-7.5l-0.1-0.2
			c-1.4-5.1-4.1-7.8-7.6-7.8c-0.2,0-0.5,0-0.7,0c-0.8,0.1-3.1,0.3-4.6,2.5c-0.9,1.2-1.4,2.9-1.9,5.6c-0.5,3.3-0.8,5.5-1,7.2
			c-0.2,2-0.4,3.4-0.9,5.4c-3,12.1-0.2,22,1.1,25.5c-0.2,0.3-0.4,0.6-0.4,0.9c-0.1,0.2-0.1,0.4-0.1,0.5c0,0.3,0,0.7,0,1.3
			c0,1.4,0,3.7,0,6.9c0,2.9,1.1,5.2,3.1,6.9c2.7,2.2,6.4,2.6,8.3,2.6c0.3,0,0.6,0,0.7,0h95.5c13.3,0,35.5-4.5,43.7-8.1
			c8.6-3.7,8.7-8.8,8.8-12.2l0-0.4c0-0.2,0-0.4,0-0.6C449.9,463.3,449.9,463.2,449.9,463.1z M357.3,422.2l0.1,0.1
			c0.6,0.3,1.1,0.6,1.7,0.9l-3.6,2.4l1.1,1.7l4.6-3c2.2,1.1,4.4,2.2,6.5,3.2l-3.8,2.5l1.1,1.7l4.8-3.1c2.3,1.1,4.5,2.2,6.7,3.2
			l-4.1,2.7l1.1,1.7l5.2-3.3c2.4,1.1,4.6,2.1,6.8,3.1l-4.6,3l1.1,1.7l5.7-3.7c2.5,1.1,4.8,2.1,6.9,3l-5.2,3.4l1.1,1.7l6.4-4.1
			c2.8,1.2,5.2,2.2,7.1,2.9l-3.5,2.3l1.1,1.7l4.7-3.1c1.2,0.5,1.9,0.7,2,0.8c2.3,0.8,4.2,1.4,5.8,1.8c-6.4,7.6-14.9,8.3-27.9,2.6
			c-2.6-1.1-5.6-2.6-8.8-4.2l-14.1-7.5L363,438c-9.4-5.1-18.2-10.1-21.6-12.1C347.3,422.6,354,419.8,357.3,422.2z M343.5,450.6
			c3.5,0,7-0.2,10.6-0.5l-9.4,12.8c-28.6-2.1-44.6-15.7-50.5-22C302.1,444.1,321.3,450.6,343.5,450.6z M325.5,447.2l26-13.2
			c3.1,1.7,6.6,3.7,10.2,5.6l-0.7,0.9l-5.4,7.3C345,449.1,334.7,448.6,325.5,447.2z M313,456.8c7.9,3.8,17.9,7,30.3,8l-5.2,7
			c-6-1.8-12.8-3.1-21.9-3.2C313.3,464.7,313,459.3,313,456.8z M361.8,442.9l1.7-2.3c4.3,2.3,8.6,4.6,12.6,6.6l1.5,0.8l-22.1,30.3
			l-3.4-1.3c-1-0.4-2-0.8-2.9-1.2c-2.9-1.2-5.8-2.3-9-3.4L361.8,442.9z M331.5,418.8c5.4-8.5,6.4-9.7,6.5-9.8c0.3-0.3,1-0.4,1.4-0.1
			l14,10.5c-6.5,0.4-15.3,6-21.1,9.8c-0.6,0.4-1.1,0.7-1.6,1C329.4,428.2,328,424.3,331.5,418.8z M307,434.8
			c1.5,1.5,3.9,2.4,8.2,2.4c4.4,0,9.4-1.5,15.7-4.8l1.1-0.6l-0.1-0.1c0.4-0.3,0.9-0.6,1.4-0.9c1.7-1.1,3.8-2.4,6-3.7
			c1.4,0.8,5.1,2.9,10.1,5.7l-27.3,13.8c-14.8-2.6-26-7-29.7-8.6C298.6,432.8,305.6,434.4,307,434.8z M292.1,435.1
			c0.2-1.7,0.4-3.8,1-7.1c0.4-2.4,0.9-3.8,1.5-4.8c0.9-1.3,2.2-1.5,3.2-1.6c0.2,0,0.4,0,0.5,0c3.2,0,4.9,3.5,5.7,6.4l0.1,0.2
			c0.4,1.6,0.8,3,1.4,4.2c-3-0.4-8.4-0.4-13.4,3.4C292,435.6,292,435.4,292.1,435.1z M291.2,440.7c0,0,0-0.1,0-0.1
			c2.6,3,9.1,9.6,19.9,15.2c-0.1,1.9-0.2,7.9,2.8,12.9c-12.8-0.1-19-1.5-21.4-2.2l0.2-0.1l-0.3-0.7
			C291.3,462.9,288.1,453.1,291.2,440.7z M301.8,482.7c-0.1,0-0.3,0-0.6,0c-1.3,0-4.7-0.2-7-2.1c-1.6-1.3-2.4-3.1-2.4-5.3
			c0-3.2-0.1-5.5,0-6.9c0,0,0-0.1,0-0.1c2.6,0.8,9.5,2.3,24.1,2.3c9.4,0,16.5,1.4,22.6,3.3l13.2,4.9c1.3,0.5,2.5,1,3.9,1.4l0.9,0.3
			l0,0c2.3,0.8,4.6,1.5,7.2,2.1L301.8,482.7z M381.1,482.7L381.1,482.7c-10.1,0-17.2-1.6-23.6-3.8l22-30.1c2,1,3.9,1.9,5.6,2.6
			c5.9,2.6,11,3.9,15.5,3.9c6.3,0,11.3-2.6,15.4-7.9l2.4,0.3c2.9,0.4,5.9,0.8,8.8,1.3c-0.2,3.7-5.6,6.3-11.8,9.3
			c-9.8,4.8-22,10.7-22.6,24.3L381.1,482.7z M397.3,482.7l-2.5,0c0.6-12.4,12.1-18,21.5-22.5c6.7-3.3,12.6-6.1,12.9-10.8
			c4.5,0.7,8.7,1.4,11.5,2.1c4,1,5.5,2.3,6.1,3.3c-0.3,2.7-6.9,4.9-14,7.2c-11.9,3.9-26.6,8.8-27.4,20.3
			C402.6,482.6,399.8,482.7,397.3,482.7z M447.9,464.4c-0.1,3.2-0.2,7.2-7.6,10.4c-6.2,2.7-20.5,5.9-32.8,7.3
			c1-10,14.8-14.5,26-18.2c6.4-2.1,11.8-3.9,14.2-6.4c0.2,1.4,0.3,3.2,0.2,5.6c0,0.1,0,0.3,0,0.4c0,0.2,0,0.3,0,0.5L447.9,464.4z"/>
		<path fill="#FFFFFF" d="M62.1,451.7c-8.3-2.5-29.6-4.4-34.3-4.6c-8-0.5-11.5-2.5-11.5-6.6c0-6.3-0.1-23.7-0.1-23.7l0-1h-1.4
			l-0.3-296.4c0.8-0.4,1.4-1.2,1.4-2.2l1.2-78c0-0.6-0.3-1.3-0.7-1.7c-0.5-0.5-1.1-0.7-1.7-0.7l-10.1,0c-1.3,0-2.4,1.1-2.4,2.5
			l1.7,78c0,0.6,0.3,1.3,0.7,1.7c0.2,0.2,0.5,0.4,0.7,0.5l0.3,296.4H4.1l0,1c0,1.5-1,36.1,3.9,43.1c3.4,4.8,28.7,24.9,45.3,24.9
			c0,0,0,0,0,0c7.2,0,12-3.8,13.8-11.1C67.7,471.7,71.8,454.6,62.1,451.7z M65.2,473.2c-1.6,6.4-5.5,9.6-11.9,9.6c0,0,0,0,0,0
			c-15.3,0-40.1-19-43.7-24.1C6,453.5,5.8,428.3,6,417.8h1.5L7.2,118.6l0-1h-1c-0.2,0-0.3-0.1-0.3-0.1c0,0-0.1-0.2-0.1-0.3L4,39.2
			c0-0.2,0.2-0.4,0.4-0.4l10.1,0c0.2,0,0.3,0.1,0.3,0.1c0,0,0.1,0.2,0.1,0.3l-1.2,78c0,0.2-0.2,0.4-0.4,0.4h-1l0.3,299.2l0,1h1.5
			c0,3.8,0,17.3,0.1,22.7c0,7.8,9.8,8.4,13.4,8.6c5.5,0.3,26.1,2.3,33.8,4.5C69.4,456,65.7,471.4,65.2,473.2z"/>
		<path fill="#FFFFFF" d="M879,280.7c0,44.7,36.3,81,81,81s81-36.3,81-81c0-44.7-36.3-81-81-81S879,236.1,879,280.7z M881,282.2
			c12.6,5,25.8,7.5,39,7.5c13.5,0,27-2.6,39.8-7.9c8.6,6.7,16.1,14.6,22.1,23.4c-30.9,12.5-65.1,13.1-96.4,1.8
			C882.8,299.3,881.2,290.9,881,282.2z M901.3,333.6c-6.3-7-11.4-15.2-14.9-24.1c14.6,5.1,29.8,7.6,44.9,7.6
			c17.5,0,35.1-3.4,51.7-10.2c4.8,7.3,8.6,15.2,11.4,23.5C964.7,342.5,931.7,343.7,901.3,333.6z M960,359.7
			c-21.8,0-41.6-8.9-55.9-23.2c12.9,3.9,26.2,5.9,39.5,5.9c17.5,0,35-3.4,51.4-10c1.7,5.5,3,11.2,3.8,17.1
			C987.4,356,974.1,359.7,960,359.7z M1000.8,348.4c-4-27.1-18-51.2-39.7-68.1c1.5-10.8,4.6-21.2,9.2-30.8
			c26.3,20.5,43.9,49.8,49.7,82.5C1014.5,338.5,1008,344,1000.8,348.4z M1021.7,330c-6.2-32.7-24.1-61.9-50.5-82.4
			c3.9-7.8,8.8-15.1,14.6-21.6c25.3,19.7,42.8,47.8,49.3,79.2C1032.1,314.3,1027.5,322.7,1021.7,330z M1039,280.7
			c0,7.1-1,14-2.7,20.5c-7.1-30.4-24.4-57.4-49.1-76.7c3.9-4.3,8.2-8.2,12.9-11.9C1023.3,226.5,1039,251.8,1039,280.7z M998.2,211.6
			c-21.5,17-35.4,41.2-39.1,68.4c-10.1,4.1-20.7,6.6-31.3,7.4c4.6-33,21.2-62.9,46.6-84.4C982.9,204.7,990.9,207.6,998.2,211.6z
			 M960,201.7c4.1,0,8,0.3,11.9,0.9c-25.2,21.8-41.6,51.8-46.1,84.9c-8.7,0.5-17.5-0.1-26.1-1.9c4.4-31.8,20-61,43.9-82.3
			C948.9,202.3,954.4,201.7,960,201.7z M939.6,204.4c-22.7,21.3-37.5,49.9-41.9,80.9c-5.7-1.3-11.3-3-16.7-5.2
			C881.3,243.9,906.1,213.4,939.6,204.4z"/>
		<path fill="#FFFFFF" d="M857.6,396.3c17.3-17.3,12.2-77.7-26.6-116.5c-26.6-26.6-61.1-36.1-84.5-36.1c-14.3,0-25.9,3.5-31.9,9.5
			c-17.3,17.3-12.2,77.7,26.6,116.5c26.6,26.6,61.1,36,84.6,36C840,405.7,851.6,402.3,857.6,396.3z M708.6,302.8
			c-3.7-21.1-0.9-40,7.3-48.2c5.6-5.6,16.8-8.9,30.5-8.9c23,0,57,9.3,83.1,35.5c23.6,23.6,31.4,51.2,33.9,65.5
			c3.7,21.1,0.9,40-7.2,48.1c-5.6,5.6-16.7,8.8-30.5,8.8c-23.1,0-57-9.3-83.2-35.5C718.9,344.6,711.1,317.1,708.6,302.8z"/>
		
			<rect x="817.8" y="377.7" transform="matrix(0.7071 0.7071 -0.7071 0.7071 513.7734 -483.0114)" fill="#FFFFFF" width="44.3" height="2"/>
		
			<rect x="710" y="269.8" transform="matrix(-0.7071 -0.7071 0.7071 -0.7071 1058.2432 980.0161)" fill="#FFFFFF" width="44.3" height="2"/>
		<polygon fill="#FFFFFF" points="818.3,325.8 803.4,340.7 787.4,324.7 802.4,309.8 801,308.4 786,323.3 770,307.4 785,292.4 
			783.6,291 768.6,305.9 758.9,296.2 757.5,297.6 767.2,307.4 752.3,322.3 753.7,323.7 768.6,308.8 784.6,324.7 769.6,339.7 
			771.1,341.1 786,326.2 802,342.1 787,357.1 788.5,358.5 803.4,343.6 813.1,353.3 814.5,351.9 804.8,342.1 819.8,327.2 		"/>
		<path fill="#FFFFFF" d="M178,322.7c-44.7,0-81,36.3-81,81s36.3,81,81,81s81-36.3,81-81S222.7,322.7,178,322.7z M178,324.7
			c9.9,0,19.3,1.8,28,5.1l-27.9,11.9l-28-12C158.8,326.6,168.2,324.7,178,324.7z M212.5,396l-13.1,40.6h-42.5L143.7,396l34.4-25.1
			L212.5,396z M147.4,330.9l29.6,12.7v25.6l-34.7,25.3l-20.9-10.2l-2.9-32.4l-0.1,0C126.4,342.8,136.2,335.6,147.4,330.9z M99,403.7
			c0-18.9,6.7-36.3,17.8-49.9l2.7,30.7L99.1,408C99,406.6,99,405.2,99,403.7z M110.6,444.8c-6.3-10.3-10.3-22.1-11.3-34.8l0.4,0.3
			l21.1-24.3l20.9,10.2l13.3,41l-12.8,14.3l-31.5-7.3L110.6,444.8z M111.7,446.7l30.2,6.9l15.8,26.5
			C138.6,475,122.3,462.9,111.7,446.7z M178,482.7c-6.2,0-12.1-0.7-17.9-2.1l0.2-0.1l-16.6-27.7l12.8-14.3h43.1l12.8,14.3
			l-16.5,27.7l0.2,0.1C190.2,482,184.2,482.7,178,482.7z M198.5,480l15.8-26.4l30-6.9C233.8,462.8,217.6,474.9,198.5,480z
			 M245.6,444.6l-0.1-0.3l-31.5,7.3l-12.8-14.3l12.9-39.8l0,0.1l21.3-11.4l21.1,24.3l0.2-0.2C255.7,422.7,251.8,434.4,245.6,444.6z
			 M257,403.7c0,1.4,0,2.7-0.1,4l-20.2-23.3l2.7-30.4C250.4,367.6,257,384.9,257,403.7z M234.7,384.2L214.6,395l-35.5-25.9v-25.6
			l29.6-12.6c11.2,4.7,21,12,28.9,21L234.7,384.2z"/>
		<path fill="#FFFFFF" d="M210,274.3c8.8,0,16-7.2,16-16c0-8.8-7.2-16-16-16s-16,7.2-16,16C194,267.1,201.2,274.3,210,274.3z
			 M210,244.3c7.7,0,14,6.3,14,14c0,7.7-6.3,14-14,14c-7.7,0-14-6.3-14-14C196,250.5,202.3,244.3,210,244.3z"/>
		<path fill="#FFFFFF" d="M1042,372.7c-8.8,0-16,7.2-16,16c0,8.8,7.2,16,16,16c8.8,0,16-7.2,16-16
			C1058,379.9,1050.8,372.7,1042,372.7z M1042,402.7c-7.7,0-14-6.3-14-14c0-7.7,6.3-14,14-14c7.7,0,14,6.3,14,14
			C1056,396.5,1049.7,402.7,1042,402.7z"/>
		<path fill="#FFFFFF" d="M593,190.7v7c-18.7,6.9-32,24.9-32,46c0,27,22,49,49,49s49-22,49-49c0-21-13.3-39-32-46v-7
			c0-1.4-0.6-2.7-1.6-3.7l57.4-117.9l-1.8-0.9l-57.3,117.7c-0.5-0.2-1.1-0.3-1.7-0.3h-1.8l-8.1-16.6l48.7-100l-1.8-0.9l-48,98.6
			l-48-98.6l-1.8,0.9l59.2,121.6h-19.8L541,68.3l-1.8,0.9l56.9,116.9C594.3,186.9,593,188.6,593,190.7z M657,243.7
			c0,25.9-21.1,47-47,47s-47-21.1-47-47s21.1-47,47-47S657,217.8,657,243.7z M599.1,192.2c0.2,0.3,0.5,0.6,0.9,0.6h22
			c0.3,0,0.7-0.2,0.8-0.5c0.2-0.3,0.2-0.7,0.1-1l-1.7-3.6h0.8c1.7,0,3,1.3,3,3v6.4c-4.7-1.5-9.8-2.4-15-2.4s-10.3,0.8-15,2.4v-6.4
			c0-1.3,0.9-2.4,2-2.8L599.1,192.2z"/>
		<path fill="#FFFFFF" d="M569,243.7c0,22.6,18.4,41,41,41s41-18.4,41-41s-18.4-41-41-41S569,221.1,569,243.7z M649,243.7
			c0,21.5-17.5,39-39,39s-39-17.5-39-39s17.5-39,39-39S649,222.2,649,243.7z"/>
		<path fill="#FFFFFF" d="M599,236.7h8v24h10v-34h-18V236.7z M601,228.7h14v30h-6v-24h-8V228.7z"/>
		<path fill="#FFFFFF" d="M945,400.7c-52.2,0-81,27.3-81,77v5h-54.2v2H864h1h161v-7C1026,428.1,997.2,400.7,945,400.7z M877,433.6
			h30.8v26h-40.3C869.2,449.7,872.4,441,877,433.6z M1024,477.7v5h-44.6l10-10h1v-1l27.8-27.8C1022.1,453.6,1024,464.9,1024,477.7z
			 M1017.4,441.9l-40.8,40.8h-21.2l54.2-54.2C1012.7,432.6,1015.3,437.1,1017.4,441.9z M1008.3,427l-43.7,43.7h-5v2h3l-10,10H866v-5
			c0-5.7,0.4-11.1,1.1-16.2h42.6v-30h-31.5c1.9-2.7,3.9-5.3,6.2-7.7c13.4-14,33.8-21.1,60.5-21.1s47.1,7.1,60.5,21.1
			C1006.5,424.9,1007.4,425.9,1008.3,427z"/>
		<rect x="1008.4" y="470.7" fill="#FFFFFF" width="6" height="2"/>
		<rect x="996.4" y="470.7" fill="#FFFFFF" width="6" height="2"/>
		<rect x="887.6" y="470.7" fill="#FFFFFF" width="6" height="2"/>
		<rect x="899.6" y="470.7" fill="#FFFFFF" width="6" height="2"/>
		<rect x="875.6" y="470.7" fill="#FFFFFF" width="6" height="2"/>
		<rect x="935.6" y="470.7" fill="#FFFFFF" width="6" height="2"/>
		<rect x="947.6" y="470.7" fill="#FFFFFF" width="6" height="2"/>
		<rect x="911.6" y="470.7" fill="#FFFFFF" width="6" height="2"/>
		<rect x="923.6" y="470.7" fill="#FFFFFF" width="6" height="2"/>
		<path fill="#FFFFFF" d="M843.5,117.2L863,118l0,7.8h-6c-2.8,0-5,2.2-5,5v15c0,2.8,2.2,5,5,5h22c2.8,0,5-2.2,5-5v-15
			c0-2.8-2.2-5-5-5h-6v-7.3c0.8,0,1.9,0.1,3.4,0.2c13.4,0.9,19.2,10.7,21.1,14c0.1,0.2,0.3,0.5,0.4,0.6l0.3,0.5
			c1.4,2.2,1.7,2.4,5.1,2.9c31.1,4,94.6,5.1,149.9,5.1c37.8,0,71.8-0.5,89.1-0.8c1.4,0,2.1,0,2.2,0c1.8,0,3.6,0,4.3-1.9
			c6.9-19.4,25.3-20.3,26.1-20.3h0l0,7h-6c-2.8,0-5,2.2-5,5v15c0,2.8,2.2,5,5,5h22c2.8,0,5-2.2,5-5v-15c0-2.8-2.2-5-5-5h-6v-7
			c3.1,0,12.8,0,15.5,0c4.9,0,9.1-0.4,12-5.5c4.3-7.7,5.5-11.7,5.5-19.4s-1.1-11.7-5.5-19.4c-2.9-5.1-7.2-5.5-12-5.6
			c-2.9,0-12.4,0-15.5,0v-7h6c2.8,0,5-2.2,5-5v-15c0-2.8-2.2-5-5-5h-22c-2.8,0-5,2.2-5,5v15c0,2.8,2.2,5,5,5h6l0,7
			c-0.7,0-19.3-1.1-26.1-20.3c-0.7-1.9-2.4-1.9-4.3-1.9c0,0,0,0,0,0c-0.1,0-0.9,0-2.2,0c-42.8-0.7-186.7-2.5-239.1,4.3
			c-3.4,0.4-3.7,0.6-5.1,2.9l-0.3,0.5c-0.1,0.2-0.2,0.4-0.4,0.6c-1.9,3.2-7.7,13.1-21.1,14c-1.5,0.1-2.7,0.2-3.4,0.2v-7.3h6
			c2.8,0,5-2.2,5-5v-15c0-2.8-2.2-5-5-5h-22c-2.8,0-5,2.2-5,5v15c0,2.8,2.2,5,5,5h6l0,7.8l-19.5,0.7c-0.1,0-9.4,0.4-10.3,9.6
			c0,0.3-1.2,6.4-1.2,13.9s1.2,13.7,1.2,13.8C834,116.8,843.4,117.2,843.5,117.2z M879,127.7c1.7,0,3,1.3,3,3v15c0,1.7-1.3,3-3,3
			h-22c-1.7,0-3-1.3-3-3v-15c0-1.7,1.3-3,3-3h6h10H879z M865,61.7h3.6l2.4,0v64h-6L865,61.7z M1191,127.7c1.7,0,3,1.3,3,3v15
			c0,1.7-1.3,3-3,3h-22c-1.7,0-3-1.3-3-3v-15c0-1.7,1.3-3,3-3h6h10H1191z M1177,61.7h3.6l2.4,0v64h-6L1177,61.7z M1200.5,70.8
			c4.5,0,7.9,0.3,10.3,4.5c4.2,7.4,5.2,11,5.2,18.4s-1,11-5.2,18.4c-2.4,4.2-5.8,4.5-10.3,4.5c-2.7,0-12.4,0-15.5,0V70.8
			C1188.1,70.8,1197.6,70.8,1200.5,70.8z M1175,59.7L1175,59.7l-6,0c-1.7,0-3-1.3-3-3v-15c0-1.7,1.3-3,3-3h22c1.7,0,3,1.3,3,3v15
			c0,1.7-1.3,3-3,3h-10.4L1175,59.7z M1142.4,48.5c1.4,0,2.1,0,2.3,0c2.2,0,2.2,0.2,2.4,0.6c7.3,20.7,27.7,21.6,27.9,21.6h0l0,45.9
			l0,0c-0.2,0-20.6,0.9-27.9,21.6c-0.1,0.4-0.2,0.6-2.4,0.6c0,0,0,0,0,0c-0.1,0-0.9,0-2.3,0c-19.4,0.3-59.6,0.9-102.6,0.7l38.4-91.9
			C1105.6,48,1129,48.3,1142.4,48.5z M1076.1,47.8l-38.4,91.9c-6.6,0-13.2-0.1-19.8-0.1l38.4-91.8
			C1063.1,47.8,1069.7,47.8,1076.1,47.8z M1054.1,47.8l-38.4,91.8c-6.6-0.1-13.2-0.1-19.7-0.3l38.3-91.5
			C1041,47.8,1047.6,47.8,1054.1,47.8z M1032.1,47.8l-38.3,91.5c-6.7-0.1-13.2-0.3-19.7-0.4l38-90.9
			C1018.8,47.9,1025.5,47.8,1032.1,47.8z M876.6,70.8c14.4-1,20.7-11.5,22.7-14.9c0.1-0.2,0.3-0.4,0.4-0.6l0.3-0.5
			c1-1.6,1-1.6,3.7-1.9c23.1-3,64.1-4.3,106.4-4.8l-38,90.8c-27.7-0.7-52.4-2-68.4-4.1c-2.7-0.3-2.7-0.3-3.7-1.9l-0.3-0.5
			c-0.1-0.2-0.2-0.4-0.4-0.6c-2-3.5-8.3-14-22.7-14.9c-1.6-0.1-2.8-0.2-3.6-0.2V71C873.8,71,875,70.9,876.6,70.8z M863,59.7
			L863,59.7l-6,0c-1.7,0-3-1.3-3-3v-15c0-1.7,1.3-3,3-3h22c1.7,0,3,1.3,3,3v15c0,1.7-1.3,3-3,3h-10.4L863,59.7z M835.2,80.1
			c0.7-7.5,8-7.8,8.4-7.8l19.5-0.7l0,44.4l-19.5-0.7c-0.3,0-7.7-0.3-8.4-7.9c0-0.1-1.2-6.3-1.2-13.5S835.2,80.3,835.2,80.1z"/>
		<path fill="#FFFFFF" d="M1192.5,87.7c0.8,0,1.5-0.7,1.5-1.5c0-0.8-0.7-1.5-1.5-1.5c-0.8,0-1.5,0.7-1.5,1.5
			C1191,87.1,1191.7,87.7,1192.5,87.7z"/>
		<path fill="#FFFFFF" d="M1192.5,102.7c0.8,0,1.5-0.7,1.5-1.5c0-0.8-0.7-1.5-1.5-1.5c-0.8,0-1.5,0.7-1.5,1.5
			C1191,102.1,1191.7,102.7,1192.5,102.7z"/>
		<path fill="#FFFFFF" d="M1167.5,87.7c0.8,0,1.5-0.7,1.5-1.5c0-0.8-0.7-1.5-1.5-1.5c-0.8,0-1.5,0.7-1.5,1.5
			C1166,87.1,1166.7,87.7,1167.5,87.7z"/>
		<path fill="#FFFFFF" d="M1167.5,102.7c0.8,0,1.5-0.7,1.5-1.5c0-0.8-0.7-1.5-1.5-1.5c-0.8,0-1.5,0.7-1.5,1.5
			C1166,102.1,1166.7,102.7,1167.5,102.7z"/>
		<path fill="#FFFFFF" d="M880.5,87.7c0.8,0,1.5-0.7,1.5-1.5c0-0.8-0.7-1.5-1.5-1.5c-0.8,0-1.5,0.7-1.5,1.5
			C879,87.1,879.7,87.7,880.5,87.7z"/>
		<path fill="#FFFFFF" d="M880.5,102.7c0.8,0,1.5-0.7,1.5-1.5c0-0.8-0.7-1.5-1.5-1.5c-0.8,0-1.5,0.7-1.5,1.5
			C879,102.1,879.7,102.7,880.5,102.7z"/>
		<path fill="#FFFFFF" d="M855.5,87.7c0.8,0,1.5-0.7,1.5-1.5c0-0.8-0.7-1.5-1.5-1.5c-0.8,0-1.5,0.7-1.5,1.5
			C854,87.1,854.7,87.7,855.5,87.7z"/>
		<path fill="#FFFFFF" d="M855.5,102.7c0.8,0,1.5-0.7,1.5-1.5c0-0.8-0.7-1.5-1.5-1.5c-0.8,0-1.5,0.7-1.5,1.5
			C854,102.1,854.7,102.7,855.5,102.7z"/>
		<path fill="#FFFFFF" d="M353,204.7h2v-8h127v-160H355v-8h-2v8H226v160h127V204.7z M480,115.7h-7v2h7v59h-49v-120h49V115.7z
			 M355,38.7h125v16H355V38.7z M355,56.7h74v59h-74V56.7z M355,117.7h74v59h-74V117.7z M355,178.7h125v16H355V178.7z M353,176.7h-74
			v-59h74V176.7z M353,115.7h-74v-59h74V115.7z M228,38.7h125v16H228V38.7z M228,117.7h7v-2h-7v-59h49v120h-49V117.7z M228,194.7
			v-16h125v16H228z"/>
		<path fill="#FFFFFF" d="M1146,298.8l-22.6-38.3l-49.4,19.6V320l21-4l2,87.8h98l2-87.8l21,4v-39.9l-49.4-19.6L1146,298.8z
			 M1216,281.4v36.1l-21-4l-2,88.2h-94l-2-88.2l-21,4v-36.1l46.6-18.4l23.4,39.7l23.4-39.7L1216,281.4z"/>
		<path fill="#FFFFFF" d="M1194.9,409.7h-97.7l-10.3,75h50.9l6-24h4.4l6,24h50.9l-10.2-74.1L1194.9,409.7z M1098.9,411.7h18.1
			c-0.5,11.5-9.5,21-21.1,21.9L1098.9,411.7z M1202.9,482.7h-47.1l-6-24h-7.6l-6,24h-47.1l6.4-47.1c12.8-0.8,22.9-11.2,23.4-23.9h54
			c0.5,12.7,10.6,23.1,23.4,23.9L1202.9,482.7z M1175,411.7h18.1l3,21.9C1184.6,432.7,1175.5,423.3,1175,411.7z"/>
		<path fill="#FFFFFF" d="M603,77.5l0,1.2v1.6v0.6l0.3,0.5c0.4,0.6,0.9,1.2,1.4,1.8c0.4,0.5,1.1,1.3,1.2,1.7v19.5v0.4l0.1,0.4l2,5.1
			l1.9,4.7l1.9-4.7l2-5.1l0.1-0.4v-0.4V84.9c0.2-0.4,0.8-1.1,1.2-1.7c0.5-0.6,1-1.2,1.4-1.8l0.3-0.5v-0.6v-1.6v-1.2
			c8.2-2.9,14-10.6,14-19.8c0-11.6-9.4-21-21-21s-21,9.4-21,21C589,66.9,594.8,74.6,603,77.5z M615,80.3c-1.1,1.6-3,3.3-3,4.5
			c0,1.1,0,19.6,0,19.6l-2,5.1l-2-5.1c0,0,0-18.5,0-19.6c0-1.1-1.9-2.8-3-4.5v-1.6c0,0,2.3,0.6,5,0.6s5-0.6,5-0.6V80.3z M610,38.7
			c10.5,0,19,8.5,19,19s-8.5,19-19,19s-19-8.5-19-19S599.5,38.7,610,38.7z"/>
		<path fill="#FFFFFF" d="M607,55.7c0.6,0,1-0.4,1-1c0-0.6-0.5-1-1-1c-0.5,0-1,0.4-1,1C606,55.3,606.4,55.7,607,55.7z"/>
		<path fill="#FFFFFF" d="M613,55.7c0.6,0,1-0.4,1-1c0-0.6-0.5-1-1-1c-0.5,0-1,0.4-1,1C612,55.3,612.4,55.7,613,55.7z"/>
		<path fill="#FFFFFF" d="M607,61.7c0.6,0,1-0.4,1-1c0-0.6-0.5-1-1-1c-0.5,0-1,0.4-1,1C606,61.3,606.4,61.7,607,61.7z"/>
		<path fill="#FFFFFF" d="M619,55.7c0.6,0,1-0.4,1-1c0-0.6-0.5-1-1-1c-0.5,0-1,0.4-1,1C618,55.3,618.4,55.7,619,55.7z"/>
		<path fill="#FFFFFF" d="M619,61.7c0.6,0,1-0.4,1-1c0-0.6-0.5-1-1-1c-0.5,0-1,0.4-1,1C618,61.3,618.4,61.7,619,61.7z"/>
		<path fill="#FFFFFF" d="M625,55.7c0.6,0,1-0.4,1-1c0-0.6-0.5-1-1-1c-0.5,0-1,0.4-1,1C624,55.3,624.4,55.7,625,55.7z"/>
		<path fill="#FFFFFF" d="M625,61.7c0.6,0,1-0.4,1-1c0-0.6-0.5-1-1-1c-0.5,0-1,0.4-1,1C624,61.3,624.4,61.7,625,61.7z"/>
		<path fill="#FFFFFF" d="M613,61.7c0.6,0,1-0.4,1-1c0-0.6-0.5-1-1-1c-0.5,0-1,0.4-1,1C612,61.3,612.4,61.7,613,61.7z"/>
		<path fill="#FFFFFF" d="M607,43.7c0.6,0,1-0.4,1-1c0-0.6-0.5-1-1-1c-0.5,0-1,0.4-1,1C606,43.3,606.4,43.7,607,43.7z"/>
		<path fill="#FFFFFF" d="M613,43.7c0.6,0,1-0.4,1-1c0-0.6-0.5-1-1-1c-0.5,0-1,0.4-1,1C612,43.3,612.4,43.7,613,43.7z"/>
		<path fill="#FFFFFF" d="M607,49.7c0.6,0,1-0.4,1-1c0-0.6-0.5-1-1-1c-0.5,0-1,0.4-1,1C606,49.3,606.4,49.7,607,49.7z"/>
		<path fill="#FFFFFF" d="M601,55.7c0.6,0,1-0.4,1-1c0-0.6-0.5-1-1-1c-0.5,0-1,0.4-1,1C600,55.3,600.4,55.7,601,55.7z"/>
		<path fill="#FFFFFF" d="M601,61.7c0.6,0,1-0.4,1-1c0-0.6-0.5-1-1-1c-0.5,0-1,0.4-1,1C600,61.3,600.4,61.7,601,61.7z"/>
		<path fill="#FFFFFF" d="M601,43.7c0.6,0,1-0.4,1-1c0-0.6-0.5-1-1-1c-0.5,0-1,0.4-1,1C600,43.3,600.4,43.7,601,43.7z"/>
		<path fill="#FFFFFF" d="M601,49.7c0.6,0,1-0.4,1-1c0-0.6-0.5-1-1-1c-0.5,0-1,0.4-1,1C600,49.3,600.4,49.7,601,49.7z"/>
		<path fill="#FFFFFF" d="M595,53.7c-0.5,0-1,0.4-1,1c0,0.6,0.4,1,1,1c0.6,0,1-0.4,1-1C596,54.2,595.5,53.7,595,53.7z"/>
		<path fill="#FFFFFF" d="M595,59.7c-0.5,0-1,0.4-1,1c0,0.6,0.4,1,1,1c0.6,0,1-0.4,1-1C596,60.2,595.5,59.7,595,59.7z"/>
		<path fill="#FFFFFF" d="M607,67.7c0.6,0,1-0.4,1-1c0-0.6-0.5-1-1-1c-0.5,0-1,0.4-1,1C606,67.3,606.4,67.7,607,67.7z"/>
		<path fill="#FFFFFF" d="M619,67.7c0.6,0,1-0.4,1-1c0-0.6-0.5-1-1-1c-0.5,0-1,0.4-1,1C618,67.3,618.4,67.7,619,67.7z"/>
		<path fill="#FFFFFF" d="M625,67.7c0.6,0,1-0.4,1-1c0-0.6-0.5-1-1-1c-0.5,0-1,0.4-1,1C624,67.3,624.4,67.7,625,67.7z"/>
		<path fill="#FFFFFF" d="M613,67.7c0.6,0,1-0.4,1-1c0-0.6-0.5-1-1-1c-0.5,0-1,0.4-1,1C612,67.3,612.4,67.7,613,67.7z"/>
		<path fill="#FFFFFF" d="M601,67.7c0.6,0,1-0.4,1-1c0-0.6-0.5-1-1-1c-0.5,0-1,0.4-1,1C600,67.3,600.4,67.7,601,67.7z"/>
		<path fill="#FFFFFF" d="M595,65.7c-0.5,0-1,0.4-1,1c0,0.6,0.4,1,1,1c0.6,0,1-0.4,1-1C596,66.2,595.5,65.7,595,65.7z"/>
		<path fill="#FFFFFF" d="M607,73.7c0.6,0,1-0.4,1-1c0-0.6-0.5-1-1-1c-0.5,0-1,0.4-1,1C606,73.3,606.4,73.7,607,73.7z"/>
		<path fill="#FFFFFF" d="M619,73.7c0.6,0,1-0.4,1-1c0-0.6-0.5-1-1-1c-0.5,0-1,0.4-1,1C618,73.3,618.4,73.7,619,73.7z"/>
		<path fill="#FFFFFF" d="M613,73.7c0.6,0,1-0.4,1-1c0-0.6-0.5-1-1-1c-0.5,0-1,0.4-1,1C612,73.3,612.4,73.7,613,73.7z"/>
		<path fill="#FFFFFF" d="M601,73.7c0.6,0,1-0.4,1-1c0-0.6-0.5-1-1-1c-0.5,0-1,0.4-1,1C600,73.3,600.4,73.7,601,73.7z"/>
		<path fill="#FFFFFF" d="M595,47.7c-0.5,0-1,0.4-1,1c0,0.6,0.4,1,1,1c0.6,0,1-0.4,1-1C596,48.2,595.5,47.7,595,47.7z"/>
		<path fill="#FFFFFF" d="M619,43.7c0.6,0,1-0.4,1-1c0-0.6-0.5-1-1-1c-0.5,0-1,0.4-1,1C618,43.3,618.4,43.7,619,43.7z"/>
		<path fill="#FFFFFF" d="M619,49.7c0.6,0,1-0.4,1-1c0-0.6-0.5-1-1-1c-0.5,0-1,0.4-1,1C618,49.3,618.4,49.7,619,49.7z"/>
		<path fill="#FFFFFF" d="M625,49.7c0.6,0,1-0.4,1-1c0-0.6-0.5-1-1-1c-0.5,0-1,0.4-1,1C624,49.3,624.4,49.7,625,49.7z"/>
		<path fill="#FFFFFF" d="M613,49.7c0.6,0,1-0.4,1-1c0-0.6-0.5-1-1-1c-0.5,0-1,0.4-1,1C612,49.3,612.4,49.7,613,49.7z"/>
		<path fill="#FFFFFF" d="M687.1,178.8c-0.8,0-1.5,0.7-1.5,1.5c0,0.8,0.7,1.5,1.5,1.5c0.8,0,1.5-0.7,1.5-1.5
			C688.6,179.5,687.9,178.8,687.1,178.8z"/>
		<path fill="#FFFFFF" d="M692.1,181.8c0.8,0,1.5-0.7,1.5-1.5c0-0.8-0.7-1.5-1.5-1.5c-0.8,0-1.5,0.7-1.5,1.5
			C690.6,181.1,691.3,181.8,692.1,181.8z"/>
		<path fill="#FFFFFF" d="M697.1,181.8c0.8,0,1.5-0.7,1.5-1.5c0-0.8-0.7-1.5-1.5-1.5c-0.8,0-1.5,0.7-1.5,1.5
			C695.6,181.1,696.3,181.8,697.1,181.8z"/>
		<path fill="#FFFFFF" d="M702.1,181.8c0.8,0,1.5-0.7,1.5-1.5c0-0.8-0.7-1.5-1.5-1.5c-0.8,0-1.5,0.7-1.5,1.5
			C700.6,181.1,701.3,181.8,702.1,181.8z"/>
		<path fill="#FFFFFF" d="M707.1,181.8c0.8,0,1.5-0.7,1.5-1.5c0-0.8-0.7-1.5-1.5-1.5c-0.8,0-1.5,0.7-1.5,1.5
			C705.6,181.1,706.3,181.8,707.1,181.8z"/>
		<path fill="#FFFFFF" d="M712.1,181.8c0.8,0,1.5-0.7,1.5-1.5c0-0.8-0.7-1.5-1.5-1.5c-0.8,0-1.5,0.7-1.5,1.5
			C710.6,181.1,711.3,181.8,712.1,181.8z"/>
		<path fill="#FFFFFF" d="M717.1,181.8c0.8,0,1.5-0.7,1.5-1.5c0-0.8-0.7-1.5-1.5-1.5c-0.8,0-1.5,0.7-1.5,1.5
			C715.6,181.1,716.3,181.8,717.1,181.8z"/>
		<path fill="#FFFFFF" d="M722.1,181.8c0.8,0,1.5-0.7,1.5-1.5c0-0.8-0.7-1.5-1.5-1.5c-0.8,0-1.5,0.7-1.5,1.5
			C720.6,181.1,721.3,181.8,722.1,181.8z"/>
		<path fill="#FFFFFF" d="M727.1,181.8c0.8,0,1.5-0.7,1.5-1.5c0-0.8-0.7-1.5-1.5-1.5c-0.8,0-1.5,0.7-1.5,1.5
			C725.6,181.1,726.3,181.8,727.1,181.8z"/>
		<path fill="#FFFFFF" d="M732.1,181.8c0.8,0,1.5-0.7,1.5-1.5c0-0.8-0.7-1.5-1.5-1.5c-0.8,0-1.5,0.7-1.5,1.5
			C730.6,181.1,731.3,181.8,732.1,181.8z"/>
		<path fill="#FFFFFF" d="M737.1,181.8c0.8,0,1.5-0.7,1.5-1.5c0-0.8-0.7-1.5-1.5-1.5c-0.8,0-1.5,0.7-1.5,1.5
			C735.6,181.1,736.3,181.8,737.1,181.8z"/>
		<path fill="#FFFFFF" d="M742.1,181.8c0.8,0,1.5-0.7,1.5-1.5c0-0.8-0.7-1.5-1.5-1.5c-0.8,0-1.5,0.7-1.5,1.5
			C740.6,181.1,741.3,181.8,742.1,181.8z"/>
		<path fill="#FFFFFF" d="M747.1,181.8c0.8,0,1.5-0.7,1.5-1.5c0-0.8-0.7-1.5-1.5-1.5c-0.8,0-1.5,0.7-1.5,1.5
			C745.6,181.1,746.3,181.8,747.1,181.8z"/>
		<path fill="#FFFFFF" d="M752.1,181.8c0.8,0,1.5-0.7,1.5-1.5c0-0.8-0.7-1.5-1.5-1.5c-0.8,0-1.5,0.7-1.5,1.5
			C750.6,181.1,751.3,181.8,752.1,181.8z"/>
		<path fill="#FFFFFF" d="M757.1,181.8c0.8,0,1.5-0.7,1.5-1.5c0-0.8-0.7-1.5-1.5-1.5c-0.8,0-1.5,0.7-1.5,1.5
			C755.6,181.1,756.3,181.8,757.1,181.8z"/>
		<path fill="#FFFFFF" d="M762.1,181.8c0.8,0,1.5-0.7,1.5-1.5c0-0.8-0.7-1.5-1.5-1.5c-0.8,0-1.5,0.7-1.5,1.5
			C760.6,181.1,761.3,181.8,762.1,181.8z"/>
		<path fill="#FFFFFF" d="M767.1,181.8c0.8,0,1.5-0.7,1.5-1.5c0-0.8-0.7-1.5-1.5-1.5c-0.8,0-1.5,0.7-1.5,1.5
			C765.6,181.1,766.3,181.8,767.1,181.8z"/>
		<path fill="#FFFFFF" d="M772.1,181.8c0.8,0,1.5-0.7,1.5-1.5c0-0.8-0.7-1.5-1.5-1.5c-0.8,0-1.5,0.7-1.5,1.5
			C770.6,181.1,771.3,181.8,772.1,181.8z"/>
		<path fill="#FFFFFF" d="M777.1,181.8c0.8,0,1.5-0.7,1.5-1.5c0-0.8-0.7-1.5-1.5-1.5c-0.8,0-1.5,0.7-1.5,1.5
			C775.6,181.1,776.3,181.8,777.1,181.8z"/>
		<path fill="#FFFFFF" d="M782.1,181.8c0.8,0,1.5-0.7,1.5-1.5c0-0.8-0.7-1.5-1.5-1.5c-0.8,0-1.5,0.7-1.5,1.5
			C780.6,181.1,781.3,181.8,782.1,181.8z"/>
		<path fill="#FFFFFF" d="M787.1,181.8c0.8,0,1.5-0.7,1.5-1.5c0-0.8-0.7-1.5-1.5-1.5c-0.8,0-1.5,0.7-1.5,1.5
			C785.6,181.1,786.3,181.8,787.1,181.8z"/>
		<path fill="#FFFFFF" d="M792.1,181.8c0.8,0,1.5-0.7,1.5-1.5c0-0.8-0.7-1.5-1.5-1.5c-0.8,0-1.5,0.7-1.5,1.5
			C790.6,181.1,791.3,181.8,792.1,181.8z"/>
		<path fill="#FFFFFF" d="M687.1,173.8c-0.8,0-1.5,0.7-1.5,1.5c0,0.8,0.7,1.5,1.5,1.5c0.8,0,1.5-0.7,1.5-1.5
			C688.6,174.5,687.9,173.8,687.1,173.8z"/>
		<path fill="#FFFFFF" d="M692.1,176.8c0.8,0,1.5-0.7,1.5-1.5c0-0.8-0.7-1.5-1.5-1.5c-0.8,0-1.5,0.7-1.5,1.5
			C690.6,176.1,691.3,176.8,692.1,176.8z"/>
		<path fill="#FFFFFF" d="M697.1,176.8c0.8,0,1.5-0.7,1.5-1.5c0-0.8-0.7-1.5-1.5-1.5c-0.8,0-1.5,0.7-1.5,1.5
			C695.6,176.1,696.3,176.8,697.1,176.8z"/>
		<path fill="#FFFFFF" d="M702.1,176.8c0.8,0,1.5-0.7,1.5-1.5c0-0.8-0.7-1.5-1.5-1.5c-0.8,0-1.5,0.7-1.5,1.5
			C700.6,176.1,701.3,176.8,702.1,176.8z"/>
		<path fill="#FFFFFF" d="M707.1,176.8c0.8,0,1.5-0.7,1.5-1.5c0-0.8-0.7-1.5-1.5-1.5c-0.8,0-1.5,0.7-1.5,1.5
			C705.6,176.1,706.3,176.8,707.1,176.8z"/>
		<path fill="#FFFFFF" d="M712.1,176.8c0.8,0,1.5-0.7,1.5-1.5c0-0.8-0.7-1.5-1.5-1.5c-0.8,0-1.5,0.7-1.5,1.5
			C710.6,176.1,711.3,176.8,712.1,176.8z"/>
		<path fill="#FFFFFF" d="M717.1,176.8c0.8,0,1.5-0.7,1.5-1.5c0-0.8-0.7-1.5-1.5-1.5c-0.8,0-1.5,0.7-1.5,1.5
			C715.6,176.1,716.3,176.8,717.1,176.8z"/>
		<path fill="#FFFFFF" d="M722.1,176.8c0.8,0,1.5-0.7,1.5-1.5c0-0.8-0.7-1.5-1.5-1.5c-0.8,0-1.5,0.7-1.5,1.5
			C720.6,176.1,721.3,176.8,722.1,176.8z"/>
		<path fill="#FFFFFF" d="M727.1,176.8c0.8,0,1.5-0.7,1.5-1.5c0-0.8-0.7-1.5-1.5-1.5c-0.8,0-1.5,0.7-1.5,1.5
			C725.6,176.1,726.3,176.8,727.1,176.8z"/>
		<path fill="#FFFFFF" d="M732.1,176.8c0.8,0,1.5-0.7,1.5-1.5c0-0.8-0.7-1.5-1.5-1.5c-0.8,0-1.5,0.7-1.5,1.5
			C730.6,176.1,731.3,176.8,732.1,176.8z"/>
		<path fill="#FFFFFF" d="M737.1,176.8c0.8,0,1.5-0.7,1.5-1.5c0-0.8-0.7-1.5-1.5-1.5c-0.8,0-1.5,0.7-1.5,1.5
			C735.6,176.1,736.3,176.8,737.1,176.8z"/>
		<path fill="#FFFFFF" d="M742.1,176.8c0.8,0,1.5-0.7,1.5-1.5c0-0.8-0.7-1.5-1.5-1.5c-0.8,0-1.5,0.7-1.5,1.5
			C740.6,176.1,741.3,176.8,742.1,176.8z"/>
		<path fill="#FFFFFF" d="M747.1,176.8c0.8,0,1.5-0.7,1.5-1.5c0-0.8-0.7-1.5-1.5-1.5c-0.8,0-1.5,0.7-1.5,1.5
			C745.6,176.1,746.3,176.8,747.1,176.8z"/>
		<path fill="#FFFFFF" d="M752.1,176.8c0.8,0,1.5-0.7,1.5-1.5c0-0.8-0.7-1.5-1.5-1.5c-0.8,0-1.5,0.7-1.5,1.5
			C750.6,176.1,751.3,176.8,752.1,176.8z"/>
		<path fill="#FFFFFF" d="M757.1,176.8c0.8,0,1.5-0.7,1.5-1.5c0-0.8-0.7-1.5-1.5-1.5c-0.8,0-1.5,0.7-1.5,1.5
			C755.6,176.1,756.3,176.8,757.1,176.8z"/>
		<path fill="#FFFFFF" d="M762.1,176.8c0.8,0,1.5-0.7,1.5-1.5c0-0.8-0.7-1.5-1.5-1.5c-0.8,0-1.5,0.7-1.5,1.5
			C760.6,176.1,761.3,176.8,762.1,176.8z"/>
		<path fill="#FFFFFF" d="M767.1,176.8c0.8,0,1.5-0.7,1.5-1.5c0-0.8-0.7-1.5-1.5-1.5c-0.8,0-1.5,0.7-1.5,1.5
			C765.6,176.1,766.3,176.8,767.1,176.8z"/>
		<path fill="#FFFFFF" d="M772.1,176.8c0.8,0,1.5-0.7,1.5-1.5c0-0.8-0.7-1.5-1.5-1.5c-0.8,0-1.5,0.7-1.5,1.5
			C770.6,176.1,771.3,176.8,772.1,176.8z"/>
		<path fill="#FFFFFF" d="M777.1,176.8c0.8,0,1.5-0.7,1.5-1.5c0-0.8-0.7-1.5-1.5-1.5c-0.8,0-1.5,0.7-1.5,1.5
			C775.6,176.1,776.3,176.8,777.1,176.8z"/>
		<path fill="#FFFFFF" d="M782.1,176.8c0.8,0,1.5-0.7,1.5-1.5c0-0.8-0.7-1.5-1.5-1.5c-0.8,0-1.5,0.7-1.5,1.5
			C780.6,176.1,781.3,176.8,782.1,176.8z"/>
		<path fill="#FFFFFF" d="M787.1,176.8c0.8,0,1.5-0.7,1.5-1.5c0-0.8-0.7-1.5-1.5-1.5c-0.8,0-1.5,0.7-1.5,1.5
			C785.6,176.1,786.3,176.8,787.1,176.8z"/>
		<path fill="#FFFFFF" d="M792.1,176.8c0.8,0,1.5-0.7,1.5-1.5c0-0.8-0.7-1.5-1.5-1.5c-0.8,0-1.5,0.7-1.5,1.5
			C790.6,176.1,791.3,176.8,792.1,176.8z"/>
		<path fill="#FFFFFF" d="M687.1,168.8c-0.8,0-1.5,0.7-1.5,1.5c0,0.8,0.7,1.5,1.5,1.5c0.8,0,1.5-0.7,1.5-1.5
			C688.6,169.5,687.9,168.8,687.1,168.8z"/>
		<path fill="#FFFFFF" d="M692.1,171.8c0.8,0,1.5-0.7,1.5-1.5c0-0.8-0.7-1.5-1.5-1.5c-0.8,0-1.5,0.7-1.5,1.5
			C690.6,171.1,691.3,171.8,692.1,171.8z"/>
		<path fill="#FFFFFF" d="M697.1,171.8c0.8,0,1.5-0.7,1.5-1.5c0-0.8-0.7-1.5-1.5-1.5c-0.8,0-1.5,0.7-1.5,1.5
			C695.6,171.1,696.3,171.8,697.1,171.8z"/>
		<path fill="#FFFFFF" d="M702.1,171.8c0.8,0,1.5-0.7,1.5-1.5c0-0.8-0.7-1.5-1.5-1.5c-0.8,0-1.5,0.7-1.5,1.5
			C700.6,171.1,701.3,171.8,702.1,171.8z"/>
		<path fill="#FFFFFF" d="M707.1,171.8c0.8,0,1.5-0.7,1.5-1.5c0-0.8-0.7-1.5-1.5-1.5c-0.8,0-1.5,0.7-1.5,1.5
			C705.6,171.1,706.3,171.8,707.1,171.8z"/>
		<path fill="#FFFFFF" d="M712.1,171.8c0.8,0,1.5-0.7,1.5-1.5c0-0.8-0.7-1.5-1.5-1.5c-0.8,0-1.5,0.7-1.5,1.5
			C710.6,171.1,711.3,171.8,712.1,171.8z"/>
		<path fill="#FFFFFF" d="M717.1,171.8c0.8,0,1.5-0.7,1.5-1.5c0-0.8-0.7-1.5-1.5-1.5c-0.8,0-1.5,0.7-1.5,1.5
			C715.6,171.1,716.3,171.8,717.1,171.8z"/>
		<path fill="#FFFFFF" d="M722.1,171.8c0.8,0,1.5-0.7,1.5-1.5c0-0.8-0.7-1.5-1.5-1.5c-0.8,0-1.5,0.7-1.5,1.5
			C720.6,171.1,721.3,171.8,722.1,171.8z"/>
		<path fill="#FFFFFF" d="M727.1,171.8c0.8,0,1.5-0.7,1.5-1.5c0-0.8-0.7-1.5-1.5-1.5c-0.8,0-1.5,0.7-1.5,1.5
			C725.6,171.1,726.3,171.8,727.1,171.8z"/>
		<path fill="#FFFFFF" d="M732.1,171.8c0.8,0,1.5-0.7,1.5-1.5c0-0.8-0.7-1.5-1.5-1.5c-0.8,0-1.5,0.7-1.5,1.5
			C730.6,171.1,731.3,171.8,732.1,171.8z"/>
		<path fill="#FFFFFF" d="M737.1,171.8c0.8,0,1.5-0.7,1.5-1.5c0-0.8-0.7-1.5-1.5-1.5c-0.8,0-1.5,0.7-1.5,1.5
			C735.6,171.1,736.3,171.8,737.1,171.8z"/>
		<path fill="#FFFFFF" d="M742.1,171.8c0.8,0,1.5-0.7,1.5-1.5c0-0.8-0.7-1.5-1.5-1.5c-0.8,0-1.5,0.7-1.5,1.5
			C740.6,171.1,741.3,171.8,742.1,171.8z"/>
		<path fill="#FFFFFF" d="M747.1,171.8c0.8,0,1.5-0.7,1.5-1.5c0-0.8-0.7-1.5-1.5-1.5c-0.8,0-1.5,0.7-1.5,1.5
			C745.6,171.1,746.3,171.8,747.1,171.8z"/>
		<path fill="#FFFFFF" d="M752.1,171.8c0.8,0,1.5-0.7,1.5-1.5c0-0.8-0.7-1.5-1.5-1.5c-0.8,0-1.5,0.7-1.5,1.5
			C750.6,171.1,751.3,171.8,752.1,171.8z"/>
		<path fill="#FFFFFF" d="M757.1,171.8c0.8,0,1.5-0.7,1.5-1.5c0-0.8-0.7-1.5-1.5-1.5c-0.8,0-1.5,0.7-1.5,1.5
			C755.6,171.1,756.3,171.8,757.1,171.8z"/>
		<path fill="#FFFFFF" d="M762.1,171.8c0.8,0,1.5-0.7,1.5-1.5c0-0.8-0.7-1.5-1.5-1.5c-0.8,0-1.5,0.7-1.5,1.5
			C760.6,171.1,761.3,171.8,762.1,171.8z"/>
		<path fill="#FFFFFF" d="M767.1,171.8c0.8,0,1.5-0.7,1.5-1.5c0-0.8-0.7-1.5-1.5-1.5c-0.8,0-1.5,0.7-1.5,1.5
			C765.6,171.1,766.3,171.8,767.1,171.8z"/>
		<path fill="#FFFFFF" d="M772.1,171.8c0.8,0,1.5-0.7,1.5-1.5c0-0.8-0.7-1.5-1.5-1.5c-0.8,0-1.5,0.7-1.5,1.5
			C770.6,171.1,771.3,171.8,772.1,171.8z"/>
		<path fill="#FFFFFF" d="M777.1,171.8c0.8,0,1.5-0.7,1.5-1.5c0-0.8-0.7-1.5-1.5-1.5c-0.8,0-1.5,0.7-1.5,1.5
			C775.6,171.1,776.3,171.8,777.1,171.8z"/>
		<path fill="#FFFFFF" d="M782.1,171.8c0.8,0,1.5-0.7,1.5-1.5c0-0.8-0.7-1.5-1.5-1.5c-0.8,0-1.5,0.7-1.5,1.5
			C780.6,171.1,781.3,171.8,782.1,171.8z"/>
		<path fill="#FFFFFF" d="M787.1,171.8c0.8,0,1.5-0.7,1.5-1.5c0-0.8-0.7-1.5-1.5-1.5c-0.8,0-1.5,0.7-1.5,1.5
			C785.6,171.1,786.3,171.8,787.1,171.8z"/>
		<path fill="#FFFFFF" d="M687.1,163.8c-0.8,0-1.5,0.7-1.5,1.5c0,0.8,0.7,1.5,1.5,1.5c0.8,0,1.5-0.7,1.5-1.5
			C688.6,164.5,687.9,163.8,687.1,163.8z"/>
		<path fill="#FFFFFF" d="M692.1,166.8c0.8,0,1.5-0.7,1.5-1.5c0-0.8-0.7-1.5-1.5-1.5c-0.8,0-1.5,0.7-1.5,1.5
			C690.6,166.1,691.3,166.8,692.1,166.8z"/>
		<path fill="#FFFFFF" d="M697.1,166.8c0.8,0,1.5-0.7,1.5-1.5c0-0.8-0.7-1.5-1.5-1.5c-0.8,0-1.5,0.7-1.5,1.5
			C695.6,166.1,696.3,166.8,697.1,166.8z"/>
		<path fill="#FFFFFF" d="M702.1,166.8c0.8,0,1.5-0.7,1.5-1.5c0-0.8-0.7-1.5-1.5-1.5c-0.8,0-1.5,0.7-1.5,1.5
			C700.6,166.1,701.3,166.8,702.1,166.8z"/>
		<path fill="#FFFFFF" d="M707.1,166.8c0.8,0,1.5-0.7,1.5-1.5c0-0.8-0.7-1.5-1.5-1.5c-0.8,0-1.5,0.7-1.5,1.5
			C705.6,166.1,706.3,166.8,707.1,166.8z"/>
		<path fill="#FFFFFF" d="M712.1,166.8c0.8,0,1.5-0.7,1.5-1.5c0-0.8-0.7-1.5-1.5-1.5c-0.8,0-1.5,0.7-1.5,1.5
			C710.6,166.1,711.3,166.8,712.1,166.8z"/>
		<path fill="#FFFFFF" d="M717.1,166.8c0.8,0,1.5-0.7,1.5-1.5c0-0.8-0.7-1.5-1.5-1.5c-0.8,0-1.5,0.7-1.5,1.5
			C715.6,166.1,716.3,166.8,717.1,166.8z"/>
		<path fill="#FFFFFF" d="M722.1,166.8c0.8,0,1.5-0.7,1.5-1.5c0-0.8-0.7-1.5-1.5-1.5c-0.8,0-1.5,0.7-1.5,1.5
			C720.6,166.1,721.3,166.8,722.1,166.8z"/>
		<path fill="#FFFFFF" d="M727.1,166.8c0.8,0,1.5-0.7,1.5-1.5c0-0.8-0.7-1.5-1.5-1.5c-0.8,0-1.5,0.7-1.5,1.5
			C725.6,166.1,726.3,166.8,727.1,166.8z"/>
		<path fill="#FFFFFF" d="M732.1,166.8c0.8,0,1.5-0.7,1.5-1.5c0-0.8-0.7-1.5-1.5-1.5c-0.8,0-1.5,0.7-1.5,1.5
			C730.6,166.1,731.3,166.8,732.1,166.8z"/>
		<path fill="#FFFFFF" d="M737.1,166.8c0.8,0,1.5-0.7,1.5-1.5c0-0.8-0.7-1.5-1.5-1.5c-0.8,0-1.5,0.7-1.5,1.5
			C735.6,166.1,736.3,166.8,737.1,166.8z"/>
		<path fill="#FFFFFF" d="M742.1,166.8c0.8,0,1.5-0.7,1.5-1.5c0-0.8-0.7-1.5-1.5-1.5c-0.8,0-1.5,0.7-1.5,1.5
			C740.6,166.1,741.3,166.8,742.1,166.8z"/>
		<path fill="#FFFFFF" d="M747.1,166.8c0.8,0,1.5-0.7,1.5-1.5c0-0.8-0.7-1.5-1.5-1.5c-0.8,0-1.5,0.7-1.5,1.5
			C745.6,166.1,746.3,166.8,747.1,166.8z"/>
		<path fill="#FFFFFF" d="M752.1,166.8c0.8,0,1.5-0.7,1.5-1.5c0-0.8-0.7-1.5-1.5-1.5c-0.8,0-1.5,0.7-1.5,1.5
			C750.6,166.1,751.3,166.8,752.1,166.8z"/>
		<path fill="#FFFFFF" d="M757.1,166.8c0.8,0,1.5-0.7,1.5-1.5c0-0.8-0.7-1.5-1.5-1.5c-0.8,0-1.5,0.7-1.5,1.5
			C755.6,166.1,756.3,166.8,757.1,166.8z"/>
		<path fill="#FFFFFF" d="M762.1,166.8c0.8,0,1.5-0.7,1.5-1.5c0-0.8-0.7-1.5-1.5-1.5c-0.8,0-1.5,0.7-1.5,1.5
			C760.6,166.1,761.3,166.8,762.1,166.8z"/>
		<path fill="#FFFFFF" d="M767.1,166.8c0.8,0,1.5-0.7,1.5-1.5c0-0.8-0.7-1.5-1.5-1.5c-0.8,0-1.5,0.7-1.5,1.5
			C765.6,166.1,766.3,166.8,767.1,166.8z"/>
		<path fill="#FFFFFF" d="M772.1,166.8c0.8,0,1.5-0.7,1.5-1.5c0-0.8-0.7-1.5-1.5-1.5c-0.8,0-1.5,0.7-1.5,1.5
			C770.6,166.1,771.3,166.8,772.1,166.8z"/>
		<path fill="#FFFFFF" d="M777.1,166.8c0.8,0,1.5-0.7,1.5-1.5c0-0.8-0.7-1.5-1.5-1.5c-0.8,0-1.5,0.7-1.5,1.5
			C775.6,166.1,776.3,166.8,777.1,166.8z"/>
		<path fill="#FFFFFF" d="M782.1,166.8c0.8,0,1.5-0.7,1.5-1.5c0-0.8-0.7-1.5-1.5-1.5c-0.8,0-1.5,0.7-1.5,1.5
			C780.6,166.1,781.3,166.8,782.1,166.8z"/>
		<path fill="#FFFFFF" d="M787.1,166.8c0.8,0,1.5-0.7,1.5-1.5c0-0.8-0.7-1.5-1.5-1.5c-0.8,0-1.5,0.7-1.5,1.5
			C785.6,166.1,786.3,166.8,787.1,166.8z"/>
		<path fill="#FFFFFF" d="M692.1,161.8c0.8,0,1.5-0.7,1.5-1.5c0-0.8-0.7-1.5-1.5-1.5c-0.8,0-1.5,0.7-1.5,1.5
			C690.6,161.1,691.3,161.8,692.1,161.8z"/>
		<path fill="#FFFFFF" d="M697.1,161.8c0.8,0,1.5-0.7,1.5-1.5c0-0.8-0.7-1.5-1.5-1.5c-0.8,0-1.5,0.7-1.5,1.5
			C695.6,161.1,696.3,161.8,697.1,161.8z"/>
		<path fill="#FFFFFF" d="M702.1,161.8c0.8,0,1.5-0.7,1.5-1.5c0-0.8-0.7-1.5-1.5-1.5c-0.8,0-1.5,0.7-1.5,1.5
			C700.6,161.1,701.3,161.8,702.1,161.8z"/>
		<path fill="#FFFFFF" d="M707.1,161.8c0.8,0,1.5-0.7,1.5-1.5c0-0.8-0.7-1.5-1.5-1.5c-0.8,0-1.5,0.7-1.5,1.5
			C705.6,161.1,706.3,161.8,707.1,161.8z"/>
		<path fill="#FFFFFF" d="M712.1,161.8c0.8,0,1.5-0.7,1.5-1.5c0-0.8-0.7-1.5-1.5-1.5c-0.8,0-1.5,0.7-1.5,1.5
			C710.6,161.1,711.3,161.8,712.1,161.8z"/>
		<path fill="#FFFFFF" d="M717.1,161.8c0.8,0,1.5-0.7,1.5-1.5c0-0.8-0.7-1.5-1.5-1.5c-0.8,0-1.5,0.7-1.5,1.5
			C715.6,161.1,716.3,161.8,717.1,161.8z"/>
		<path fill="#FFFFFF" d="M722.1,161.8c0.8,0,1.5-0.7,1.5-1.5c0-0.8-0.7-1.5-1.5-1.5c-0.8,0-1.5,0.7-1.5,1.5
			C720.6,161.1,721.3,161.8,722.1,161.8z"/>
		<path fill="#FFFFFF" d="M727.1,161.8c0.8,0,1.5-0.7,1.5-1.5c0-0.8-0.7-1.5-1.5-1.5c-0.8,0-1.5,0.7-1.5,1.5
			C725.6,161.1,726.3,161.8,727.1,161.8z"/>
		<path fill="#FFFFFF" d="M732.1,161.8c0.8,0,1.5-0.7,1.5-1.5c0-0.8-0.7-1.5-1.5-1.5c-0.8,0-1.5,0.7-1.5,1.5
			C730.6,161.1,731.3,161.8,732.1,161.8z"/>
		<path fill="#FFFFFF" d="M737.1,161.8c0.8,0,1.5-0.7,1.5-1.5c0-0.8-0.7-1.5-1.5-1.5c-0.8,0-1.5,0.7-1.5,1.5
			C735.6,161.1,736.3,161.8,737.1,161.8z"/>
		<path fill="#FFFFFF" d="M742.1,161.8c0.8,0,1.5-0.7,1.5-1.5c0-0.8-0.7-1.5-1.5-1.5c-0.8,0-1.5,0.7-1.5,1.5
			C740.6,161.1,741.3,161.8,742.1,161.8z"/>
		<path fill="#FFFFFF" d="M747.1,161.8c0.8,0,1.5-0.7,1.5-1.5c0-0.8-0.7-1.5-1.5-1.5c-0.8,0-1.5,0.7-1.5,1.5
			C745.6,161.1,746.3,161.8,747.1,161.8z"/>
		<path fill="#FFFFFF" d="M752.1,161.8c0.8,0,1.5-0.7,1.5-1.5c0-0.8-0.7-1.5-1.5-1.5c-0.8,0-1.5,0.7-1.5,1.5
			C750.6,161.1,751.3,161.8,752.1,161.8z"/>
		<path fill="#FFFFFF" d="M757.1,161.8c0.8,0,1.5-0.7,1.5-1.5c0-0.8-0.7-1.5-1.5-1.5c-0.8,0-1.5,0.7-1.5,1.5
			C755.6,161.1,756.3,161.8,757.1,161.8z"/>
		<path fill="#FFFFFF" d="M762.1,161.8c0.8,0,1.5-0.7,1.5-1.5c0-0.8-0.7-1.5-1.5-1.5c-0.8,0-1.5,0.7-1.5,1.5
			C760.6,161.1,761.3,161.8,762.1,161.8z"/>
		<path fill="#FFFFFF" d="M767.1,161.8c0.8,0,1.5-0.7,1.5-1.5c0-0.8-0.7-1.5-1.5-1.5c-0.8,0-1.5,0.7-1.5,1.5
			C765.6,161.1,766.3,161.8,767.1,161.8z"/>
		<path fill="#FFFFFF" d="M772.1,161.8c0.8,0,1.5-0.7,1.5-1.5c0-0.8-0.7-1.5-1.5-1.5c-0.8,0-1.5,0.7-1.5,1.5
			C770.6,161.1,771.3,161.8,772.1,161.8z"/>
		<path fill="#FFFFFF" d="M777.1,161.8c0.8,0,1.5-0.7,1.5-1.5c0-0.8-0.7-1.5-1.5-1.5c-0.8,0-1.5,0.7-1.5,1.5
			C775.6,161.1,776.3,161.8,777.1,161.8z"/>
		<path fill="#FFFFFF" d="M782.1,161.8c0.8,0,1.5-0.7,1.5-1.5c0-0.8-0.7-1.5-1.5-1.5c-0.8,0-1.5,0.7-1.5,1.5
			C780.6,161.1,781.3,161.8,782.1,161.8z"/>
		<path fill="#FFFFFF" d="M697.1,156.8c0.8,0,1.5-0.7,1.5-1.5c0-0.8-0.7-1.5-1.5-1.5c-0.8,0-1.5,0.7-1.5,1.5
			C695.6,156.1,696.3,156.8,697.1,156.8z"/>
		<path fill="#FFFFFF" d="M702.1,156.8c0.8,0,1.5-0.7,1.5-1.5c0-0.8-0.7-1.5-1.5-1.5c-0.8,0-1.5,0.7-1.5,1.5
			C700.6,156.1,701.3,156.8,702.1,156.8z"/>
		<path fill="#FFFFFF" d="M707.1,156.8c0.8,0,1.5-0.7,1.5-1.5c0-0.8-0.7-1.5-1.5-1.5c-0.8,0-1.5,0.7-1.5,1.5
			C705.6,156.1,706.3,156.8,707.1,156.8z"/>
		<path fill="#FFFFFF" d="M712.1,156.8c0.8,0,1.5-0.7,1.5-1.5c0-0.8-0.7-1.5-1.5-1.5c-0.8,0-1.5,0.7-1.5,1.5
			C710.6,156.1,711.3,156.8,712.1,156.8z"/>
		<path fill="#FFFFFF" d="M717.1,156.8c0.8,0,1.5-0.7,1.5-1.5c0-0.8-0.7-1.5-1.5-1.5c-0.8,0-1.5,0.7-1.5,1.5
			C715.6,156.1,716.3,156.8,717.1,156.8z"/>
		<path fill="#FFFFFF" d="M722.1,156.8c0.8,0,1.5-0.7,1.5-1.5c0-0.8-0.7-1.5-1.5-1.5c-0.8,0-1.5,0.7-1.5,1.5
			C720.6,156.1,721.3,156.8,722.1,156.8z"/>
		<path fill="#FFFFFF" d="M727.1,156.8c0.8,0,1.5-0.7,1.5-1.5c0-0.8-0.7-1.5-1.5-1.5c-0.8,0-1.5,0.7-1.5,1.5
			C725.6,156.1,726.3,156.8,727.1,156.8z"/>
		<path fill="#FFFFFF" d="M732.1,156.8c0.8,0,1.5-0.7,1.5-1.5c0-0.8-0.7-1.5-1.5-1.5c-0.8,0-1.5,0.7-1.5,1.5
			C730.6,156.1,731.3,156.8,732.1,156.8z"/>
		<path fill="#FFFFFF" d="M737.1,156.8c0.8,0,1.5-0.7,1.5-1.5c0-0.8-0.7-1.5-1.5-1.5c-0.8,0-1.5,0.7-1.5,1.5
			C735.6,156.1,736.3,156.8,737.1,156.8z"/>
		<path fill="#FFFFFF" d="M742.1,156.8c0.8,0,1.5-0.7,1.5-1.5c0-0.8-0.7-1.5-1.5-1.5c-0.8,0-1.5,0.7-1.5,1.5
			C740.6,156.1,741.3,156.8,742.1,156.8z"/>
		<path fill="#FFFFFF" d="M747.1,156.8c0.8,0,1.5-0.7,1.5-1.5c0-0.8-0.7-1.5-1.5-1.5c-0.8,0-1.5,0.7-1.5,1.5
			C745.6,156.1,746.3,156.8,747.1,156.8z"/>
		<path fill="#FFFFFF" d="M752.1,156.8c0.8,0,1.5-0.7,1.5-1.5c0-0.8-0.7-1.5-1.5-1.5c-0.8,0-1.5,0.7-1.5,1.5
			C750.6,156.1,751.3,156.8,752.1,156.8z"/>
		<path fill="#FFFFFF" d="M757.1,156.8c0.8,0,1.5-0.7,1.5-1.5c0-0.8-0.7-1.5-1.5-1.5c-0.8,0-1.5,0.7-1.5,1.5
			C755.6,156.1,756.3,156.8,757.1,156.8z"/>
		<path fill="#FFFFFF" d="M762.1,156.8c0.8,0,1.5-0.7,1.5-1.5c0-0.8-0.7-1.5-1.5-1.5c-0.8,0-1.5,0.7-1.5,1.5
			C760.6,156.1,761.3,156.8,762.1,156.8z"/>
		<path fill="#FFFFFF" d="M767.1,156.8c0.8,0,1.5-0.7,1.5-1.5c0-0.8-0.7-1.5-1.5-1.5c-0.8,0-1.5,0.7-1.5,1.5
			C765.6,156.1,766.3,156.8,767.1,156.8z"/>
		<path fill="#FFFFFF" d="M772.1,156.8c0.8,0,1.5-0.7,1.5-1.5c0-0.8-0.7-1.5-1.5-1.5c-0.8,0-1.5,0.7-1.5,1.5
			C770.6,156.1,771.3,156.8,772.1,156.8z"/>
		<path fill="#FFFFFF" d="M777.1,156.8c0.8,0,1.5-0.7,1.5-1.5c0-0.8-0.7-1.5-1.5-1.5c-0.8,0-1.5,0.7-1.5,1.5
			C775.6,156.1,776.3,156.8,777.1,156.8z"/>
		<path fill="#FFFFFF" d="M702.1,151.8c0.8,0,1.5-0.7,1.5-1.5c0-0.8-0.7-1.5-1.5-1.5c-0.8,0-1.5,0.7-1.5,1.5
			C700.6,151.1,701.3,151.8,702.1,151.8z"/>
		<path fill="#FFFFFF" d="M707.1,151.8c0.8,0,1.5-0.7,1.5-1.5c0-0.8-0.7-1.5-1.5-1.5c-0.8,0-1.5,0.7-1.5,1.5
			C705.6,151.1,706.3,151.8,707.1,151.8z"/>
		<path fill="#FFFFFF" d="M712.1,151.8c0.8,0,1.5-0.7,1.5-1.5c0-0.8-0.7-1.5-1.5-1.5c-0.8,0-1.5,0.7-1.5,1.5
			C710.6,151.1,711.3,151.8,712.1,151.8z"/>
		<path fill="#FFFFFF" d="M717.1,151.8c0.8,0,1.5-0.7,1.5-1.5c0-0.8-0.7-1.5-1.5-1.5c-0.8,0-1.5,0.7-1.5,1.5
			C715.6,151.1,716.3,151.8,717.1,151.8z"/>
		<path fill="#FFFFFF" d="M722.1,151.8c0.8,0,1.5-0.7,1.5-1.5c0-0.8-0.7-1.5-1.5-1.5c-0.8,0-1.5,0.7-1.5,1.5
			C720.6,151.1,721.3,151.8,722.1,151.8z"/>
		<path fill="#FFFFFF" d="M727.1,151.8c0.8,0,1.5-0.7,1.5-1.5c0-0.8-0.7-1.5-1.5-1.5c-0.8,0-1.5,0.7-1.5,1.5
			C725.6,151.1,726.3,151.8,727.1,151.8z"/>
		<path fill="#FFFFFF" d="M732.1,151.8c0.8,0,1.5-0.7,1.5-1.5c0-0.8-0.7-1.5-1.5-1.5c-0.8,0-1.5,0.7-1.5,1.5
			C730.6,151.1,731.3,151.8,732.1,151.8z"/>
		<path fill="#FFFFFF" d="M737.1,151.8c0.8,0,1.5-0.7,1.5-1.5c0-0.8-0.7-1.5-1.5-1.5c-0.8,0-1.5,0.7-1.5,1.5
			C735.6,151.1,736.3,151.8,737.1,151.8z"/>
		<path fill="#FFFFFF" d="M742.1,151.8c0.8,0,1.5-0.7,1.5-1.5c0-0.8-0.7-1.5-1.5-1.5c-0.8,0-1.5,0.7-1.5,1.5
			C740.6,151.1,741.3,151.8,742.1,151.8z"/>
		<path fill="#FFFFFF" d="M747.1,151.8c0.8,0,1.5-0.7,1.5-1.5c0-0.8-0.7-1.5-1.5-1.5c-0.8,0-1.5,0.7-1.5,1.5
			C745.6,151.1,746.3,151.8,747.1,151.8z"/>
		<path fill="#FFFFFF" d="M752.1,151.8c0.8,0,1.5-0.7,1.5-1.5c0-0.8-0.7-1.5-1.5-1.5c-0.8,0-1.5,0.7-1.5,1.5
			C750.6,151.1,751.3,151.8,752.1,151.8z"/>
		<path fill="#FFFFFF" d="M757.1,151.8c0.8,0,1.5-0.7,1.5-1.5c0-0.8-0.7-1.5-1.5-1.5c-0.8,0-1.5,0.7-1.5,1.5
			C755.6,151.1,756.3,151.8,757.1,151.8z"/>
		<path fill="#FFFFFF" d="M762.1,151.8c0.8,0,1.5-0.7,1.5-1.5c0-0.8-0.7-1.5-1.5-1.5c-0.8,0-1.5,0.7-1.5,1.5
			C760.6,151.1,761.3,151.8,762.1,151.8z"/>
		<path fill="#FFFFFF" d="M767.1,151.8c0.8,0,1.5-0.7,1.5-1.5c0-0.8-0.7-1.5-1.5-1.5c-0.8,0-1.5,0.7-1.5,1.5
			C765.6,151.1,766.3,151.8,767.1,151.8z"/>
		<path fill="#FFFFFF" d="M707.1,146.8c0.8,0,1.5-0.7,1.5-1.5c0-0.8-0.7-1.5-1.5-1.5c-0.8,0-1.5,0.7-1.5,1.5
			C705.6,146.1,706.3,146.8,707.1,146.8z"/>
		<path fill="#FFFFFF" d="M712.1,146.8c0.8,0,1.5-0.7,1.5-1.5c0-0.8-0.7-1.5-1.5-1.5c-0.8,0-1.5,0.7-1.5,1.5
			C710.6,146.1,711.3,146.8,712.1,146.8z"/>
		<path fill="#FFFFFF" d="M717.1,146.8c0.8,0,1.5-0.7,1.5-1.5c0-0.8-0.7-1.5-1.5-1.5c-0.8,0-1.5,0.7-1.5,1.5
			C715.6,146.1,716.3,146.8,717.1,146.8z"/>
		<path fill="#FFFFFF" d="M722.1,146.8c0.8,0,1.5-0.7,1.5-1.5c0-0.8-0.7-1.5-1.5-1.5c-0.8,0-1.5,0.7-1.5,1.5
			C720.6,146.1,721.3,146.8,722.1,146.8z"/>
		<path fill="#FFFFFF" d="M727.1,146.8c0.8,0,1.5-0.7,1.5-1.5c0-0.8-0.7-1.5-1.5-1.5c-0.8,0-1.5,0.7-1.5,1.5
			C725.6,146.1,726.3,146.8,727.1,146.8z"/>
		<path fill="#FFFFFF" d="M732.1,146.8c0.8,0,1.5-0.7,1.5-1.5c0-0.8-0.7-1.5-1.5-1.5c-0.8,0-1.5,0.7-1.5,1.5
			C730.6,146.1,731.3,146.8,732.1,146.8z"/>
		<path fill="#FFFFFF" d="M737.1,146.8c0.8,0,1.5-0.7,1.5-1.5c0-0.8-0.7-1.5-1.5-1.5c-0.8,0-1.5,0.7-1.5,1.5
			C735.6,146.1,736.3,146.8,737.1,146.8z"/>
		<path fill="#FFFFFF" d="M742.1,146.8c0.8,0,1.5-0.7,1.5-1.5c0-0.8-0.7-1.5-1.5-1.5c-0.8,0-1.5,0.7-1.5,1.5
			C740.6,146.1,741.3,146.8,742.1,146.8z"/>
		<path fill="#FFFFFF" d="M747.1,146.8c0.8,0,1.5-0.7,1.5-1.5c0-0.8-0.7-1.5-1.5-1.5c-0.8,0-1.5,0.7-1.5,1.5
			C745.6,146.1,746.3,146.8,747.1,146.8z"/>
		<path fill="#FFFFFF" d="M752.1,146.8c0.8,0,1.5-0.7,1.5-1.5c0-0.8-0.7-1.5-1.5-1.5c-0.8,0-1.5,0.7-1.5,1.5
			C750.6,146.1,751.3,146.8,752.1,146.8z"/>
		<path fill="#FFFFFF" d="M757.1,146.8c0.8,0,1.5-0.7,1.5-1.5c0-0.8-0.7-1.5-1.5-1.5c-0.8,0-1.5,0.7-1.5,1.5
			C755.6,146.1,756.3,146.8,757.1,146.8z"/>
		<path fill="#FFFFFF" d="M732.1,141.8c0.8,0,1.5-0.7,1.5-1.5c0-0.8-0.7-1.5-1.5-1.5c-0.8,0-1.5,0.7-1.5,1.5
			C730.6,141.1,731.3,141.8,732.1,141.8z"/>
		<path fill="#FFFFFF" d="M687.1,183.8c-0.8,0-1.5,0.7-1.5,1.5c0,0.8,0.7,1.5,1.5,1.5c0.8,0,1.5-0.7,1.5-1.5
			C688.6,184.5,687.9,183.8,687.1,183.8z"/>
		<path fill="#FFFFFF" d="M692.1,186.8c0.8,0,1.5-0.7,1.5-1.5c0-0.8-0.7-1.5-1.5-1.5c-0.8,0-1.5,0.7-1.5,1.5
			C690.6,186.1,691.3,186.8,692.1,186.8z"/>
		<path fill="#FFFFFF" d="M697.1,186.8c0.8,0,1.5-0.7,1.5-1.5c0-0.8-0.7-1.5-1.5-1.5c-0.8,0-1.5,0.7-1.5,1.5
			C695.6,186.1,696.3,186.8,697.1,186.8z"/>
		<path fill="#FFFFFF" d="M702.1,186.8c0.8,0,1.5-0.7,1.5-1.5c0-0.8-0.7-1.5-1.5-1.5c-0.8,0-1.5,0.7-1.5,1.5
			C700.6,186.1,701.3,186.8,702.1,186.8z"/>
		<path fill="#FFFFFF" d="M707.1,186.8c0.8,0,1.5-0.7,1.5-1.5c0-0.8-0.7-1.5-1.5-1.5c-0.8,0-1.5,0.7-1.5,1.5
			C705.6,186.1,706.3,186.8,707.1,186.8z"/>
		<path fill="#FFFFFF" d="M712.1,186.8c0.8,0,1.5-0.7,1.5-1.5c0-0.8-0.7-1.5-1.5-1.5c-0.8,0-1.5,0.7-1.5,1.5
			C710.6,186.1,711.3,186.8,712.1,186.8z"/>
		<path fill="#FFFFFF" d="M717.1,186.8c0.8,0,1.5-0.7,1.5-1.5c0-0.8-0.7-1.5-1.5-1.5c-0.8,0-1.5,0.7-1.5,1.5
			C715.6,186.1,716.3,186.8,717.1,186.8z"/>
		<path fill="#FFFFFF" d="M722.1,186.8c0.8,0,1.5-0.7,1.5-1.5c0-0.8-0.7-1.5-1.5-1.5c-0.8,0-1.5,0.7-1.5,1.5
			C720.6,186.1,721.3,186.8,722.1,186.8z"/>
		<path fill="#FFFFFF" d="M727.1,186.8c0.8,0,1.5-0.7,1.5-1.5c0-0.8-0.7-1.5-1.5-1.5c-0.8,0-1.5,0.7-1.5,1.5
			C725.6,186.1,726.3,186.8,727.1,186.8z"/>
		<path fill="#FFFFFF" d="M732.1,186.8c0.8,0,1.5-0.7,1.5-1.5c0-0.8-0.7-1.5-1.5-1.5c-0.8,0-1.5,0.7-1.5,1.5
			C730.6,186.1,731.3,186.8,732.1,186.8z"/>
		<path fill="#FFFFFF" d="M737.1,186.8c0.8,0,1.5-0.7,1.5-1.5c0-0.8-0.7-1.5-1.5-1.5c-0.8,0-1.5,0.7-1.5,1.5
			C735.6,186.1,736.3,186.8,737.1,186.8z"/>
		<path fill="#FFFFFF" d="M742.1,186.8c0.8,0,1.5-0.7,1.5-1.5c0-0.8-0.7-1.5-1.5-1.5c-0.8,0-1.5,0.7-1.5,1.5
			C740.6,186.1,741.3,186.8,742.1,186.8z"/>
		<path fill="#FFFFFF" d="M747.1,186.8c0.8,0,1.5-0.7,1.5-1.5c0-0.8-0.7-1.5-1.5-1.5c-0.8,0-1.5,0.7-1.5,1.5
			C745.6,186.1,746.3,186.8,747.1,186.8z"/>
		<path fill="#FFFFFF" d="M752.1,186.8c0.8,0,1.5-0.7,1.5-1.5c0-0.8-0.7-1.5-1.5-1.5c-0.8,0-1.5,0.7-1.5,1.5
			C750.6,186.1,751.3,186.8,752.1,186.8z"/>
		<path fill="#FFFFFF" d="M757.1,186.8c0.8,0,1.5-0.7,1.5-1.5c0-0.8-0.7-1.5-1.5-1.5c-0.8,0-1.5,0.7-1.5,1.5
			C755.6,186.1,756.3,186.8,757.1,186.8z"/>
		<path fill="#FFFFFF" d="M762.1,186.8c0.8,0,1.5-0.7,1.5-1.5c0-0.8-0.7-1.5-1.5-1.5c-0.8,0-1.5,0.7-1.5,1.5
			C760.6,186.1,761.3,186.8,762.1,186.8z"/>
		<path fill="#FFFFFF" d="M767.1,186.8c0.8,0,1.5-0.7,1.5-1.5c0-0.8-0.7-1.5-1.5-1.5c-0.8,0-1.5,0.7-1.5,1.5
			C765.6,186.1,766.3,186.8,767.1,186.8z"/>
		<path fill="#FFFFFF" d="M772.1,186.8c0.8,0,1.5-0.7,1.5-1.5c0-0.8-0.7-1.5-1.5-1.5c-0.8,0-1.5,0.7-1.5,1.5
			C770.6,186.1,771.3,186.8,772.1,186.8z"/>
		<path fill="#FFFFFF" d="M777.1,186.8c0.8,0,1.5-0.7,1.5-1.5c0-0.8-0.7-1.5-1.5-1.5c-0.8,0-1.5,0.7-1.5,1.5
			C775.6,186.1,776.3,186.8,777.1,186.8z"/>
		<path fill="#FFFFFF" d="M782.1,186.8c0.8,0,1.5-0.7,1.5-1.5c0-0.8-0.7-1.5-1.5-1.5c-0.8,0-1.5,0.7-1.5,1.5
			C780.6,186.1,781.3,186.8,782.1,186.8z"/>
		<path fill="#FFFFFF" d="M787.1,186.8c0.8,0,1.5-0.7,1.5-1.5c0-0.8-0.7-1.5-1.5-1.5c-0.8,0-1.5,0.7-1.5,1.5
			C785.6,186.1,786.3,186.8,787.1,186.8z"/>
		<path fill="#FFFFFF" d="M792.1,186.8c0.8,0,1.5-0.7,1.5-1.5c0-0.8-0.7-1.5-1.5-1.5c-0.8,0-1.5,0.7-1.5,1.5
			C790.6,186.1,791.3,186.8,792.1,186.8z"/>
		<path fill="#FFFFFF" d="M687.1,188.8c-0.8,0-1.5,0.7-1.5,1.5c0,0.8,0.7,1.5,1.5,1.5c0.8,0,1.5-0.7,1.5-1.5
			C688.6,189.5,687.9,188.8,687.1,188.8z"/>
		<path fill="#FFFFFF" d="M692.1,191.8c0.8,0,1.5-0.7,1.5-1.5c0-0.8-0.7-1.5-1.5-1.5c-0.8,0-1.5,0.7-1.5,1.5
			C690.6,191.1,691.3,191.8,692.1,191.8z"/>
		<path fill="#FFFFFF" d="M697.1,191.8c0.8,0,1.5-0.7,1.5-1.5c0-0.8-0.7-1.5-1.5-1.5c-0.8,0-1.5,0.7-1.5,1.5
			C695.6,191.1,696.3,191.8,697.1,191.8z"/>
		<path fill="#FFFFFF" d="M702.1,191.8c0.8,0,1.5-0.7,1.5-1.5c0-0.8-0.7-1.5-1.5-1.5c-0.8,0-1.5,0.7-1.5,1.5
			C700.6,191.1,701.3,191.8,702.1,191.8z"/>
		<path fill="#FFFFFF" d="M707.1,191.8c0.8,0,1.5-0.7,1.5-1.5c0-0.8-0.7-1.5-1.5-1.5c-0.8,0-1.5,0.7-1.5,1.5
			C705.6,191.1,706.3,191.8,707.1,191.8z"/>
		<path fill="#FFFFFF" d="M712.1,191.8c0.8,0,1.5-0.7,1.5-1.5c0-0.8-0.7-1.5-1.5-1.5c-0.8,0-1.5,0.7-1.5,1.5
			C710.6,191.1,711.3,191.8,712.1,191.8z"/>
		<path fill="#FFFFFF" d="M717.1,191.8c0.8,0,1.5-0.7,1.5-1.5c0-0.8-0.7-1.5-1.5-1.5c-0.8,0-1.5,0.7-1.5,1.5
			C715.6,191.1,716.3,191.8,717.1,191.8z"/>
		<path fill="#FFFFFF" d="M722.1,191.8c0.8,0,1.5-0.7,1.5-1.5c0-0.8-0.7-1.5-1.5-1.5c-0.8,0-1.5,0.7-1.5,1.5
			C720.6,191.1,721.3,191.8,722.1,191.8z"/>
		<path fill="#FFFFFF" d="M727.1,191.8c0.8,0,1.5-0.7,1.5-1.5c0-0.8-0.7-1.5-1.5-1.5c-0.8,0-1.5,0.7-1.5,1.5
			C725.6,191.1,726.3,191.8,727.1,191.8z"/>
		<path fill="#FFFFFF" d="M732.1,191.8c0.8,0,1.5-0.7,1.5-1.5c0-0.8-0.7-1.5-1.5-1.5c-0.8,0-1.5,0.7-1.5,1.5
			C730.6,191.1,731.3,191.8,732.1,191.8z"/>
		<path fill="#FFFFFF" d="M737.1,191.8c0.8,0,1.5-0.7,1.5-1.5c0-0.8-0.7-1.5-1.5-1.5c-0.8,0-1.5,0.7-1.5,1.5
			C735.6,191.1,736.3,191.8,737.1,191.8z"/>
		<path fill="#FFFFFF" d="M742.1,191.8c0.8,0,1.5-0.7,1.5-1.5c0-0.8-0.7-1.5-1.5-1.5c-0.8,0-1.5,0.7-1.5,1.5
			C740.6,191.1,741.3,191.8,742.1,191.8z"/>
		<path fill="#FFFFFF" d="M747.1,191.8c0.8,0,1.5-0.7,1.5-1.5c0-0.8-0.7-1.5-1.5-1.5c-0.8,0-1.5,0.7-1.5,1.5
			C745.6,191.1,746.3,191.8,747.1,191.8z"/>
		<path fill="#FFFFFF" d="M752.1,191.8c0.8,0,1.5-0.7,1.5-1.5c0-0.8-0.7-1.5-1.5-1.5c-0.8,0-1.5,0.7-1.5,1.5
			C750.6,191.1,751.3,191.8,752.1,191.8z"/>
		<path fill="#FFFFFF" d="M757.1,191.8c0.8,0,1.5-0.7,1.5-1.5c0-0.8-0.7-1.5-1.5-1.5c-0.8,0-1.5,0.7-1.5,1.5
			C755.6,191.1,756.3,191.8,757.1,191.8z"/>
		<path fill="#FFFFFF" d="M762.1,191.8c0.8,0,1.5-0.7,1.5-1.5c0-0.8-0.7-1.5-1.5-1.5c-0.8,0-1.5,0.7-1.5,1.5
			C760.6,191.1,761.3,191.8,762.1,191.8z"/>
		<path fill="#FFFFFF" d="M767.1,191.8c0.8,0,1.5-0.7,1.5-1.5c0-0.8-0.7-1.5-1.5-1.5c-0.8,0-1.5,0.7-1.5,1.5
			C765.6,191.1,766.3,191.8,767.1,191.8z"/>
		<path fill="#FFFFFF" d="M772.1,191.8c0.8,0,1.5-0.7,1.5-1.5c0-0.8-0.7-1.5-1.5-1.5c-0.8,0-1.5,0.7-1.5,1.5
			C770.6,191.1,771.3,191.8,772.1,191.8z"/>
		<path fill="#FFFFFF" d="M777.1,191.8c0.8,0,1.5-0.7,1.5-1.5c0-0.8-0.7-1.5-1.5-1.5c-0.8,0-1.5,0.7-1.5,1.5
			C775.6,191.1,776.3,191.8,777.1,191.8z"/>
		<path fill="#FFFFFF" d="M782.1,191.8c0.8,0,1.5-0.7,1.5-1.5c0-0.8-0.7-1.5-1.5-1.5c-0.8,0-1.5,0.7-1.5,1.5
			C780.6,191.1,781.3,191.8,782.1,191.8z"/>
		<path fill="#FFFFFF" d="M787.1,191.8c0.8,0,1.5-0.7,1.5-1.5c0-0.8-0.7-1.5-1.5-1.5c-0.8,0-1.5,0.7-1.5,1.5
			C785.6,191.1,786.3,191.8,787.1,191.8z"/>
		<path fill="#FFFFFF" d="M687.1,193.8c-0.8,0-1.5,0.7-1.5,1.5c0,0.8,0.7,1.5,1.5,1.5c0.8,0,1.5-0.7,1.5-1.5
			C688.6,194.5,687.9,193.8,687.1,193.8z"/>
		<path fill="#FFFFFF" d="M692.1,196.8c0.8,0,1.5-0.7,1.5-1.5c0-0.8-0.7-1.5-1.5-1.5c-0.8,0-1.5,0.7-1.5,1.5
			C690.6,196.1,691.3,196.8,692.1,196.8z"/>
		<path fill="#FFFFFF" d="M697.1,196.8c0.8,0,1.5-0.7,1.5-1.5c0-0.8-0.7-1.5-1.5-1.5c-0.8,0-1.5,0.7-1.5,1.5
			C695.6,196.1,696.3,196.8,697.1,196.8z"/>
		<path fill="#FFFFFF" d="M702.1,196.8c0.8,0,1.5-0.7,1.5-1.5c0-0.8-0.7-1.5-1.5-1.5c-0.8,0-1.5,0.7-1.5,1.5
			C700.6,196.1,701.3,196.8,702.1,196.8z"/>
		<path fill="#FFFFFF" d="M707.1,196.8c0.8,0,1.5-0.7,1.5-1.5c0-0.8-0.7-1.5-1.5-1.5c-0.8,0-1.5,0.7-1.5,1.5
			C705.6,196.1,706.3,196.8,707.1,196.8z"/>
		<path fill="#FFFFFF" d="M712.1,196.8c0.8,0,1.5-0.7,1.5-1.5c0-0.8-0.7-1.5-1.5-1.5c-0.8,0-1.5,0.7-1.5,1.5
			C710.6,196.1,711.3,196.8,712.1,196.8z"/>
		<path fill="#FFFFFF" d="M717.1,196.8c0.8,0,1.5-0.7,1.5-1.5c0-0.8-0.7-1.5-1.5-1.5c-0.8,0-1.5,0.7-1.5,1.5
			C715.6,196.1,716.3,196.8,717.1,196.8z"/>
		<path fill="#FFFFFF" d="M722.1,196.8c0.8,0,1.5-0.7,1.5-1.5c0-0.8-0.7-1.5-1.5-1.5c-0.8,0-1.5,0.7-1.5,1.5
			C720.6,196.1,721.3,196.8,722.1,196.8z"/>
		<path fill="#FFFFFF" d="M727.1,196.8c0.8,0,1.5-0.7,1.5-1.5c0-0.8-0.7-1.5-1.5-1.5c-0.8,0-1.5,0.7-1.5,1.5
			C725.6,196.1,726.3,196.8,727.1,196.8z"/>
		<path fill="#FFFFFF" d="M732.1,196.8c0.8,0,1.5-0.7,1.5-1.5c0-0.8-0.7-1.5-1.5-1.5c-0.8,0-1.5,0.7-1.5,1.5
			C730.6,196.1,731.3,196.8,732.1,196.8z"/>
		<path fill="#FFFFFF" d="M737.1,196.8c0.8,0,1.5-0.7,1.5-1.5c0-0.8-0.7-1.5-1.5-1.5c-0.8,0-1.5,0.7-1.5,1.5
			C735.6,196.1,736.3,196.8,737.1,196.8z"/>
		<path fill="#FFFFFF" d="M742.1,196.8c0.8,0,1.5-0.7,1.5-1.5c0-0.8-0.7-1.5-1.5-1.5c-0.8,0-1.5,0.7-1.5,1.5
			C740.6,196.1,741.3,196.8,742.1,196.8z"/>
		<path fill="#FFFFFF" d="M747.1,196.8c0.8,0,1.5-0.7,1.5-1.5c0-0.8-0.7-1.5-1.5-1.5c-0.8,0-1.5,0.7-1.5,1.5
			C745.6,196.1,746.3,196.8,747.1,196.8z"/>
		<path fill="#FFFFFF" d="M752.1,196.8c0.8,0,1.5-0.7,1.5-1.5c0-0.8-0.7-1.5-1.5-1.5c-0.8,0-1.5,0.7-1.5,1.5
			C750.6,196.1,751.3,196.8,752.1,196.8z"/>
		<path fill="#FFFFFF" d="M757.1,196.8c0.8,0,1.5-0.7,1.5-1.5c0-0.8-0.7-1.5-1.5-1.5c-0.8,0-1.5,0.7-1.5,1.5
			C755.6,196.1,756.3,196.8,757.1,196.8z"/>
		<path fill="#FFFFFF" d="M762.1,196.8c0.8,0,1.5-0.7,1.5-1.5c0-0.8-0.7-1.5-1.5-1.5c-0.8,0-1.5,0.7-1.5,1.5
			C760.6,196.1,761.3,196.8,762.1,196.8z"/>
		<path fill="#FFFFFF" d="M767.1,196.8c0.8,0,1.5-0.7,1.5-1.5c0-0.8-0.7-1.5-1.5-1.5c-0.8,0-1.5,0.7-1.5,1.5
			C765.6,196.1,766.3,196.8,767.1,196.8z"/>
		<path fill="#FFFFFF" d="M772.1,196.8c0.8,0,1.5-0.7,1.5-1.5c0-0.8-0.7-1.5-1.5-1.5c-0.8,0-1.5,0.7-1.5,1.5
			C770.6,196.1,771.3,196.8,772.1,196.8z"/>
		<path fill="#FFFFFF" d="M777.1,196.8c0.8,0,1.5-0.7,1.5-1.5c0-0.8-0.7-1.5-1.5-1.5c-0.8,0-1.5,0.7-1.5,1.5
			C775.6,196.1,776.3,196.8,777.1,196.8z"/>
		<path fill="#FFFFFF" d="M782.1,196.8c0.8,0,1.5-0.7,1.5-1.5c0-0.8-0.7-1.5-1.5-1.5c-0.8,0-1.5,0.7-1.5,1.5
			C780.6,196.1,781.3,196.8,782.1,196.8z"/>
		<path fill="#FFFFFF" d="M787.1,196.8c0.8,0,1.5-0.7,1.5-1.5c0-0.8-0.7-1.5-1.5-1.5c-0.8,0-1.5,0.7-1.5,1.5
			C785.6,196.1,786.3,196.8,787.1,196.8z"/>
		<path fill="#FFFFFF" d="M693.6,200.3c0-0.8-0.7-1.5-1.5-1.5c-0.8,0-1.5,0.7-1.5,1.5c0,0.8,0.7,1.5,1.5,1.5
			C692.9,201.8,693.6,201.1,693.6,200.3z"/>
		<path fill="#FFFFFF" d="M697.1,201.8c0.8,0,1.5-0.7,1.5-1.5c0-0.8-0.7-1.5-1.5-1.5c-0.8,0-1.5,0.7-1.5,1.5
			C695.6,201.1,696.3,201.8,697.1,201.8z"/>
		<path fill="#FFFFFF" d="M702.1,201.8c0.8,0,1.5-0.7,1.5-1.5c0-0.8-0.7-1.5-1.5-1.5c-0.8,0-1.5,0.7-1.5,1.5
			C700.6,201.1,701.3,201.8,702.1,201.8z"/>
		<path fill="#FFFFFF" d="M707.1,201.8c0.8,0,1.5-0.7,1.5-1.5c0-0.8-0.7-1.5-1.5-1.5c-0.8,0-1.5,0.7-1.5,1.5
			C705.6,201.1,706.3,201.8,707.1,201.8z"/>
		<path fill="#FFFFFF" d="M712.1,201.8c0.8,0,1.5-0.7,1.5-1.5c0-0.8-0.7-1.5-1.5-1.5c-0.8,0-1.5,0.7-1.5,1.5
			C710.6,201.1,711.3,201.8,712.1,201.8z"/>
		<path fill="#FFFFFF" d="M717.1,201.8c0.8,0,1.5-0.7,1.5-1.5c0-0.8-0.7-1.5-1.5-1.5c-0.8,0-1.5,0.7-1.5,1.5
			C715.6,201.1,716.3,201.8,717.1,201.8z"/>
		<path fill="#FFFFFF" d="M722.1,201.8c0.8,0,1.5-0.7,1.5-1.5c0-0.8-0.7-1.5-1.5-1.5c-0.8,0-1.5,0.7-1.5,1.5
			C720.6,201.1,721.3,201.8,722.1,201.8z"/>
		<path fill="#FFFFFF" d="M727.1,201.8c0.8,0,1.5-0.7,1.5-1.5c0-0.8-0.7-1.5-1.5-1.5c-0.8,0-1.5,0.7-1.5,1.5
			C725.6,201.1,726.3,201.8,727.1,201.8z"/>
		<path fill="#FFFFFF" d="M732.1,201.8c0.8,0,1.5-0.7,1.5-1.5c0-0.8-0.7-1.5-1.5-1.5c-0.8,0-1.5,0.7-1.5,1.5
			C730.6,201.1,731.3,201.8,732.1,201.8z"/>
		<path fill="#FFFFFF" d="M737.1,201.8c0.8,0,1.5-0.7,1.5-1.5c0-0.8-0.7-1.5-1.5-1.5c-0.8,0-1.5,0.7-1.5,1.5
			C735.6,201.1,736.3,201.8,737.1,201.8z"/>
		<path fill="#FFFFFF" d="M742.1,201.8c0.8,0,1.5-0.7,1.5-1.5c0-0.8-0.7-1.5-1.5-1.5c-0.8,0-1.5,0.7-1.5,1.5
			C740.6,201.1,741.3,201.8,742.1,201.8z"/>
		<path fill="#FFFFFF" d="M747.1,201.8c0.8,0,1.5-0.7,1.5-1.5c0-0.8-0.7-1.5-1.5-1.5c-0.8,0-1.5,0.7-1.5,1.5
			C745.6,201.1,746.3,201.8,747.1,201.8z"/>
		<path fill="#FFFFFF" d="M752.1,201.8c0.8,0,1.5-0.7,1.5-1.5c0-0.8-0.7-1.5-1.5-1.5c-0.8,0-1.5,0.7-1.5,1.5
			C750.6,201.1,751.3,201.8,752.1,201.8z"/>
		<path fill="#FFFFFF" d="M757.1,201.8c0.8,0,1.5-0.7,1.5-1.5c0-0.8-0.7-1.5-1.5-1.5c-0.8,0-1.5,0.7-1.5,1.5
			C755.6,201.1,756.3,201.8,757.1,201.8z"/>
		<path fill="#FFFFFF" d="M762.1,201.8c0.8,0,1.5-0.7,1.5-1.5c0-0.8-0.7-1.5-1.5-1.5c-0.8,0-1.5,0.7-1.5,1.5
			C760.6,201.1,761.3,201.8,762.1,201.8z"/>
		<path fill="#FFFFFF" d="M767.1,201.8c0.8,0,1.5-0.7,1.5-1.5c0-0.8-0.7-1.5-1.5-1.5c-0.8,0-1.5,0.7-1.5,1.5
			C765.6,201.1,766.3,201.8,767.1,201.8z"/>
		<path fill="#FFFFFF" d="M772.1,201.8c0.8,0,1.5-0.7,1.5-1.5c0-0.8-0.7-1.5-1.5-1.5c-0.8,0-1.5,0.7-1.5,1.5
			C770.6,201.1,771.3,201.8,772.1,201.8z"/>
		<path fill="#FFFFFF" d="M777.1,201.8c0.8,0,1.5-0.7,1.5-1.5c0-0.8-0.7-1.5-1.5-1.5c-0.8,0-1.5,0.7-1.5,1.5
			C775.6,201.1,776.3,201.8,777.1,201.8z"/>
		<path fill="#FFFFFF" d="M782.1,201.8c0.8,0,1.5-0.7,1.5-1.5c0-0.8-0.7-1.5-1.5-1.5c-0.8,0-1.5,0.7-1.5,1.5
			C780.6,201.1,781.3,201.8,782.1,201.8z"/>
		<path fill="#FFFFFF" d="M697.1,206.8c0.8,0,1.5-0.7,1.5-1.5c0-0.8-0.7-1.5-1.5-1.5c-0.8,0-1.5,0.7-1.5,1.5
			C695.6,206.1,696.3,206.8,697.1,206.8z"/>
		<path fill="#FFFFFF" d="M702.1,206.8c0.8,0,1.5-0.7,1.5-1.5c0-0.8-0.7-1.5-1.5-1.5c-0.8,0-1.5,0.7-1.5,1.5
			C700.6,206.1,701.3,206.8,702.1,206.8z"/>
		<path fill="#FFFFFF" d="M707.1,206.8c0.8,0,1.5-0.7,1.5-1.5c0-0.8-0.7-1.5-1.5-1.5c-0.8,0-1.5,0.7-1.5,1.5
			C705.6,206.1,706.3,206.8,707.1,206.8z"/>
		<path fill="#FFFFFF" d="M712.1,206.8c0.8,0,1.5-0.7,1.5-1.5c0-0.8-0.7-1.5-1.5-1.5c-0.8,0-1.5,0.7-1.5,1.5
			C710.6,206.1,711.3,206.8,712.1,206.8z"/>
		<path fill="#FFFFFF" d="M717.1,206.8c0.8,0,1.5-0.7,1.5-1.5c0-0.8-0.7-1.5-1.5-1.5c-0.8,0-1.5,0.7-1.5,1.5
			C715.6,206.1,716.3,206.8,717.1,206.8z"/>
		<path fill="#FFFFFF" d="M722.1,206.8c0.8,0,1.5-0.7,1.5-1.5c0-0.8-0.7-1.5-1.5-1.5c-0.8,0-1.5,0.7-1.5,1.5
			C720.6,206.1,721.3,206.8,722.1,206.8z"/>
		<path fill="#FFFFFF" d="M727.1,206.8c0.8,0,1.5-0.7,1.5-1.5c0-0.8-0.7-1.5-1.5-1.5c-0.8,0-1.5,0.7-1.5,1.5
			C725.6,206.1,726.3,206.8,727.1,206.8z"/>
		<path fill="#FFFFFF" d="M732.1,206.8c0.8,0,1.5-0.7,1.5-1.5c0-0.8-0.7-1.5-1.5-1.5c-0.8,0-1.5,0.7-1.5,1.5
			C730.6,206.1,731.3,206.8,732.1,206.8z"/>
		<path fill="#FFFFFF" d="M737.1,206.8c0.8,0,1.5-0.7,1.5-1.5c0-0.8-0.7-1.5-1.5-1.5c-0.8,0-1.5,0.7-1.5,1.5
			C735.6,206.1,736.3,206.8,737.1,206.8z"/>
		<path fill="#FFFFFF" d="M742.1,206.8c0.8,0,1.5-0.7,1.5-1.5c0-0.8-0.7-1.5-1.5-1.5c-0.8,0-1.5,0.7-1.5,1.5
			C740.6,206.1,741.3,206.8,742.1,206.8z"/>
		<path fill="#FFFFFF" d="M747.1,206.8c0.8,0,1.5-0.7,1.5-1.5c0-0.8-0.7-1.5-1.5-1.5c-0.8,0-1.5,0.7-1.5,1.5
			C745.6,206.1,746.3,206.8,747.1,206.8z"/>
		<path fill="#FFFFFF" d="M752.1,206.8c0.8,0,1.5-0.7,1.5-1.5c0-0.8-0.7-1.5-1.5-1.5c-0.8,0-1.5,0.7-1.5,1.5
			C750.6,206.1,751.3,206.8,752.1,206.8z"/>
		<path fill="#FFFFFF" d="M757.1,206.8c0.8,0,1.5-0.7,1.5-1.5c0-0.8-0.7-1.5-1.5-1.5c-0.8,0-1.5,0.7-1.5,1.5
			C755.6,206.1,756.3,206.8,757.1,206.8z"/>
		<path fill="#FFFFFF" d="M762.1,206.8c0.8,0,1.5-0.7,1.5-1.5c0-0.8-0.7-1.5-1.5-1.5c-0.8,0-1.5,0.7-1.5,1.5
			C760.6,206.1,761.3,206.8,762.1,206.8z"/>
		<path fill="#FFFFFF" d="M767.1,206.8c0.8,0,1.5-0.7,1.5-1.5c0-0.8-0.7-1.5-1.5-1.5c-0.8,0-1.5,0.7-1.5,1.5
			C765.6,206.1,766.3,206.8,767.1,206.8z"/>
		<path fill="#FFFFFF" d="M772.1,206.8c0.8,0,1.5-0.7,1.5-1.5c0-0.8-0.7-1.5-1.5-1.5c-0.8,0-1.5,0.7-1.5,1.5
			C770.6,206.1,771.3,206.8,772.1,206.8z"/>
		<path fill="#FFFFFF" d="M777.1,206.8c0.8,0,1.5-0.7,1.5-1.5c0-0.8-0.7-1.5-1.5-1.5c-0.8,0-1.5,0.7-1.5,1.5
			C775.6,206.1,776.3,206.8,777.1,206.8z"/>
		<path fill="#FFFFFF" d="M702.1,211.8c0.8,0,1.5-0.7,1.5-1.5c0-0.8-0.7-1.5-1.5-1.5c-0.8,0-1.5,0.7-1.5,1.5
			C700.6,211.1,701.3,211.8,702.1,211.8z"/>
		<path fill="#FFFFFF" d="M707.1,211.8c0.8,0,1.5-0.7,1.5-1.5c0-0.8-0.7-1.5-1.5-1.5c-0.8,0-1.5,0.7-1.5,1.5
			C705.6,211.1,706.3,211.8,707.1,211.8z"/>
		<path fill="#FFFFFF" d="M712.1,211.8c0.8,0,1.5-0.7,1.5-1.5c0-0.8-0.7-1.5-1.5-1.5c-0.8,0-1.5,0.7-1.5,1.5
			C710.6,211.1,711.3,211.8,712.1,211.8z"/>
		<path fill="#FFFFFF" d="M717.1,211.8c0.8,0,1.5-0.7,1.5-1.5c0-0.8-0.7-1.5-1.5-1.5c-0.8,0-1.5,0.7-1.5,1.5
			C715.6,211.1,716.3,211.8,717.1,211.8z"/>
		<path fill="#FFFFFF" d="M722.1,211.8c0.8,0,1.5-0.7,1.5-1.5c0-0.8-0.7-1.5-1.5-1.5c-0.8,0-1.5,0.7-1.5,1.5
			C720.6,211.1,721.3,211.8,722.1,211.8z"/>
		<path fill="#FFFFFF" d="M727.1,211.8c0.8,0,1.5-0.7,1.5-1.5c0-0.8-0.7-1.5-1.5-1.5c-0.8,0-1.5,0.7-1.5,1.5
			C725.6,211.1,726.3,211.8,727.1,211.8z"/>
		<path fill="#FFFFFF" d="M732.1,211.8c0.8,0,1.5-0.7,1.5-1.5c0-0.8-0.7-1.5-1.5-1.5c-0.8,0-1.5,0.7-1.5,1.5
			C730.6,211.1,731.3,211.8,732.1,211.8z"/>
		<path fill="#FFFFFF" d="M737.1,211.8c0.8,0,1.5-0.7,1.5-1.5c0-0.8-0.7-1.5-1.5-1.5c-0.8,0-1.5,0.7-1.5,1.5
			C735.6,211.1,736.3,211.8,737.1,211.8z"/>
		<path fill="#FFFFFF" d="M742.1,211.8c0.8,0,1.5-0.7,1.5-1.5c0-0.8-0.7-1.5-1.5-1.5c-0.8,0-1.5,0.7-1.5,1.5
			C740.6,211.1,741.3,211.8,742.1,211.8z"/>
		<path fill="#FFFFFF" d="M747.1,211.8c0.8,0,1.5-0.7,1.5-1.5c0-0.8-0.7-1.5-1.5-1.5c-0.8,0-1.5,0.7-1.5,1.5
			C745.6,211.1,746.3,211.8,747.1,211.8z"/>
		<path fill="#FFFFFF" d="M752.1,211.8c0.8,0,1.5-0.7,1.5-1.5c0-0.8-0.7-1.5-1.5-1.5c-0.8,0-1.5,0.7-1.5,1.5
			C750.6,211.1,751.3,211.8,752.1,211.8z"/>
		<path fill="#FFFFFF" d="M757.1,211.8c0.8,0,1.5-0.7,1.5-1.5c0-0.8-0.7-1.5-1.5-1.5c-0.8,0-1.5,0.7-1.5,1.5
			C755.6,211.1,756.3,211.8,757.1,211.8z"/>
		<path fill="#FFFFFF" d="M762.1,211.8c0.8,0,1.5-0.7,1.5-1.5c0-0.8-0.7-1.5-1.5-1.5c-0.8,0-1.5,0.7-1.5,1.5
			C760.6,211.1,761.3,211.8,762.1,211.8z"/>
		<path fill="#FFFFFF" d="M767.1,211.8c0.8,0,1.5-0.7,1.5-1.5c0-0.8-0.7-1.5-1.5-1.5c-0.8,0-1.5,0.7-1.5,1.5
			C765.6,211.1,766.3,211.8,767.1,211.8z"/>
		<path fill="#FFFFFF" d="M707.1,216.8c0.8,0,1.5-0.7,1.5-1.5c0-0.8-0.7-1.5-1.5-1.5c-0.8,0-1.5,0.7-1.5,1.5
			C705.6,216.1,706.3,216.8,707.1,216.8z"/>
		<path fill="#FFFFFF" d="M712.1,216.8c0.8,0,1.5-0.7,1.5-1.5c0-0.8-0.7-1.5-1.5-1.5c-0.8,0-1.5,0.7-1.5,1.5
			C710.6,216.1,711.3,216.8,712.1,216.8z"/>
		<path fill="#FFFFFF" d="M717.1,216.8c0.8,0,1.5-0.7,1.5-1.5c0-0.8-0.7-1.5-1.5-1.5c-0.8,0-1.5,0.7-1.5,1.5
			C715.6,216.1,716.3,216.8,717.1,216.8z"/>
		<path fill="#FFFFFF" d="M722.1,216.8c0.8,0,1.5-0.7,1.5-1.5c0-0.8-0.7-1.5-1.5-1.5c-0.8,0-1.5,0.7-1.5,1.5
			C720.6,216.1,721.3,216.8,722.1,216.8z"/>
		<path fill="#FFFFFF" d="M727.1,216.8c0.8,0,1.5-0.7,1.5-1.5c0-0.8-0.7-1.5-1.5-1.5c-0.8,0-1.5,0.7-1.5,1.5
			C725.6,216.1,726.3,216.8,727.1,216.8z"/>
		<path fill="#FFFFFF" d="M732.1,216.8c0.8,0,1.5-0.7,1.5-1.5c0-0.8-0.7-1.5-1.5-1.5c-0.8,0-1.5,0.7-1.5,1.5
			C730.6,216.1,731.3,216.8,732.1,216.8z"/>
		<path fill="#FFFFFF" d="M737.1,216.8c0.8,0,1.5-0.7,1.5-1.5c0-0.8-0.7-1.5-1.5-1.5c-0.8,0-1.5,0.7-1.5,1.5
			C735.6,216.1,736.3,216.8,737.1,216.8z"/>
		<path fill="#FFFFFF" d="M742.1,216.8c0.8,0,1.5-0.7,1.5-1.5c0-0.8-0.7-1.5-1.5-1.5c-0.8,0-1.5,0.7-1.5,1.5
			C740.6,216.1,741.3,216.8,742.1,216.8z"/>
		<path fill="#FFFFFF" d="M747.1,216.8c0.8,0,1.5-0.7,1.5-1.5c0-0.8-0.7-1.5-1.5-1.5c-0.8,0-1.5,0.7-1.5,1.5
			C745.6,216.1,746.3,216.8,747.1,216.8z"/>
		<path fill="#FFFFFF" d="M752.1,216.8c0.8,0,1.5-0.7,1.5-1.5c0-0.8-0.7-1.5-1.5-1.5c-0.8,0-1.5,0.7-1.5,1.5
			C750.6,216.1,751.3,216.8,752.1,216.8z"/>
		<path fill="#FFFFFF" d="M757.1,216.8c0.8,0,1.5-0.7,1.5-1.5c0-0.8-0.7-1.5-1.5-1.5c-0.8,0-1.5,0.7-1.5,1.5
			C755.6,216.1,756.3,216.8,757.1,216.8z"/>
		<path fill="#FFFFFF" d="M732.1,221.8c0.8,0,1.5-0.7,1.5-1.5c0-0.8-0.7-1.5-1.5-1.5c-0.8,0-1.5,0.7-1.5,1.5
			C730.6,221.1,731.3,221.8,732.1,221.8z"/>
		<path fill="#FFFFFF" d="M731.7,223.9c37.5,0,65.1-23.5,65.1-43.6c0-20.2-27.6-43.6-65.1-43.6c-29.1,0-51.1,16.3-51.1,43.6
			S702.6,223.9,731.7,223.9z M690.7,204.9c-0.9-1.1-1.7-2.3-2.5-3.6c0.2-0.3,0.4-0.6,0.4-1c0-0.8-0.7-1.5-1.5-1.5
			c-0.1,0-0.2,0-0.3,0c-1.9-3.8-3.2-7.9-3.8-12.3c0.3-0.3,0.6-0.7,0.6-1.2c0-0.6-0.4-1.1-0.8-1.4c-0.1-0.7-0.1-1.5-0.1-2.2
			c0.6-0.2,1-0.8,1-1.4c0-0.6-0.4-1.2-1-1.4c0-0.8,0.1-1.5,0.1-2.2c0.5-0.2,0.8-0.7,0.8-1.3c0-0.5-0.2-0.9-0.6-1.2
			c0.6-4.4,1.9-8.6,3.8-12.3c0.1,0,0.2,0,0.3,0c0.8,0,1.5-0.7,1.5-1.5c0-0.4-0.2-0.7-0.4-1c0.7-1.2,1.6-2.4,2.5-3.5
			c0.2,0.6,0.7,1.1,1.4,1.1c0.8,0,1.5-0.7,1.5-1.5c0-0.8-0.6-1.4-1.3-1.5c1-1.1,2.1-2.2,3.3-3.3c0.1,0.7,0.7,1.2,1.5,1.2
			c0.8,0,1.5-0.7,1.5-1.5c0-0.6-0.4-1.2-0.9-1.4c1.1-0.9,2.3-1.7,3.5-2.4c0.3,0.2,0.6,0.3,0.9,0.3c0.8,0,1.5-0.7,1.5-1.5
			c0-0.1,0-0.1,0-0.2c3.7-1.9,7.7-3.5,12-4.5c0.1,0.7,0.7,1.2,1.5,1.2c0.8,0,1.5-0.7,1.5-1.5c0-0.1,0-0.2,0-0.4
			c0.7-0.1,1.5-0.3,2.3-0.4c-0.1,0.2-0.2,0.5-0.2,0.8c0,0.8,0.7,1.5,1.5,1.5c0.8,0,1.5-0.7,1.5-1.5c0-0.4-0.2-0.8-0.5-1.1
			c1.2-0.1,2.3-0.3,3.5-0.3c-0.6,0.2-1.1,0.8-1.1,1.4c0,0.8,0.7,1.5,1.5,1.5c0.8,0,1.5-0.7,1.5-1.5c0-0.7-0.5-1.4-1.2-1.5
			c1.4-0.1,2.8-0.1,4.3-0.1c1.7,0,3.4,0.1,5.1,0.2c-0.6,0.2-1.1,0.7-1.1,1.5c0,0.8,0.7,1.5,1.5,1.5c0.8,0,1.5-0.7,1.5-1.5
			c0-0.6-0.4-1.2-1-1.4c1.2,0.1,2.3,0.2,3.4,0.3c-0.3,0.3-0.5,0.7-0.5,1.1c0,0.8,0.7,1.5,1.5,1.5c0.8,0,1.5-0.7,1.5-1.5
			c0-0.3-0.1-0.6-0.2-0.8c0.8,0.1,1.5,0.2,2.3,0.4c0,0.1-0.1,0.3-0.1,0.5c0,0.8,0.7,1.5,1.5,1.5c0.8,0,1.4-0.6,1.5-1.4
			c0.7,0.1,1.4,0.3,2.1,0.4c0.2,0.6,0.7,1,1.4,1c0.4,0,0.7-0.1,1-0.4c2.8,0.7,5.5,1.6,8.2,2.6c-0.4,0.3-0.7,0.7-0.7,1.3
			c0,0.8,0.7,1.5,1.5,1.5c0.8,0,1.5-0.7,1.5-1.5c0-0.1,0-0.2,0-0.3c2.7,1.2,5.4,2.5,7.9,3.9c-0.5,0.2-0.9,0.8-0.9,1.4
			c0,0.8,0.7,1.5,1.5,1.5c0.8,0,1.5-0.7,1.5-1.5c0,0,0-0.1,0-0.1c1.2,0.8,2.4,1.5,3.5,2.4c1.2,0.9,2.4,1.8,3.5,2.7
			c0,0.8,0.7,1.5,1.5,1.5c0.1,0,0.1,0,0.2,0c1.2,1.1,2.3,2.2,3.3,3.4c0,0.1,0,0.1,0,0.2c0,0.8,0.6,1.5,1.5,1.5
			c1.9,2.3,3.5,4.7,4.7,7c-0.6,0.2-1.1,0.7-1.1,1.5c0,0.8,0.7,1.5,1.5,1.5c0.3,0,0.6-0.1,0.9-0.3c1.2,3,1.8,5.9,1.8,8.8
			c0,2.9-0.6,5.8-1.8,8.8c-0.2-0.2-0.5-0.3-0.9-0.3c-0.8,0-1.5,0.7-1.5,1.5c0,0.7,0.5,1.3,1.1,1.4c-1.2,2.4-2.8,4.8-4.7,7.1
			c-0.8,0-1.5,0.7-1.5,1.5c0,0.1,0,0.1,0,0.2c-1,1.1-2.1,2.3-3.3,3.3c-0.1,0-0.1,0-0.2,0c-0.8,0-1.5,0.7-1.5,1.5
			c-1.1,0.9-2.3,1.9-3.5,2.7c-1.1,0.8-2.3,1.6-3.5,2.4c0,0,0-0.1,0-0.1c0-0.8-0.7-1.5-1.5-1.5c-0.8,0-1.5,0.7-1.5,1.5
			c0,0.6,0.4,1.1,0.9,1.4c-1.3,0.8-2.7,1.5-4,2.2c-0.1,0-0.2,0-0.4,0c-0.6,0-1.1,0.3-1.4,0.9c-0.7,0.3-1.4,0.7-2.2,1
			c0-0.1,0-0.2,0-0.3c0-0.8-0.7-1.5-1.5-1.5c-0.8,0-1.5,0.7-1.5,1.5c0,0.5,0.3,1,0.7,1.3c-2.6,1-5.4,1.9-8.2,2.6
			c-0.3-0.2-0.6-0.4-1-0.4c-0.6,0-1.2,0.4-1.4,1c-0.7,0.2-1.4,0.3-2.1,0.4c0-0.8-0.7-1.4-1.5-1.4c-0.8,0-1.5,0.7-1.5,1.5
			c0,0.2,0,0.3,0.1,0.5c-0.8,0.1-1.5,0.2-2.3,0.4c0.2-0.2,0.2-0.5,0.2-0.8c0-0.8-0.7-1.5-1.5-1.5c-0.8,0-1.5,0.7-1.5,1.5
			c0,0.4,0.2,0.8,0.5,1.1c-1.2,0.1-2.3,0.2-3.5,0.3c0.6-0.2,1-0.7,1-1.4c0-0.8-0.7-1.5-1.5-1.5c-0.8,0-1.5,0.7-1.5,1.5
			c0,0.7,0.5,1.3,1.2,1.5c-1.7,0.1-3.4,0.2-5.1,0.2c-1.5,0-2.9-0.1-4.4-0.1c0.7-0.1,1.3-0.7,1.3-1.5c0-0.8-0.7-1.5-1.5-1.5
			c-0.8,0-1.5,0.7-1.5,1.5c0,0.7,0.5,1.3,1.1,1.4c-1.2-0.1-2.4-0.2-3.6-0.4c0.3-0.3,0.5-0.7,0.5-1.1c0-0.8-0.7-1.5-1.5-1.5
			c-0.8,0-1.5,0.7-1.5,1.5c0,0.3,0.1,0.5,0.2,0.8c-0.8-0.1-1.5-0.3-2.3-0.4c0-0.1,0.1-0.2,0.1-0.4c0-0.8-0.7-1.5-1.5-1.5
			c-0.7,0-1.3,0.5-1.5,1.2c-0.8-0.2-1.6-0.4-2.3-0.6c-0.3-0.4-0.7-0.6-1.2-0.6c-0.2,0-0.3,0-0.5,0.1c-2.8-0.9-5.5-2.1-8-3.4
			c0-0.1,0-0.1,0-0.2c0-0.8-0.7-1.5-1.5-1.5c-0.3,0-0.7,0.1-0.9,0.3c-1.2-0.8-2.4-1.6-3.5-2.4c0.6-0.2,1-0.8,1-1.4
			c0-0.8-0.7-1.5-1.5-1.5c-0.7,0-1.4,0.5-1.5,1.2c-1.2-1-2.3-2.1-3.3-3.3c0.7-0.1,1.3-0.7,1.3-1.5c0-0.8-0.7-1.5-1.5-1.5
			C691.4,203.8,690.9,204.3,690.7,204.9z"/>
		<path fill="#FFFFFF" d="M801.1,180.3c0,3.5-1,8.7-5.2,15.4c-0.1,1.4,0.3,2.4,1.5,2.4c0.7,0,1.6-0.3,2.8-0.9
			c12.2-6.5,19.3-9.2,29.1-12.7c1.8-0.7,3.2-2.3,3.2-4.1c0-1.8-1.4-3.4-3.2-4.1c-9.8-3.5-16.9-6.2-29.1-12.7
			c-1.2-0.7-2.1-0.9-2.8-0.9c-1.2,0-1.5,0.9-1.5,2.4C800.1,171.5,801.1,176.7,801.1,180.3z M799.2,165.2
			c12.3,6.5,19.6,9.3,29.3,12.8c1.1,0.5,1.9,1.4,1.9,2.3c0,0.9-0.8,1.8-1.9,2.3c-9.8,3.5-17.1,6.3-29.3,12.8
			c-0.5,0.2-0.8,0.4-1.1,0.5c3.3-5.5,5-10.7,5-15.6c0-4.8-1.7-10-5-15.6C798.4,164.8,798.8,165,799.2,165.2z"/>
		<path fill="#FFFFFF" d="M676.3,178.1c0,0.7,0,1.4,0,2.1c0,0.7,0,1.4,0,2.1c0.2,5.1,1.2,9.9,2.8,14.5c2,5.6,5.1,10.5,9.1,14.7
			c0.3,0.3,0.5,0.6,0.8,0.8c5,4.9,11.3,8.8,18.8,11.4c5.7,2,12.1,3.3,19.2,3.9c3.2,0.3,6.6,0.4,10,0.4c0.4,0,0.7,0,1,0
			c0.1,0,0.1,0,0.2,0c0.3,0,0.7,0,1,0c0,0,0,0,0,0c8.6-0.4,18.7-3.4,30.1-8.7c12.9-6,22.6-12.8,25.2-14.7c5.1-3.7,14.8-8,21.9-11.2
			c3.7-1.7,12.4-5.9,22.3-5.9c2.3,0,4.6,0,7.2,0c3.8,0,8.1,0,13.7-0.1c0.8,0,1.7,0,2.7,0c12.6,0,40,0.7,40.4,0.8c1,0.4,2,0.7,3,0.7
			c1.1,0,2.2-0.3,3.1-0.9c1.4-0.9,3-2.9,3-7.2l0-1c0-4.4-1.7-6.3-3-7.2c-0.9-0.6-2-0.9-3.1-0.9c-1,0-2,0.2-3,0.7
			c-0.4,0.2-27.8,0.8-40.4,0.8c-1,0-1.9,0-2.7,0c-8.8-0.1-14.5-0.2-19.9-0.2c-0.3,0-0.6,0-0.9,0c-9.9,0-18.5-4.3-22.3-5.9
			c-7.2-3.2-16.8-7.5-21.9-11.2c-2.7-1.9-12.4-8.7-25.2-14.7c-11.5-5.3-21.6-8.2-30.1-8.7c0,0,0,0,0,0c-0.3,0-0.7,0-1,0
			c-0.1,0-0.1,0-0.2,0c-0.4,0-0.7,0-1,0c-3.5,0-6.8,0.1-10,0.4c-7.1,0.6-13.5,1.9-19.2,3.9c-7.5,2.6-13.9,6.5-18.8,11.4
			c-0.3,0.3-0.6,0.6-0.8,0.8c-4,4.2-7.1,9.2-9.1,14.7C677.5,168.2,676.5,173.1,676.3,178.1z M839,175L839,175c0,0,18,0.2,20.8,0.2
			c0.8,0,1.7,0,2.7,0c5.5,0,14.8-0.1,24.8-0.4c15.7-0.3,15.9-0.5,16.4-0.6c0.7-0.3,1.4-0.5,2.1-0.5c0.7,0,1.4,0.2,2,0.6
			c1.4,0.9,2.1,2.8,2.1,5.6l0,1c0,2.7-0.7,4.7-2.1,5.6c-0.6,0.4-1.2,0.6-2,0.6c-0.7,0-1.4-0.2-2.1-0.5c-0.4-0.2-0.7-0.3-16.4-0.6
			c-10-0.2-19.3-0.4-24.8-0.4c-1,0-1.9,0-2.7,0c-5.9,0.1-20.8,0.1-20.8,0.1V175z M689.7,150.3c0.3-0.3,0.5-0.5,0.8-0.8
			c4.7-4.7,10.8-8.4,18.1-10.9c5.5-1.9,11.8-3.2,18.7-3.8c3.1-0.3,6.5-0.4,9.9-0.4c0.3,0,0.6,0,1,0l0,0h0c0.1,0,0.1,0,0.2,0
			c0,0,0,0,0,0c0.3,0,0.6,0,0.9,0l0.1,0c8.3,0.4,18.2,3.3,29.4,8.5c13.2,6.1,23.1,13.2,24.9,14.5c5.4,3.9,15.6,8.4,22.3,11.4
			c0.3,0.1,0.6,0.3,0.9,0.4c3.8,1.7,11.4,5.2,20.2,5.6v10.7c-8.7,0.5-16.4,3.9-20.2,5.6c-0.3,0.1-0.6,0.3-0.9,0.4
			c-6.7,3-16.9,7.5-22.3,11.4c-1.9,1.4-11.7,8.4-24.9,14.5c-11.2,5.2-21.1,8.1-29.4,8.5h0l0,0c-0.3,0-0.6,0-0.9,0
			c-0.1,0-0.1,0-0.2,0h0l0,0c-0.3,0-0.6,0-1,0c-3.4,0-6.7-0.1-9.9-0.4c-6.9-0.6-13.2-1.9-18.7-3.8c-7.3-2.5-13.3-6.2-18.1-10.9
			c-0.3-0.3-0.5-0.5-0.8-0.8c-3.8-4-6.8-8.7-8.7-14c-1.6-4.4-2.5-9-2.7-13.9c0-0.7,0-1.3,0-2.1c0-0.7,0-1.3,0-2
			c0.2-4.9,1.1-9.5,2.7-13.9C682.9,159,685.9,154.3,689.7,150.3z"/>
		<path fill="#FFFFFF" d="M322,304.7c6.6,0,12-5.4,12-12s-5.4-12-12-12s-12,5.4-12,12S315.4,304.7,322,304.7z M322,282.7
			c5.5,0,10,4.5,10,10s-4.5,10-10,10s-10-4.5-10-10S316.5,282.7,322,282.7z"/>
		<path fill="#FFFFFF" d="M387,292.7c0-35.8-29.2-65-65-65s-65,29.2-65,65s29.2,65,65,65S387,328.6,387,292.7z M259,292.7
			c0-8.3,1.6-16.1,4.5-23.4c0.3,0.2,0.6,0.4,1,0.4c0.8,0,1.5-0.7,1.5-1.5c0-0.8-0.6-1.4-1.4-1.5c1.2-2.5,2.5-5,3.9-7.3
			c0.3,0.2,0.6,0.3,0.9,0.3c0.8,0,1.5-0.7,1.5-1.5c0-0.6-0.3-1.1-0.8-1.3c0.9-1.3,1.8-2.5,2.8-3.7c0,0,0,0,0,0
			c0,0.8,0.7,1.5,1.5,1.5c0.8,0,1.5-0.7,1.5-1.5c0-0.8-0.7-1.5-1.5-1.5c-0.1,0-0.2,0-0.3,0c1.3-1.5,2.6-2.9,4-4.2
			c-0.1,0.2-0.2,0.4-0.2,0.7c0,0.8,0.7,1.5,1.5,1.5c0.8,0,1.5-0.7,1.5-1.5c0-0.8-0.7-1.5-1.5-1.5c-0.2,0-0.4,0-0.6,0.1
			c1.3-1.2,2.7-2.4,4.1-3.6c0,0.8,0.7,1.4,1.5,1.4c0.8,0,1.5-0.7,1.5-1.5c0-0.7-0.4-1.2-1-1.4c1.2-0.8,2.4-1.7,3.6-2.4
			c0.3,0.2,0.6,0.3,1,0.3c0.8,0,1.5-0.7,1.5-1.5c0-0.1,0-0.2,0-0.3c9.2-5.2,19.8-8.2,31-8.2s21.9,3,31,8.2c0,0.1,0,0.2,0,0.3
			c0,0.8,0.7,1.5,1.5,1.5c0.4,0,0.7-0.1,1-0.3c1.2,0.8,2.4,1.6,3.6,2.4c-0.6,0.2-1,0.8-1,1.4c0,0.8,0.7,1.5,1.5,1.5
			c0.8,0,1.5-0.6,1.5-1.4c1.4,1.1,2.8,2.3,4.1,3.6c-0.2-0.1-0.4-0.1-0.6-0.1c-0.8,0-1.5,0.7-1.5,1.5c0,0.8,0.7,1.5,1.5,1.5
			s1.5-0.7,1.5-1.5c0-0.3-0.1-0.5-0.2-0.7c1.4,1.3,2.7,2.8,4,4.2c-0.1,0-0.2,0-0.3,0c-0.8,0-1.5,0.7-1.5,1.5c0,0.8,0.7,1.5,1.5,1.5
			s1.5-0.7,1.5-1.5c0,0,0,0,0,0c1,1.2,1.9,2.4,2.8,3.7c-0.5,0.3-0.8,0.7-0.8,1.3c0,0.8,0.7,1.5,1.5,1.5c0.4,0,0.7-0.1,0.9-0.3
			c1.5,2.3,2.8,4.8,3.9,7.3c-0.8,0.1-1.4,0.7-1.4,1.5c0,0.8,0.7,1.5,1.5,1.5c0.4,0,0.7-0.1,1-0.4c2.9,7.2,4.5,15.1,4.5,23.4
			c0,34.7-28.3,63-63,63S259,327.5,259,292.7z"/>
		<path fill="#FFFFFF" d="M269.5,266.7c-0.8,0-1.5,0.7-1.5,1.5c0,0.8,0.7,1.5,1.5,1.5c0.8,0,1.5-0.7,1.5-1.5
			C271,267.4,270.3,266.7,269.5,266.7z"/>
		<path fill="#FFFFFF" d="M274.5,269.7c0.8,0,1.5-0.7,1.5-1.5c0-0.8-0.7-1.5-1.5-1.5c-0.8,0-1.5,0.7-1.5,1.5
			C273,269.1,273.7,269.7,274.5,269.7z"/>
		<path fill="#FFFFFF" d="M269.5,264.7c0.8,0,1.5-0.7,1.5-1.5c0-0.8-0.7-1.5-1.5-1.5c-0.8,0-1.5,0.7-1.5,1.5
			C268,264.1,268.7,264.7,269.5,264.7z"/>
		<path fill="#FFFFFF" d="M274.5,264.7c0.8,0,1.5-0.7,1.5-1.5c0-0.8-0.7-1.5-1.5-1.5c-0.8,0-1.5,0.7-1.5,1.5
			C273,264.1,273.7,264.7,274.5,264.7z"/>
		<path fill="#FFFFFF" d="M274.5,259.7c0.8,0,1.5-0.7,1.5-1.5c0-0.8-0.7-1.5-1.5-1.5c-0.8,0-1.5,0.7-1.5,1.5
			C273,259.1,273.7,259.7,274.5,259.7z"/>
		<path fill="#FFFFFF" d="M279.5,259.7c0.8,0,1.5-0.7,1.5-1.5c0-0.8-0.7-1.5-1.5-1.5c-0.8,0-1.5,0.7-1.5,1.5
			C278,259.1,278.7,259.7,279.5,259.7z"/>
		<path fill="#FFFFFF" d="M279.5,254.7c0.8,0,1.5-0.7,1.5-1.5c0-0.8-0.7-1.5-1.5-1.5c-0.8,0-1.5,0.7-1.5,1.5
			C278,254.1,278.7,254.7,279.5,254.7z"/>
		<path fill="#FFFFFF" d="M284.5,254.7c0.8,0,1.5-0.7,1.5-1.5c0-0.8-0.7-1.5-1.5-1.5c-0.8,0-1.5,0.7-1.5,1.5
			C283,254.1,283.7,254.7,284.5,254.7z"/>
		<path fill="#FFFFFF" d="M284.5,249.7c0.8,0,1.5-0.7,1.5-1.5c0-0.8-0.7-1.5-1.5-1.5c-0.8,0-1.5,0.7-1.5,1.5
			C283,249.1,283.7,249.7,284.5,249.7z"/>
		<path fill="#FFFFFF" d="M289.5,249.7c0.8,0,1.5-0.7,1.5-1.5c0-0.8-0.7-1.5-1.5-1.5c-0.8,0-1.5,0.7-1.5,1.5
			C288,249.1,288.7,249.7,289.5,249.7z"/>
		<path fill="#FFFFFF" d="M289.5,244.7c0.8,0,1.5-0.7,1.5-1.5c0-0.8-0.7-1.5-1.5-1.5c-0.8,0-1.5,0.7-1.5,1.5
			C288,244.1,288.7,244.7,289.5,244.7z"/>
		<path fill="#FFFFFF" d="M294.5,244.7c0.8,0,1.5-0.7,1.5-1.5c0-0.8-0.7-1.5-1.5-1.5c-0.8,0-1.5,0.7-1.5,1.5
			C293,244.1,293.7,244.7,294.5,244.7z"/>
		<path fill="#FFFFFF" d="M299.5,244.7c0.8,0,1.5-0.7,1.5-1.5c0-0.8-0.7-1.5-1.5-1.5c-0.8,0-1.5,0.7-1.5,1.5
			C298,244.1,298.7,244.7,299.5,244.7z"/>
		<path fill="#FFFFFF" d="M294.5,239.7c0.8,0,1.5-0.7,1.5-1.5c0-0.8-0.7-1.5-1.5-1.5c-0.8,0-1.5,0.7-1.5,1.5
			C293,239.1,293.7,239.7,294.5,239.7z"/>
		<path fill="#FFFFFF" d="M299.5,239.7c0.8,0,1.5-0.7,1.5-1.5c0-0.8-0.7-1.5-1.5-1.5c-0.8,0-1.5,0.7-1.5,1.5
			C298,239.1,298.7,239.7,299.5,239.7z"/>
		<path fill="#FFFFFF" d="M373,292.7c0-6.3-1.2-12.4-3.3-18c0.7-0.1,1.3-0.7,1.3-1.5c0-0.8-0.7-1.5-1.5-1.5c-0.3,0-0.6,0.1-0.9,0.3
			c-1.1-2.6-2.5-5-4-7.3c0.8,0,1.4-0.7,1.4-1.5c0-0.8-0.7-1.5-1.5-1.5c-0.6,0-1.1,0.4-1.4,0.9c-0.8-1.1-1.7-2.2-2.6-3.3
			c0.3-0.3,0.5-0.7,0.5-1.1c0-0.8-0.7-1.5-1.5-1.5c-0.4,0-0.8,0.1-1,0.4c-0.9-1-1.9-1.9-3-2.8c0.3-0.3,0.5-0.7,0.5-1.1
			c0-0.8-0.7-1.5-1.5-1.5c-0.5,0-1,0.3-1.3,0.7c-1.2-1-2.5-1.9-3.9-2.7c0.1,0,0.1,0,0.2,0c0.8,0,1.5-0.7,1.5-1.5
			c0-0.8-0.7-1.5-1.5-1.5c-0.8,0-1.5,0.7-1.5,1.5c0,0.3,0.1,0.6,0.2,0.8c-0.8-0.5-1.5-0.9-2.3-1.3c-0.2-0.6-0.8-1-1.4-1
			c-0.1,0-0.3,0-0.4,0c-6.7-3.2-14.2-5-22.1-5s-15.4,1.8-22.1,5c-0.1,0-0.2-0.1-0.4,0c-0.6,0-1.2,0.4-1.4,1
			c-0.8,0.4-1.6,0.9-2.3,1.3c0.1-0.2,0.2-0.5,0.2-0.8c0-0.8-0.7-1.5-1.5-1.5c-0.8,0-1.5,0.7-1.5,1.5c0,0.8,0.7,1.5,1.5,1.5
			c0.1,0,0.1,0,0.2,0c-1.3,0.9-2.6,1.8-3.9,2.7c-0.3-0.4-0.7-0.7-1.3-0.7c-0.8,0-1.5,0.7-1.5,1.5c0,0.4,0.2,0.8,0.5,1.1
			c-1,0.9-2,1.8-3,2.8c-0.3-0.3-0.6-0.4-1-0.4c-0.8,0-1.5,0.7-1.5,1.5c0,0.4,0.2,0.8,0.5,1.1c-0.9,1.1-1.8,2.1-2.6,3.3
			c-0.2-0.5-0.8-0.9-1.4-0.9c-0.8,0-1.5,0.7-1.5,1.5c0,0.8,0.6,1.4,1.4,1.5c-1.5,2.3-2.9,4.8-4,7.3c-0.3-0.2-0.6-0.3-0.9-0.3
			c-0.8,0-1.5,0.7-1.5,1.5c0,0.8,0.6,1.4,1.3,1.5c-2.1,5.6-3.3,11.7-3.3,18c0,28.1,22.9,51,51,51S373,320.9,373,292.7z M333.7,340.3
			v-25.6c0-6.7,5.6-12.3,12.3-12.3h24C366.3,321,352,335.8,333.7,340.3z M322,243.7c23.9,0,43.9,17.3,48.2,40
			c-10.4-0.2-18.1-3.7-25.6-7c-7.2-3.2-13.9-6.3-22.5-6.3c-8.5,0-14.9,3-21.8,6.1c-7.4,3.4-15.1,7-26.4,7.2
			C278.1,261,298.1,243.7,322,243.7z M310.3,340.3c-18.3-4.5-32.6-19.3-36.4-37.9h24c7,0,12.3,5.3,12.3,12.3V340.3z M298,300.4
			h-24.4c-0.4-2.5-0.6-5.1-0.6-7.7c0-2.4,0.2-4.7,0.5-7c11.9-0.1,19.9-3.8,27.6-7.4c6.6-3.1,12.9-5.9,20.9-5.9
			c8.2,0,14.8,3,21.7,6.1c7.7,3.5,15.7,7.1,26.8,7.2c0.3,2.3,0.5,4.6,0.5,7c0,3.1-0.3,6.1-0.9,9v-1.4H346c-7.8,0-14.3,6.6-14.3,14.3
			v26c-3.1,0.6-6.4,1-9.7,1s-6.5-0.3-9.7-1v-26C312.3,306.7,306,300.4,298,300.4z"/>
		<path fill="#FFFFFF" d="M374.5,269.7c0.8,0,1.5-0.7,1.5-1.5c0-0.8-0.7-1.5-1.5-1.5c-0.8,0-1.5,0.7-1.5,1.5
			C373,269.1,373.7,269.7,374.5,269.7z"/>
		<path fill="#FFFFFF" d="M369.5,269.7c0.8,0,1.5-0.7,1.5-1.5c0-0.8-0.7-1.5-1.5-1.5c-0.8,0-1.5,0.7-1.5,1.5
			C368,269.1,368.7,269.7,369.5,269.7z"/>
		<path fill="#FFFFFF" d="M374.5,264.7c0.8,0,1.5-0.7,1.5-1.5c0-0.8-0.7-1.5-1.5-1.5c-0.8,0-1.5,0.7-1.5,1.5
			C373,264.1,373.7,264.7,374.5,264.7z"/>
		<path fill="#FFFFFF" d="M369.5,264.7c0.8,0,1.5-0.7,1.5-1.5c0-0.8-0.7-1.5-1.5-1.5c-0.8,0-1.5,0.7-1.5,1.5
			C368,264.1,368.7,264.7,369.5,264.7z"/>
		<path fill="#FFFFFF" d="M369.5,259.7c0.8,0,1.5-0.7,1.5-1.5c0-0.8-0.7-1.5-1.5-1.5c-0.8,0-1.5,0.7-1.5,1.5
			C368,259.1,368.7,259.7,369.5,259.7z"/>
		<path fill="#FFFFFF" d="M364.5,259.7c0.8,0,1.5-0.7,1.5-1.5c0-0.8-0.7-1.5-1.5-1.5c-0.8,0-1.5,0.7-1.5,1.5
			C363,259.1,363.7,259.7,364.5,259.7z"/>
		<path fill="#FFFFFF" d="M364.5,254.7c0.8,0,1.5-0.7,1.5-1.5c0-0.8-0.7-1.5-1.5-1.5c-0.8,0-1.5,0.7-1.5,1.5
			C363,254.1,363.7,254.7,364.5,254.7z"/>
		<path fill="#FFFFFF" d="M359.5,254.7c0.8,0,1.5-0.7,1.5-1.5c0-0.8-0.7-1.5-1.5-1.5c-0.8,0-1.5,0.7-1.5,1.5
			C358,254.1,358.7,254.7,359.5,254.7z"/>
		<path fill="#FFFFFF" d="M359.5,249.7c0.8,0,1.5-0.7,1.5-1.5c0-0.8-0.7-1.5-1.5-1.5c-0.8,0-1.5,0.7-1.5,1.5
			C358,249.1,358.7,249.7,359.5,249.7z"/>
		<path fill="#FFFFFF" d="M354.5,249.7c0.8,0,1.5-0.7,1.5-1.5c0-0.8-0.7-1.5-1.5-1.5c-0.8,0-1.5,0.7-1.5,1.5
			C353,249.1,353.7,249.7,354.5,249.7z"/>
		<path fill="#FFFFFF" d="M354.5,244.7c0.8,0,1.5-0.7,1.5-1.5c0-0.8-0.7-1.5-1.5-1.5c-0.8,0-1.5,0.7-1.5,1.5
			C353,244.1,353.7,244.7,354.5,244.7z"/>
		<path fill="#FFFFFF" d="M349.5,244.7c0.8,0,1.5-0.7,1.5-1.5c0-0.8-0.7-1.5-1.5-1.5c-0.8,0-1.5,0.7-1.5,1.5
			C348,244.1,348.7,244.7,349.5,244.7z"/>
		<path fill="#FFFFFF" d="M344.5,244.7c0.8,0,1.5-0.7,1.5-1.5c0-0.8-0.7-1.5-1.5-1.5c-0.8,0-1.5,0.7-1.5,1.5
			C343,244.1,343.7,244.7,344.5,244.7z"/>
		<path fill="#FFFFFF" d="M349.5,239.7c0.8,0,1.5-0.7,1.5-1.5c0-0.8-0.7-1.5-1.5-1.5c-0.8,0-1.5,0.7-1.5,1.5
			C348,239.1,348.7,239.7,349.5,239.7z"/>
		<path fill="#FFFFFF" d="M344.5,239.7c0.8,0,1.5-0.7,1.5-1.5c0-0.8-0.7-1.5-1.5-1.5c-0.8,0-1.5,0.7-1.5,1.5
			C343,239.1,343.7,239.7,344.5,239.7z"/>
		<path fill="#FFFFFF" d="M1114.2,176.9c-8.5,8.5-13.2,19.8-13.2,31.8s4.7,23.3,13.2,31.8c8.5,8.5,19.8,13.2,31.8,13.2
			s23.3-4.7,31.8-13.2c8.5-8.5,13.2-19.8,13.2-31.8s-4.7-23.3-13.2-31.8c-8.5-8.5-19.8-13.2-31.8-13.2S1122.7,168.4,1114.2,176.9z
			 M1189,208.7c0,11.5-4.5,22.3-12.6,30.4c-8.1,8.1-18.9,12.6-30.4,12.6c-0.1,0-0.2,0-0.3,0c3.4-24.6,18.7-39.9,43.3-43.3
			C1189,208.6,1189,208.7,1189,208.7z M1176.4,178.3c7.6,7.6,12,17.5,12.5,28.1c-25.7,3.5-41.7,19.5-45.2,45.2
			c-10.6-0.6-20.5-5-28.1-12.5c-7.6-7.6-12-17.5-12.5-28.1c25.7-3.5,41.7-19.5,45.2-45.2C1158.9,166.4,1168.8,170.8,1176.4,178.3z
			 M1103,209c0-0.1,0-0.2,0-0.3c0-11.5,4.5-22.3,12.6-30.4c8.1-8.1,18.9-12.6,30.4-12.6c0.1,0,0.2,0,0.3,0
			C1142.9,190.3,1127.6,205.6,1103,209z"/>
		<path fill="#FFFFFF" d="M972.1,168.4l-0.2,2c2,0.2,3.9,0.5,5.9,0.8l0.3-2C976.1,168.9,974.1,168.6,972.1,168.4z"/>
		<path fill="#FFFFFF" d="M984,170.3l-0.4,2c1.9,0.4,3.9,0.9,5.8,1.4l0.5-1.9C988,171.2,986,170.7,984,170.3z"/>
		<path fill="#FFFFFF" d="M1060.2,232.9l1.8-0.9c-0.9-1.8-1.8-3.6-2.8-5.4l-1.8,1C1058.4,229.3,1059.3,231.1,1060.2,232.9z"/>
		<path fill="#FFFFFF" d="M965.9,169.9l0.1-2c-2-0.1-4-0.2-6.1-0.2v1v1C962,169.7,964,169.8,965.9,169.9z"/>
		<path fill="#FFFFFF" d="M995.7,173.5l-0.6,1.9c1.9,0.6,3.7,1.3,5.6,2l0.7-1.9C999.5,174.8,997.6,174.1,995.7,173.5z"/>
		<path fill="#FFFFFF" d="M1039.9,200.8c-0.9-0.9-1.9-1.9-2.9-2.8l-1.4,1.5c1,0.9,1.9,1.8,2.8,2.7c0.5,0.5,0.9,1,1.4,1.4l1.4-1.4
			C1040.9,201.8,1040.4,201.3,1039.9,200.8z"/>
		<path fill="#FFFFFF" d="M1047.7,212.7l1.6-1.2c-1.2-1.6-2.5-3.2-3.8-4.7l-1.5,1.3C1045.2,209.6,1046.5,211.1,1047.7,212.7z"/>
		<path fill="#FFFFFF" d="M1051.2,217.5c1.1,1.6,2.2,3.3,3.3,5l1.7-1.1c-1.1-1.7-2.2-3.4-3.3-5.1L1051.2,217.5z"/>
		<path fill="#FFFFFF" d="M1022.8,186.8c-1.7-1.1-3.4-2.2-5.1-3.2l-1,1.7c1.7,1,3.4,2.1,5,3.2L1022.8,186.8z"/>
		<path fill="#FFFFFF" d="M1027.7,190.3l-1.2,1.6c1.6,1.2,3.1,2.4,4.7,3.7l1.3-1.5C1030.9,192.8,1029.3,191.5,1027.7,190.3z"/>
		<path fill="#FFFFFF" d="M1007,177.9l-0.8,1.8c1.8,0.8,3.6,1.7,5.3,2.6l0.9-1.8C1010.6,179.7,1008.8,178.8,1007,177.9z"/>
		<path fill="#FFFFFF" d="M954,162.7c-3.3,0-6,2.7-6,6s2.7,6,6,6s6-2.7,6-6S957.3,162.7,954,162.7z M954,172.7c-2.2,0-4-1.8-4-4
			s1.8-4,4-4c2.2,0,4,1.8,4,4S956.2,172.7,954,172.7z"/>
		<polygon fill="#FFFFFF" points="1062.7,235.8 1056.2,233.2 1055.4,235 1063.7,238.5 1067.2,230.1 1065.3,229.4 		"/>
		<path fill="#FFFFFF" d="M497.9,244.6c0.9-0.9,1.9-1.9,2.8-2.9l-1.5-1.4c-0.9,1-1.8,1.9-2.7,2.8c-0.5,0.5-1,0.9-1.4,1.4l1.4,1.4
			C496.9,245.6,497.4,245.1,497.9,244.6z"/>
		<path fill="#FFFFFF" d="M508.5,232.5l-1.6-1.2c-1.2,1.6-2.4,3.1-3.7,4.7l1.5,1.3C506,235.7,507.2,234.1,508.5,232.5z"/>
		<path fill="#FFFFFF" d="M471.2,262.2c-1.7,0.9-3.5,1.9-5.3,2.7l0.9,1.8c1.8-0.9,3.6-1.8,5.4-2.8L471.2,262.2z"/>
		<path fill="#FFFFFF" d="M515.2,222.4l-1.7-1c-1,1.7-2.1,3.4-3.2,5l1.7,1.1C513.1,225.9,514.2,224.2,515.2,222.4z"/>
		<path fill="#FFFFFF" d="M476.3,259.2l1.1,1.7c1.7-1.1,3.4-2.2,5.1-3.3l-1.1-1.6C479.7,257.1,478,258.2,476.3,259.2z"/>
		<path fill="#FFFFFF" d="M492,250.2l-1.3-1.5c-1.5,1.3-3,2.6-4.6,3.8l1.2,1.6C488.9,252.8,490.5,251.5,492,250.2z"/>
		<path fill="#FFFFFF" d="M520.8,211.7l-1.8-0.8c-0.8,1.8-1.7,3.6-2.6,5.3l1.8,0.9C519.1,215.4,520,213.5,520.8,211.7z"/>
		<path fill="#FFFFFF" d="M525.2,200.5l-1.9-0.6c-0.6,1.9-1.3,3.8-2,5.6l1.9,0.7C523.9,204.3,524.6,202.4,525.2,200.5z"/>
		<path fill="#FFFFFF" d="M528.8,170.7l2,0.1c0.1-2,0.2-4,0.2-6.1h-1h-1C529,166.7,528.9,168.7,528.8,170.7z"/>
		<path fill="#FFFFFF" d="M530.4,176.8l-2-0.2c-0.2,2-0.5,3.9-0.8,5.9l2,0.3C529.9,180.8,530.1,178.8,530.4,176.8z"/>
		<path fill="#FFFFFF" d="M525.1,194.1l1.9,0.5c0.5-1.9,1-3.9,1.4-5.9l-2-0.4C526.1,190.3,525.6,192.2,525.1,194.1z"/>
		<path fill="#FFFFFF" d="M530,164.7c3.3,0,6-2.7,6-6s-2.7-6-6-6s-6,2.7-6,6S526.7,164.7,530,164.7z M530,154.7c2.2,0,4,1.8,4,4
			s-1.8,4-4,4c-2.2,0-4-1.8-4-4S527.8,154.7,530,154.7z"/>
		<polygon fill="#FFFFFF" points="463.7,260.2 460.3,268.5 468.6,271.9 469.4,270.1 462.9,267.4 465.6,260.9 		"/>
		<path fill="#FFFFFF" d="M98,320.3c35.3,0,64-28.7,64-64s-28.7-64-64-64c-35.3,0-64,28.7-64,64S62.7,320.3,98,320.3z M108.9,317.3
			c7.9-4.4,14.6-13.5,19.1-25.5c5.7,1.8,10.8,4.2,15.1,7C134.1,308.3,122.2,314.9,108.9,317.3z M144.4,297.3
			c-4.5-3-9.9-5.5-15.8-7.4c3.3-9.5,5.3-20.7,5.4-32.6h26C159.7,272.6,153.9,286.6,144.4,297.3z M144.4,215.2
			c9.5,10.7,15.3,24.7,15.6,40.1h-26c-0.1-12-2.1-23.1-5.4-32.6C134.5,220.7,139.9,218.2,144.4,215.2z M143,213.7
			c-4.3,2.8-9.4,5.2-15.1,7c-4.5-12-11.2-21.1-19.1-25.5C122.2,197.6,134.1,204.2,143,213.7z M99,194.3c8.5,0.5,16.5,6.7,22.7,17.7
			c1.6,2.9,3.1,6,4.3,9.4c-8.2,2.4-17.4,3.8-27,3.9V194.3z M99,227.2c9.8-0.1,19.3-1.5,27.7-4c3.3,9.5,5.2,20.5,5.3,32H99V227.2z
			 M99,257.3h33c-0.1,11.5-1.9,22.5-5.3,32c-8.4-2.5-17.9-3.9-27.7-4V257.3z M99,287.3c9.6,0.1,18.9,1.5,27,3.9
			c-1.3,3.3-2.7,6.5-4.3,9.4c-6.2,11-14.2,17.2-22.7,17.7V287.3z M52.8,298.6c4.4-2.8,9.5-5.2,15.2-7c4.5,12,11.2,21.2,19.1,25.6
			C73.7,314.9,61.8,308.2,52.8,298.6z M97,318.2c-8.5-0.5-16.5-6.7-22.7-17.7c-1.6-2.9-3.1-6.1-4.4-9.5c8.2-2.4,17.5-3.7,27.1-3.8
			V318.2z M97,285.3c-9.8,0.1-19.3,1.4-27.8,3.9c-3.3-9.5-5.1-20.5-5.2-31.9h33V285.3z M97,255.3H64c0.1-11.5,1.9-22.4,5.2-31.9
			c8.4,2.5,17.9,3.8,27.8,3.9V255.3z M97,225.2c-9.6-0.1-18.9-1.4-27.1-3.8c1.3-3.4,2.7-6.5,4.4-9.5c6.2-11,14.2-17.2,22.7-17.7
			V225.2z M87.1,195.2c-7.9,4.4-14.6,13.6-19.1,25.6c-5.7-1.8-10.8-4.2-15.2-7C61.8,204.3,73.7,197.6,87.1,195.2z M51.5,215.3
			l-0.1,0.1c4.5,3,9.9,5.4,15.9,7.3c-3.3,9.5-5.2,20.6-5.3,32.5H36C36.3,239.9,42.1,226,51.5,215.3z M36,257.3h26
			c0.1,11.9,2,23,5.3,32.5c-5.9,1.9-11.3,4.4-15.9,7.3l0.1,0.1C42.1,286.5,36.3,272.6,36,257.3z"/>
		<path fill="#FFFFFF" d="M763.4,93.3c0.2,0.3,0.5,0.4,0.8,0.4c0.2,0,0.4-0.1,0.6-0.2c0.4-0.3,0.5-1,0.2-1.4
			c-1.2-1.6-2.5-3.2-3.9-4.7c-0.4-0.4-1-0.4-1.4-0.1c-0.4,0.4-0.4,1-0.1,1.4C761,90.2,762.2,91.8,763.4,93.3z"/>
		<path fill="#FFFFFF" d="M712,74.7c3,0,5.4-2.2,5.9-5c0,0,0.1,0,0.1,0c2,0,3.9,0.1,5.9,0.3c0,0,0.1,0,0.1,0c0.5,0,0.9-0.4,1-0.9
			c0.1-0.5-0.3-1-0.9-1.1c-2-0.2-4.1-0.3-6.1-0.3c0,0-0.1,0-0.1,0c-0.5-2.8-2.9-5-5.9-5c-3.3,0-6,2.7-6,6S708.7,74.7,712,74.7z
			 M712,64.7c2.2,0,4,1.8,4,4s-1.8,4-4,4s-4-1.8-4-4S709.8,64.7,712,64.7z"/>
		<path fill="#FFFFFF" d="M740.9,74.7c1.8,0.8,3.5,1.7,5.2,2.7c0.2,0.1,0.3,0.1,0.5,0.1c0.3,0,0.7-0.2,0.9-0.5
			c0.3-0.5,0.1-1.1-0.3-1.4c-1.7-1-3.6-2-5.4-2.8c-0.5-0.2-1.1,0-1.3,0.5C740.1,73.9,740.4,74.5,740.9,74.7z"/>
		<path fill="#FFFFFF" d="M755.5,84.5c0.2,0.2,0.4,0.3,0.7,0.3c0.3,0,0.5-0.1,0.7-0.3c0.4-0.4,0.4-1,0-1.4c-1.5-1.4-3.1-2.7-4.7-3.9
			c-0.4-0.3-1.1-0.2-1.4,0.2c-0.3,0.4-0.2,1.1,0.2,1.4C752.5,81.9,754.1,83.2,755.5,84.5z"/>
		<path fill="#FFFFFF" d="M729.7,71c1.9,0.4,3.8,0.9,5.7,1.6c0.1,0,0.2,0.1,0.3,0.1c0.4,0,0.8-0.3,0.9-0.7c0.2-0.5-0.1-1.1-0.6-1.3
			c-1.9-0.6-3.9-1.2-5.9-1.6c-0.5-0.1-1.1,0.2-1.2,0.8C728.8,70.3,729.2,70.9,729.7,71z"/>
		<path fill="#FFFFFF" d="M770,109.7c7.3,0,13-3.1,13-7c0-3.7-5.2-6.7-12-7V61.4l25.2-12.6L769,35.1v25.6c0,0,0,0,0,0v35
			c-6.8,0.3-12,3.2-12,7C757,106.7,762.7,109.7,770,109.7z M771,38.4l20.8,10.4L771,59.1V38.4z M769,97.8v0.7
			c-0.1-0.2-0.2-0.4-0.3-0.6C768.8,97.8,768.9,97.8,769,97.8z M766.5,98c0,0.1,0,0.1,0.1,0.2c0.9,1.6,1.8,3.3,2.5,4.9c0,0,0,0,0,0
			c0,0,0,0,0,0c0,0.1,0.1,0.2,0.2,0.3c0,0,0,0,0.1,0.1c0.1,0.1,0.1,0.1,0.2,0.1c0,0,0.1,0,0.1,0c0.1,0,0.2,0.1,0.3,0.1
			c0.1,0,0.1,0,0.2,0c0.2,0,0.4-0.1,0.5-0.3c0,0,0.1-0.1,0.1-0.1c0-0.1,0.1-0.1,0.1-0.2c0-0.1,0.1-0.2,0.1-0.4c0,0,0,0,0,0v0
			c0,0,0,0,0,0v-5c5.9,0.3,10,2.7,10,5c0,2.4-4.5,5-11,5s-11-2.6-11-5C759,100.8,762,98.7,766.5,98z"/>
		<path fill="#FFFFFF" d="M684.8,393.6l13.6-2.3l-1.9-13.4l9.6-9.7l-9.6-9.7l1.9-13.4l-13.6-2.3l-6.4-11.9l-12.4,5.9l-12.4-5.9
			l-6.4,11.9l-13.6,2.3l1.9,13.4l-9.6,9.7l9.6,9.7l-1.9,13.4l13.6,2.3l0,0.1l-0.2,0l-3.2,28.9l21.9-11.5l21.9,11.5l-3.1-28.6
			L684.8,393.6z M635.9,389.6l1.6-11.5l0.1-1l-0.7-0.7l-8.2-8.3l8.2-8.3l0.7-0.7l-0.1-1l-1.6-11.5l11.6-2l1-0.2l0.5-0.9l5.5-10.3
			l10.6,5.1l0.9,0.4l0.9-0.4l10.6-5.1l5.5,10.3l0.5,0.9l1,0.2l11.6,2l-1.6,11.5l-0.1,1l0.7,0.7l8.2,8.3l-8.2,8.3l-0.7,0.7l0.1,1
			l1.6,11.5l-11.6,2l-1,0.2l-0.5,0.9l-5.5,10.3l-10.6-5.1l-0.9-0.4l-0.9,0.4l-10.6,5.1l-5.5-10.3l-0.5-0.9l-1-0.2L635.9,389.6z
			 M685.4,419l-19.5-10.3L646.3,419l2.5-22.5l4.9,9l12.4-5.9l12.4,5.9l4.6-8.5L685.4,419z"/>
		<path fill="#FFFFFF" d="M666,391.6c13.1,0,23.7-10.5,23.7-23.5c0-13-10.6-23.5-23.7-23.5s-23.7,10.5-23.7,23.5
			C642.3,381.1,652.9,391.6,666,391.6z M666,346.7c12,0,21.7,9.6,21.7,21.5c0,11.8-9.7,21.5-21.7,21.5s-21.7-9.6-21.7-21.5
			C644.3,356.3,654,346.7,666,346.7z"/>
		<path fill="#FFFFFF" d="M560,350.7c12.1,0,22-9.9,22-22c0-12.1-9.9-22-22-22s-22,9.9-22,22C538,340.9,547.9,350.7,560,350.7z
			 M560,308.7c11,0,20,9,20,20c0,11-9,20-20,20s-20-9-20-20C540,317.7,549,308.7,560,308.7z"/>
		<path fill="#FFFFFF" d="M420.2,325.4c-0.7,2.3-0.5,4.7,0.7,6.8l0.5,0.9c2.3,4.3,7.9,6.2,12.4,4.2l43.4-19.5
			c3.5-1.6,7.9-0.1,9.7,3.4l5.6,10.8c1.8,3.5,0.5,7.9-2.8,9.9L404,393.6c-6-1.6-11.8-3.7-17.6-6.1l0,0l-5.5-2.3l-0.8,1.8l5.5,2.3
			l0.4-0.9l-0.4,0.9c18.3,7.6,37.6,11.5,56.9,11.5c19,0,37.9-3.7,55.9-11.1c35.8-14.7,75.3-14.6,111.2,0.3l0.8-1.8
			c-24.7-10.3-51.1-13.6-76.9-10.1l6.4-8.4c2.9-3.8,3.1-10.2,0.4-14.2l-43-63.7c-2.7-4.1-8.5-5.5-12.8-3.2l-59.8,31.5
			C422.5,321.2,420.9,323.1,420.2,325.4z M485.4,290.4c3.5-1.8,8.1-0.7,10.3,2.6l43,63.7c2.2,3.3,2,8.7-0.3,11.8l-7.7,10
			c-11.2,1.8-22.3,4.9-33.1,9.3c-29.2,12-60.8,14.1-90.9,6.5l83.9-50.5c4.2-2.5,5.8-8.2,3.5-12.5l-5.6-10.8
			c-2.3-4.4-7.8-6.3-12.3-4.3l-43.4,19.5c-3.6,1.6-7.9,0.1-9.8-3.3l-0.5-0.9c-0.9-1.6-1.1-3.5-0.5-5.3c0.5-1.8,1.8-3.2,3.4-4.1
			L485.4,290.4z"/>
		
			<rect x="349" y="370.3" transform="matrix(-0.3861 0.9225 -0.9225 -0.3861 829.5623 194.5988)" fill="#FFFFFF" width="2" height="6"/>
		
			<rect x="360.1" y="375" transform="matrix(-0.3861 0.9225 -0.9225 -0.3861 849.1799 190.8122)" fill="#FFFFFF" width="2" height="6"/>
		
			<rect x="371.2" y="379.6" transform="matrix(-0.3861 0.9225 -0.9225 -0.3861 868.7975 187.0248)" fill="#FFFFFF" width="2" height="6"/>
	</g>
	
		<linearGradient id="SVGID_1_" gradientUnits="userSpaceOnUse" x1="4824.9731" y1="-2030.2529" x2="4858.8989" y2="-2030.2529" gradientTransform="matrix(-1 0 0 -1 5539.8726 -1994.5055)">
		<stop  offset="0.2" style="stop-color:#FFFFFF;stop-opacity:0"/>
		<stop  offset="1" style="stop-color:#FFFFFF"/>
	</linearGradient>
	<polygon fill="url(#SVGID_1_)" points="682.8,69.2 681,68.3 713.1,2.3 714.9,3.2 	"/>
	
		<linearGradient id="SVGID_2_" gradientUnits="userSpaceOnUse" x1="4846.9731" y1="-2030.2527" x2="4880.8989" y2="-2030.2527" gradientTransform="matrix(-1 0 0 -1 5539.8726 -1994.5055)">
		<stop  offset="0.2" style="stop-color:#FFFFFF;stop-opacity:0"/>
		<stop  offset="1" style="stop-color:#FFFFFF"/>
	</linearGradient>
	<polygon fill="url(#SVGID_2_)" points="660.8,69.2 659,68.3 691.1,2.3 692.9,3.2 	"/>
	
		<linearGradient id="SVGID_3_" gradientUnits="userSpaceOnUse" x1="4673.1016" y1="-2030.2529" x2="4707.0273" y2="-2030.2529" gradientTransform="matrix(1 0 0 -1 -4166 -1994.5055)">
		<stop  offset="0.2" style="stop-color:#FFFFFF;stop-opacity:0"/>
		<stop  offset="1" style="stop-color:#FFFFFF"/>
	</linearGradient>
	<polygon fill="url(#SVGID_3_)" points="539.2,69.2 541,68.3 508.9,2.3 507.1,3.2 	"/>
	
		<linearGradient id="SVGID_4_" gradientUnits="userSpaceOnUse" x1="4695.1016" y1="-2030.2527" x2="4729.0273" y2="-2030.2527" gradientTransform="matrix(1 0 0 -1 -4166 -1994.5055)">
		<stop  offset="0.2" style="stop-color:#FFFFFF;stop-opacity:0"/>
		<stop  offset="1" style="stop-color:#FFFFFF"/>
	</linearGradient>
	<polygon fill="url(#SVGID_4_)" points="561.2,69.2 563,68.3 530.9,2.3 529.1,3.2 	"/>
</g>
</svg>
