<?xml version="1.0" encoding="utf-8"?>
<!-- Generator: Adobe Illustrator 18.1.1, SVG Export Plug-In . SVG Version: 6.00 Build 0)  -->
<!DOCTYPE svg PUBLIC "-//W3C//DTD SVG 1.1//EN" "http://www.w3.org/Graphics/SVG/1.1/DTD/svg11.dtd">
<svg version="1.1" id="Calque_1" xmlns="http://www.w3.org/2000/svg" xmlns:xlink="http://www.w3.org/1999/xlink" x="0px" y="0px"
	 viewBox="0 0 160 160" enable-background="new 0 0 160 160" xml:space="preserve">
<g>
	<path fill="#000032" d="M131,47v66H29V47H131 M135,43H25v74h110V43L135,43z"/>
</g>
<line fill="none" stroke="#000032" stroke-width="4" stroke-miterlimit="10" x1="80" y1="80" x2="120" y2="80"/>
<line fill="none" stroke="#000032" stroke-width="4" stroke-miterlimit="10" x1="80" y1="70" x2="110" y2="70"/>
<line fill="none" stroke="#000032" stroke-width="4" stroke-miterlimit="10" x1="80" y1="60" x2="100" y2="60"/>
<line fill="none" stroke="#000032" stroke-width="4" stroke-miterlimit="10" x1="80" y1="90" x2="100" y2="90"/>
<g>
	<g>
		<path fill="#000032" d="M52.2,57c2.8,0,5,2.2,5,5v4.5c0,2.8-2.2,5-5,5s-5-2.2-5-5V62C47.2,59.2,49.5,57,52.2,57 M52.2,53
			c-5,0-9,4-9,9v4.5c0,5,4,9,9,9s9-4,9-9V62C61.2,57,57.2,53,52.2,53L52.2,53z"/>
	</g>
	<g>
		<path fill="#000032" d="M60.5,81c2.7,0,4.9,2.2,5,4.9L64.7,96H39.8L39,85.9c0.1-2.7,2.3-4.9,5-4.9l5.6,5l2.7,2.4l2.7-2.4L60.5,81
			 M60.5,77H59l-6.8,6l-6.8-6H44c-5,0-9,4-9,9l1.1,14h32.2l1.1-14C69.5,81,65.5,77,60.5,77L60.5,77z"/>
	</g>
</g>
<line fill="none" stroke="#000032" stroke-width="4" stroke-miterlimit="10" x1="35" y1="107" x2="43" y2="107"/>
<line fill="none" stroke="#000032" stroke-width="4" stroke-miterlimit="10" x1="77" y1="107" x2="85" y2="107"/>
<line fill="none" stroke="#000032" stroke-width="4" stroke-miterlimit="10" x1="115" y1="107" x2="123" y2="107"/>
<line fill="none" stroke="#000032" stroke-width="4" stroke-miterlimit="10" x1="99" y1="107" x2="107" y2="107"/>
<line fill="none" stroke="#000032" stroke-width="4" stroke-miterlimit="10" x1="63" y1="107" x2="75" y2="107"/>
<line fill="none" stroke="#000032" stroke-width="4" stroke-miterlimit="10" x1="45" y1="107" x2="49" y2="107"/>
<line fill="none" stroke="#000032" stroke-width="4" stroke-miterlimit="10" x1="51" y1="107" x2="55" y2="107"/>
<line fill="none" stroke="#000032" stroke-width="4" stroke-miterlimit="10" x1="57" y1="107" x2="61" y2="107"/>
<line fill="none" stroke="#000032" stroke-width="4" stroke-miterlimit="10" x1="87" y1="107" x2="91" y2="107"/>
<line fill="none" stroke="#000032" stroke-width="4" stroke-miterlimit="10" x1="93" y1="107" x2="97" y2="107"/>
<line fill="none" stroke="#000032" stroke-width="4" stroke-miterlimit="10" x1="102" y1="90" x2="106" y2="90"/>
<line fill="none" stroke="#000032" stroke-width="4" stroke-miterlimit="10" x1="108" y1="90" x2="112" y2="90"/>
<line fill="none" stroke="#000032" stroke-width="4" stroke-miterlimit="10" x1="109" y1="107" x2="113" y2="107"/>
</svg>
