<?xml version="1.0" encoding="utf-8"?>
<!-- Generator: Adobe Illustrator 18.1.1, SVG Export Plug-In . SVG Version: 6.00 Build 0)  -->
<!DOCTYPE svg PUBLIC "-//W3C//DTD SVG 1.1//EN" "http://www.w3.org/Graphics/SVG/1.1/DTD/svg11.dtd">
<svg version="1.1" id="Calque_1" xmlns="http://www.w3.org/2000/svg" xmlns:xlink="http://www.w3.org/1999/xlink" x="0px" y="0px"
	 viewBox="0 0 160 160" enable-background="new 0 0 160 160" xml:space="preserve">
<g>
	<path fill="#000032" d="M81,21c11,0,20,9,20,20v12c0,11-9,20-20,20s-20-9-20-20V41C61,30,70,21,81,21 M81,17c-13.3,0-24,10.7-24,24
		v12c0,13.3,10.7,24,24,24s24-10.7,24-24V41C105,27.7,94.3,17,81,17L81,17z"/>
</g>
<g>
	<path fill="#000032" d="M103,85c11,0,19.9,8.9,20,19.9l-2.7,36.1H41.7L39,104.9c0.1-11,9-19.9,20-19.9h2.5l16.9,15l2.7,2.4l2.7-2.4
		l16.9-15H103 M103,81h-4L81,97L63,81h-4c-13.3,0-24,10.7-24,24l3,40h86l3-40C127,91.7,116.3,81,103,81L103,81z"/>
</g>
<line fill="none" stroke="#000032" stroke-width="4" stroke-linecap="round" stroke-miterlimit="10" x1="55" y1="143" x2="55" y2="121"/>
<line fill="none" stroke="#000032" stroke-width="4" stroke-linecap="round" stroke-miterlimit="10" x1="107" y1="143" x2="107" y2="121"/>
<polyline fill="none" stroke="#000032" stroke-width="4" stroke-miterlimit="10" points="81,130.9 81,112 79,112 75,116 "/>
<line fill="none" stroke="#000032" stroke-width="4" stroke-miterlimit="10" x1="75" y1="130.9" x2="87" y2="130.9"/>
</svg>
