<?xml version="1.0" encoding="utf-8"?>
<!-- Generator: Adobe Illustrator 18.1.1, SVG Export Plug-In . SVG Version: 6.00 Build 0)  -->
<!DOCTYPE svg PUBLIC "-//W3C//DTD SVG 1.1//EN" "http://www.w3.org/Graphics/SVG/1.1/DTD/svg11.dtd">
<svg version="1.1" id="Calque_1" xmlns="http://www.w3.org/2000/svg" xmlns:xlink="http://www.w3.org/1999/xlink" x="0px" y="0px"
	 viewBox="52 52.2 80 80" enable-background="new 52 52.2 80 80" xml:space="preserve">
<g>
	<path fill="#000032" d="M75,104.2l-6,6h-9v14h21v-14h-6V104.2z M79,112.2v10H62v-10h7h0.8l0.6-0.6l2.6-2.6v1.2v2h2H79z"/>
	<path fill="#000032" d="M104,60.2v18h6v6l6-6h8v-18H104z M122,76.2h-6h-0.8l-0.6,0.6l-2.6,2.6v-1.2v-2h-2h-4v-14h16V76.2z"/>
	<path fill="#000032" d="M92,76.3L92,76.3l-2-0.1v0.1c-8.4,0.5-15,7.5-15,15.9s6.6,15.4,15,15.9v0.1h2v-0.1c8.4-0.5,15-7.5,15-15.9
		S100.4,76.8,92,76.3z M90,84.2c-1.5-0.1-3-0.3-4.4-0.6c1.1-2.7,2.6-4.7,4.4-5.2V84.2z M90,86.2v5h-6c0.1-2,0.4-3.9,0.9-5.7
		C86.5,85.9,88.2,86.2,90,86.2z M90,93.2v5c-1.8,0.1-3.5,0.3-5,0.7c-0.5-1.8-0.8-3.8-0.9-5.7H90z M90,100.3v5.8
		c-1.8-0.5-3.4-2.6-4.4-5.2C87,100.5,88.5,100.3,90,100.3z M92,98.3v-5h6c-0.1,2.1-0.4,4-0.9,5.8C95.5,98.6,93.8,98.4,92,98.3z
		 M96.4,100.9c-1.1,2.7-2.7,4.6-4.4,5.2v-5.8C93.5,100.3,95,100.6,96.4,100.9z M92,91.2v-5c1.8-0.1,3.5-0.3,5.1-0.7
		c0.5,1.7,0.8,3.7,0.9,5.8H92z M92,84.2v-5.8c1.7,0.5,3.3,2.5,4.4,5.2C95,83.9,93.5,84.2,92,84.2z M96.3,79.3c1.6,0.6,3,1.6,4.3,2.7
		c-0.7,0.4-1.4,0.7-2.2,1C97.8,81.6,97.1,80.3,96.3,79.3z M83.6,83c-0.8-0.3-1.5-0.6-2.2-1c1.2-1.2,2.7-2.1,4.3-2.8
		C84.9,80.3,84.2,81.6,83.6,83z M83,84.9c-0.6,1.9-0.9,4.1-1,6.3h-5c0.2-2.9,1.3-5.6,3-7.7C80.9,84.1,81.9,84.5,83,84.9z M82,93.2
		c0.1,2.3,0.4,4.4,1,6.3c-1.1,0.4-2.1,0.9-2.9,1.4c-1.7-2.1-2.8-4.8-3-7.7H82z M83.6,101.5c0.6,1.4,1.3,2.7,2.1,3.8
		c-1.6-0.7-3-1.6-4.3-2.8C82.1,102.1,82.9,101.7,83.6,101.5z M98.3,101.5c0.8,0.3,1.5,0.6,2.2,1c-1.2,1.1-2.7,2.1-4.3,2.7
		C97.1,104.2,97.8,102.9,98.3,101.5z M99,99.6c0.6-1.9,0.9-4.1,1-6.4h5c-0.2,2.9-1.3,5.6-3,7.8C101,100.5,100,100,99,99.6z
		 M100,91.2c-0.1-2.3-0.4-4.4-1-6.4c1.1-0.4,2-0.9,2.9-1.4c1.7,2.2,2.8,4.8,3,7.8H100z"/>
	<rect x="108" y="64.2" fill="#000032" width="4" height="2"/>
	<rect x="108" y="72.2" fill="#000032" width="10" height="2"/>
	<rect x="112" y="68.2" fill="#000032" width="7" height="2"/>
	<rect x="114" y="64.2" fill="#000032" width="2" height="2"/>
	<rect x="118" y="64.2" fill="#000032" width="2" height="2"/>
	<rect x="108" y="68.2" fill="#000032" width="2" height="2"/>
	<rect x="64" y="118.2" fill="#000032" width="14" height="2"/>
	<rect x="67" y="114.2" fill="#000032" width="11" height="2"/>
	<rect x="64" y="114.2" fill="#000032" width="2" height="2"/>
</g>
</svg>
