<?xml version="1.0" encoding="utf-8"?>
<!-- Generator: Adobe Illustrator 18.1.1, SVG Export Plug-In . SVG Version: 6.00 Build 0)  -->
<!DOCTYPE svg PUBLIC "-//W3C//DTD SVG 1.1//EN" "http://www.w3.org/Graphics/SVG/1.1/DTD/svg11.dtd">
<svg version="1.1" id="Calque_1" xmlns="http://www.w3.org/2000/svg" xmlns:xlink="http://www.w3.org/1999/xlink" x="0px" y="0px"
	 viewBox="0 0 160 160" enable-background="new 0 0 160 160" xml:space="preserve">
<polyline fill="none" stroke="#000032" stroke-width="4" stroke-miterlimit="10" points="80,78 80,92 67,103 "/>
<line fill="none" stroke="#000032" stroke-width="4" stroke-miterlimit="10" x1="93" y1="103" x2="80" y2="92"/>
<g>
	<g>
		<path fill="#000032" d="M80,28c12.7,0,23,10.3,23,23S92.7,74,80,74S57,63.7,57,51S67.3,28,80,28 M80,24c-14.9,0-27,12.1-27,27
			s12.1,27,27,27s27-12.1,27-27S94.9,24,80,24L80,24z"/>
	</g>
	<path fill="#000032" d="M80,38c2.8,0,5,2.2,5,5v4.5c0,2.8-2.2,5-5,5s-5-2.2-5-5V43C75,40.2,77.2,38,80,38 M80,34c-5,0-9,4-9,9v4.5
		c0,5,4,9,9,9s9-4,9-9V43C89,38,85,34,80,34L80,34z"/>
	<g>
		<path fill="#000032" d="M67.4,74.9l-0.6-8c0.1-2.7,2.3-4.9,5-4.9l5.6,5l2.7,2.4l2.7-2.4l5.6-5c2.7,0,4.9,2.2,5,4.9l-0.6,8
			c1.5-0.8,2.9-1.7,4.2-2.8l0.4-5.1c0-5-4-9-9-9h-1.5L80,64l-6.8-6h-1.5c-5,0-9,4-9,9l0.4,5.1C64.5,73.2,65.9,74.1,67.4,74.9z"/>
	</g>
</g>
<g>
	<g>
		<path fill="#000032" d="M117,86c12.7,0,23,10.3,23,23s-10.3,23-23,23s-23-10.3-23-23S104.3,86,117,86 M117,82
			c-14.9,0-27,12.1-27,27s12.1,27,27,27s27-12.1,27-27S131.9,82,117,82L117,82z"/>
	</g>
	<path fill="#000032" d="M117,96c2.8,0,5,2.2,5,5v4.5c0,2.8-2.2,5-5,5s-5-2.2-5-5V101C112,98.2,114.2,96,117,96 M117,92
		c-5,0-9,4-9,9v4.5c0,5,4,9,9,9s9-4,9-9V101C126,96,122,92,117,92L117,92z"/>
	<g>
		<path fill="#000032" d="M104.4,132.9l-0.6-8c0.1-2.7,2.3-4.9,5-4.9l5.6,5l2.7,2.4l2.7-2.4l5.6-5c2.7,0,4.9,2.2,5,4.9l-0.6,8
			c1.5-0.8,2.9-1.7,4.2-2.8l0.4-5.1c0-5-4-9-9-9h-1.5l-6.8,6l-6.8-6h-1.5c-5,0-9,4-9,9l0.4,5.1C101.5,131.2,102.9,132.1,104.4,132.9
			z"/>
	</g>
</g>
<g>
	<g>
		<path fill="#000032" d="M43,86c12.7,0,23,10.3,23,23s-10.3,23-23,23s-23-10.3-23-23S30.3,86,43,86 M43,82c-14.9,0-27,12.1-27,27
			s12.1,27,27,27s27-12.1,27-27S57.9,82,43,82L43,82z"/>
	</g>
	<path fill="#000032" d="M43,96c2.8,0,5,2.2,5,5v4.5c0,2.8-2.2,5-5,5s-5-2.2-5-5V101C38,98.2,40.2,96,43,96 M43,92c-5,0-9,4-9,9v4.5
		c0,5,4,9,9,9s9-4,9-9V101C52,96,48,92,43,92L43,92z"/>
	<g>
		<path fill="#000032" d="M30.4,132.9l-0.6-8c0.1-2.7,2.3-4.9,5-4.9l5.6,5l2.7,2.4l2.7-2.4l5.6-5c2.7,0,4.9,2.2,5,4.9l-0.6,8
			c1.5-0.8,2.9-1.7,4.2-2.8l0.4-5.1c0-5-4-9-9-9h-1.5l-6.8,6l-6.8-6h-1.5c-5,0-9,4-9,9l0.4,5.1C27.5,131.2,28.9,132.1,30.4,132.9z"
			/>
	</g>
</g>
</svg>
