<?xml version="1.0" encoding="utf-8"?>
<!-- Generator: Adobe Illustrator 18.1.1, SVG Export Plug-In . SVG Version: 6.00 Build 0)  -->
<!DOCTYPE svg PUBLIC "-//W3C//DTD SVG 1.1//EN" "http://www.w3.org/Graphics/SVG/1.1/DTD/svg11.dtd">
<svg version="1.1" id="Calque_1" xmlns="http://www.w3.org/2000/svg" xmlns:xlink="http://www.w3.org/1999/xlink" x="0px" y="0px"
	 viewBox="0 0 160 160" enable-background="new 0 0 160 160" xml:space="preserve">
<g>
	<path fill="none" stroke="#FFFFFF" stroke-width="2" stroke-miterlimit="10" d="M69.1,55.7L51.5,42.4c-0.8-0.6-2-0.5-2.7,0.2
		c-0.2,0.3-1.4,1.7-6.6,9.9c-3.8,6.1-2.3,10.7-0.2,13.2c-5,2.7-10.2,4.7-15.1,4.7c-7.8,0-8.6-2.9-10.1-8.3L16.8,62
		c-1-3.5-3-7.5-7.2-7c-1.1,0.1-2.7,0.5-3.8,2c-0.7,1.1-1.2,2.6-1.7,5.2c-0.5,3.3-0.8,5.4-1,7.1c-0.2,2-0.4,3.4-0.9,5.5
		c-3.1,12.6,0.2,22.7,1.2,25.5c0,0-0.1,0.1-0.1,0.1l0,0c-0.3,0.3-0.4,0.5-0.5,0.8c0,0.1,0,0.2-0.1,0.3c0,0.3,0,0.7,0,1.2
		c0,1.3,0,3.7,0,6.9c0,2.6,0.9,4.6,2.7,6.1c2.5,2.1,6,2.4,7.6,2.4c0.3,0,0.5,0,0.7,0h94.3c13,0,34.7-4.5,42.8-8
		c8.3-3.6,8-8.5,8.1-11.7c0-0.3,0-0.6,0-0.9c0-3.1-0.1-5.3-0.4-6.8c-0.1-0.7-0.3-1.2-0.6-1.6c-0.7-1.6-2.7-3.1-6.8-4.1
		c-5.6-1.4-16.4-2.9-25-4.2c-1.9-0.3-4.4-1-7.2-2.1C118.9,78.6,97.2,70.3,69.1,55.7z"/>
	<polygon fill="none" stroke="#FFFFFF" stroke-width="2" stroke-miterlimit="10" points="67.2,113.7 90.2,81.9 74.5,73.5 50,107.2 	
		"/>
	<path fill="none" stroke="#FFFFFF" stroke-width="2" stroke-miterlimit="10" d="M2.9,101.2c0,0,5.4,2.7,24.6,2.7
		c29.8,0,35.3,14.1,64.6,14.1"/>
	<path fill="none" stroke="#FFFFFF" stroke-width="2" stroke-miterlimit="10" d="M158,88.9c0,8.6-40.9,9.4-40.9,28.5"/>
	<path fill="none" stroke="#FFFFFF" stroke-width="2" stroke-miterlimit="10" d="M138.6,82.5c1.5,11.4-34,11.9-34,35.5"/>
	<path fill="none" stroke="#FFFFFF" stroke-width="2" stroke-miterlimit="10" d="M126.2,80.7c-5.9,8-14.3,11.1-29.7,4.1
		S50.8,60.2,50.8,60.2"/>
	<path fill="none" stroke="#FFFFFF" stroke-width="2" stroke-miterlimit="10" d="M69.1,55.7c-6-4.6-20.5,5.9-27,10"/>
	<path fill="none" stroke="#FFFFFF" stroke-width="2" stroke-miterlimit="10" d="M19.4,68.2c0,0-9.4-3.1-16.7,4.4"/>
	<line fill="none" stroke="#FFFFFF" stroke-width="2" stroke-miterlimit="10" x1="74.5" y1="73.5" x2="50" y2="107.2"/>
	<line fill="none" stroke="#FFFFFF" stroke-width="2" stroke-miterlimit="10" x1="90.2" y1="81.9" x2="67.2" y2="113.7"/>
	<path fill="none" stroke="#FFFFFF" stroke-width="2" stroke-miterlimit="10" d="M2.7,72.6c0,0,30.6,14.7,64.8,10.5"/>
	<path fill="none" stroke="#FFFFFF" stroke-width="2" stroke-miterlimit="10" d="M2.7,72.6c0,0,15.9,23,53.8,25.6"/>
	<path fill="none" stroke="#FFFFFF" stroke-width="2" stroke-miterlimit="10" d="M23.9,89.5c0,0-1,8.7,3.6,14.4"/>
	<line fill="none" stroke="#FFFFFF" stroke-width="2" stroke-miterlimit="10" x1="62.6" y1="67.3" x2="34.1" y2="81.9"/>
	<line fill="none" stroke="#FFFFFF" stroke-width="2" stroke-miterlimit="10" x1="72.3" y1="57.4" x2="67.3" y2="60.7"/>
	<line fill="none" stroke="#FFFFFF" stroke-width="2" stroke-miterlimit="10" x1="80.8" y1="61.7" x2="75.6" y2="65.1"/>
	<line fill="none" stroke="#FFFFFF" stroke-width="2" stroke-miterlimit="10" x1="89.5" y1="65.8" x2="83.9" y2="69.5"/>
	<line fill="none" stroke="#FFFFFF" stroke-width="2" stroke-miterlimit="10" x1="98.3" y1="69.9" x2="92.3" y2="73.8"/>
	<line fill="none" stroke="#FFFFFF" stroke-width="2" stroke-miterlimit="10" x1="107.3" y1="73.8" x2="100.6" y2="78.2"/>
	<line fill="none" stroke="#FFFFFF" stroke-width="2" stroke-miterlimit="10" x1="116.5" y1="77.6" x2="111.4" y2="81"/>
	<path fill="none" stroke="#FFFFFF" stroke-width="2" stroke-miterlimit="10" d="M69.1,55.7L51.5,42.4c-0.8-0.6-2-0.5-2.7,0.2
		c-0.2,0.3-1.4,1.7-6.6,9.9c-3.8,6.1-2.3,10.7-0.2,13.2c-5,2.7-10.2,4.7-15.1,4.7c-7.8,0-8.6-2.9-10.1-8.3L16.8,62
		c-1-3.5-3-7.5-7.2-7c-1.1,0.1-2.7,0.5-3.8,2c-0.7,1.1-1.2,2.6-1.7,5.2c-0.5,3.3-0.8,5.4-1,7.1c-0.2,2-0.4,3.4-0.9,5.5
		c-3.1,12.6,0.2,22.7,1.2,25.5c0,0-0.1,0.1-0.1,0.1l0,0c-0.3,0.3-0.4,0.5-0.5,0.8c0,0.1,0,0.2-0.1,0.3c0,0.3,0,0.7,0,1.2
		c0,1.3,0,3.7,0,6.9c0,2.6,0.9,4.6,2.7,6.1c2.5,2.1,6,2.4,7.6,2.4c0.3,0,0.5,0,0.7,0h94.3c13,0,34.7-4.5,42.8-8
		c8.3-3.6,8-8.5,8.1-11.7c0-0.3,0-0.6,0-0.9c0-3.1-0.1-5.3-0.4-6.8c-0.1-0.7-0.3-1.2-0.6-1.6c-0.7-1.6-2.7-3.1-6.8-4.1
		c-5.6-1.4-16.4-2.9-25-4.2c-1.9-0.3-4.4-1-7.2-2.1C118.9,78.6,97.2,70.3,69.1,55.7z"/>
</g>
</svg>
