<?xml version="1.0" encoding="utf-8"?>
<!-- Generator: Adobe Illustrator 18.1.1, SVG Export Plug-In . SVG Version: 6.00 Build 0)  -->
<!DOCTYPE svg PUBLIC "-//W3C//DTD SVG 1.1//EN" "http://www.w3.org/Graphics/SVG/1.1/DTD/svg11.dtd">
<svg version="1.1" id="Calque_1" xmlns="http://www.w3.org/2000/svg" xmlns:xlink="http://www.w3.org/1999/xlink" x="0px" y="0px"
	 viewBox="52 52.2 80 80" enable-background="new 52 52.2 80 80" xml:space="preserve">
<g>
	<path fill="#000032" d="M112,112.2l4,9l4-9v-37h-8V112.2z M116,116.3l-2-4.5v-2.6h4v2.6L116,116.3z M118,77.2v30h-4v-30H118z"/>
	<path fill="#000032" d="M100,63.2H70v2h-6v56h42v-56h-6V63.2z M72,65.2h26v6H72V65.2z M104,67.2v52H66v-52h4v6h30v-6H104z"/>
	<rect x="73" y="91.2" fill="#000032" width="25" height="2"/>
	<rect x="73" y="97.2" fill="#000032" width="25" height="2"/>
	<rect x="73" y="103.2" fill="#000032" width="25" height="2"/>
	<rect x="73" y="109.2" fill="#000032" width="12" height="2"/>
	<rect x="73" y="85.2" fill="#000032" width="25" height="2"/>
	<rect x="73" y="79.2" fill="#000032" width="25" height="2"/>
	<path fill="#000032" d="M112,65.2v8h8v-8H112z M118,71.2h-4v-4h4V71.2z"/>
</g>
</svg>
