<?xml version="1.0" encoding="utf-8"?>
<!-- Generator: Adobe Illustrator 18.1.1, SVG Export Plug-In . SVG Version: 6.00 Build 0)  -->
<!DOCTYPE svg PUBLIC "-//W3C//DTD SVG 1.1//EN" "http://www.w3.org/Graphics/SVG/1.1/DTD/svg11.dtd">
<svg version="1.1" id="Calque_1" xmlns="http://www.w3.org/2000/svg" xmlns:xlink="http://www.w3.org/1999/xlink" x="0px" y="0px"
	 viewBox="0 0 160 78" enable-background="new 0 0 160 78" xml:space="preserve">
<g>
	<path fill="none" stroke="#000032" stroke-width="4" stroke-miterlimit="10" d="M71.5,12.5L57.6,2.3C57,1.8,56,1.9,55.5,2.5
		c-0.2,0.2-1.1,1.3-5.1,7.6c-3,4.6-1.8,8.2-0.1,10.1c-3.9,2-8,3.6-11.8,3.6c-6.2,0-6.8-2.2-7.9-6.3l-0.1-0.2
		c-0.8-2.6-2.3-5.7-5.6-5.4c-0.9,0.1-2.1,0.3-3,1.6c-0.6,0.8-1,2-1.3,3.9c-0.4,2.5-0.6,4.1-0.8,5.4c-0.2,1.5-0.3,2.6-0.7,4.2
		c-2.4,9.6,0.1,17.3,1,19.4c0,0-0.1,0.1-0.1,0.1l0,0c-0.2,0.2-0.3,0.4-0.4,0.6c0,0.1,0,0.2,0,0.3c0,0.2,0,0.5,0,0.9c0,1,0,2.8,0,5.3
		c0,2,0.7,3.5,2.1,4.7c2,1.6,4.7,1.8,5.9,1.8c0.2,0,0.4,0,0.5,0h74c10.2,0,27.3-3.4,33.6-6.1c6.5-2.8,6.3-6.5,6.4-9
		c0-0.2,0-0.5,0-0.7c0-2.3-0.1-4.1-0.3-5.2c-0.1-0.5-0.3-0.9-0.5-1.2c-0.5-1.2-2.2-2.3-5.3-3.1c-4.4-1.1-12.9-2.2-19.6-3.2
		c-1.5-0.2-3.4-0.8-5.7-1.6C110.6,29.9,93.5,23.6,71.5,12.5z"/>
	<polygon fill="none" stroke="#000032" stroke-width="4" stroke-miterlimit="10" points="69.9,56.7 88,32.5 75.7,26 56.5,51.8 	"/>
	<path fill="none" stroke="#000032" stroke-width="4" stroke-miterlimit="10" d="M19.5,47.1c0,0,4.2,2.1,19.3,2.1
		C62.2,49.2,66.6,60,89.5,60"/>
	<path fill="none" stroke="#000032" stroke-width="4" stroke-miterlimit="10" d="M141.2,37.8c0,6.6-32.1,7.2-32.1,21.8"/>
	<path fill="none" stroke="#000032" stroke-width="4" stroke-miterlimit="10" d="M126,32.9c1.2,8.7-26.7,9.1-26.7,27.1"/>
	<path fill="none" stroke="#000032" stroke-width="4" stroke-miterlimit="10" d="M116.2,31.5c-4.6,6.1-11.2,8.4-23.3,3.2
		S57.1,15.9,57.1,15.9"/>
	<path fill="none" stroke="#000032" stroke-width="4" stroke-miterlimit="10" d="M71.5,12.5C66.7,9,55.3,17,50.2,20.1"/>
	<path fill="none" stroke="#000032" stroke-width="4" stroke-miterlimit="10" d="M32.5,22c0,0-7.4-2.4-13.1,3.4"/>
	<line fill="none" stroke="#000032" stroke-width="4" stroke-miterlimit="10" x1="75.7" y1="26" x2="56.5" y2="51.8"/>
	<line fill="none" stroke="#000032" stroke-width="4" stroke-miterlimit="10" x1="88" y1="32.5" x2="69.9" y2="56.7"/>
	<path fill="none" stroke="#000032" stroke-width="4" stroke-miterlimit="10" d="M19.4,25.4c0,0,24,11.2,50.9,8"/>
	<path fill="none" stroke="#000032" stroke-width="4" stroke-miterlimit="10" d="M19.4,25.4c0,0,12.5,17.5,42.2,19.5"/>
	<path fill="none" stroke="#000032" stroke-width="4" stroke-miterlimit="10" d="M36,38.3c0,0-0.8,6.6,2.8,11"/>
	<line fill="none" stroke="#000032" stroke-width="4" stroke-miterlimit="10" x1="66.3" y1="21.3" x2="44" y2="32.5"/>
	<line fill="none" stroke="#000032" stroke-width="4" stroke-miterlimit="10" x1="74" y1="13.7" x2="70" y2="16.3"/>
	<line fill="none" stroke="#000032" stroke-width="4" stroke-miterlimit="10" x1="80.6" y1="17" x2="76.6" y2="19.6"/>
	<line fill="none" stroke="#000032" stroke-width="4" stroke-miterlimit="10" x1="87.4" y1="20.2" x2="83.1" y2="23"/>
	<line fill="none" stroke="#000032" stroke-width="4" stroke-miterlimit="10" x1="94.4" y1="23.3" x2="89.6" y2="26.3"/>
	<line fill="none" stroke="#000032" stroke-width="4" stroke-miterlimit="10" x1="101.4" y1="26.3" x2="96.2" y2="29.7"/>
	<line fill="none" stroke="#000032" stroke-width="4" stroke-miterlimit="10" x1="108.7" y1="29.2" x2="104.7" y2="31.7"/>
</g>
<line fill="none" stroke="#000032" stroke-width="4" stroke-miterlimit="10" x1="16" y1="76" x2="144" y2="76"/>
<line fill="none" stroke="#000032" stroke-width="4" stroke-miterlimit="10" x1="18" y1="68" x2="18" y2="74"/>
<line fill="none" stroke="#000032" stroke-width="4" stroke-miterlimit="10" x1="33" y1="70" x2="33" y2="74"/>
<line fill="none" stroke="#000032" stroke-width="4" stroke-miterlimit="10" x1="49" y1="70" x2="49" y2="74"/>
<line fill="none" stroke="#000032" stroke-width="4" stroke-miterlimit="10" x1="64" y1="70" x2="64" y2="74"/>
<line fill="none" stroke="#000032" stroke-width="4" stroke-miterlimit="10" x1="80" y1="68" x2="80" y2="74"/>
<line fill="none" stroke="#000032" stroke-width="4" stroke-miterlimit="10" x1="95" y1="70" x2="95" y2="74"/>
<line fill="none" stroke="#000032" stroke-width="4" stroke-miterlimit="10" x1="111" y1="70" x2="111" y2="74"/>
<line fill="none" stroke="#000032" stroke-width="4" stroke-miterlimit="10" x1="126" y1="70" x2="126" y2="74"/>
<line fill="none" stroke="#000032" stroke-width="4" stroke-miterlimit="10" x1="142" y1="68" x2="142" y2="74"/>
</svg>
